<svg width="715" height="630" viewBox="0 0 715 630" fill="none" xmlns="http://www.w3.org/2000/svg">
<g clip-path="url(#clip0_709_82)">
<path d="M186.49 22.66C182.677 22.9334 181.523 23.7234 183.03 25.03C183.218 25.1944 183.337 25.423 183.365 25.6709C183.393 25.9189 183.327 26.1682 183.18 26.37L178.54 32.75" stroke="#2E1E40" stroke-width="2"/>
<path d="M612.96 5C610.97 5.69 608.53 5.87 606.66 6.46C604.92 7.01333 604.797 7.48333 606.29 7.87C606.452 7.91258 606.601 7.99514 606.722 8.11012C606.844 8.22509 606.935 8.3688 606.987 8.52805C607.039 8.6873 607.05 8.857 607.019 9.02158C606.988 9.18616 606.916 9.34035 606.81 9.47L606.01 10.43C605.9 10.5642 605.758 10.6679 605.599 10.731C605.439 10.7941 605.268 10.8144 605.1 10.79C603.313 10.5233 602.803 11.16 603.57 12.7C603.661 12.8818 603.692 13.0881 603.66 13.29C603.42 14.9767 602.547 16.13 601.04 16.75" stroke="#2E1E40" stroke-width="2"/>
<path d="M612.46 7.5C610.613 8.98 609.813 11.15 610.06 14.01C610.14 14.9167 609.88 15.3 609.28 15.16C609.14 15.1264 609.016 15.0471 608.928 14.9347C608.839 14.8222 608.79 14.6833 608.79 14.54C608.756 12.3533 608.163 12.1833 607.01 14.03C605.076 17.1367 602.98 20.1133 600.72 22.96" stroke="#2E1E40" stroke-width="2"/>
<path d="M611.46 17.7499C611.294 17.6099 611.104 17.5233 610.89 17.4899C610.763 17.4713 610.634 17.4825 610.514 17.5225C610.394 17.5625 610.287 17.6302 610.2 17.7199C609.254 18.6666 608.12 19.1733 606.8 19.2399C606.027 19.2799 605.864 19.6166 606.31 20.2499L606.55 20.5899C606.67 20.7588 606.734 20.9616 606.732 21.1697C606.73 21.3778 606.663 21.5807 606.54 21.7499L599.99 30.8599" stroke="#2E1E40" stroke-width="2"/>
<path d="M611.21 20C609.903 21.7533 608.86 23.63 608.08 25.63C607.25 27.76 601.88 36.14 599.29 37" stroke="#2E1E40" stroke-width="2"/>
<path d="M610.21 35.25C607.24 35.43 600.76 45.78 599 48.43" stroke="#2E1E40" stroke-width="2"/>
<path d="M186.53 27.66C185.803 29.6067 184.72 31.3134 183.28 32.78C183.094 32.9657 182.99 33.2175 182.99 33.48V34.82C182.993 34.9902 182.953 35.1581 182.872 35.3072C182.791 35.4562 182.673 35.5813 182.53 35.67L178.34 38.32" stroke="#2E1E40" stroke-width="2"/>
<path d="M187.54 34.5L184.05 38.9C183.926 39.0626 183.755 39.1816 183.56 39.24L182 39.71C181.874 39.7473 181.756 39.8097 181.654 39.8936C181.552 39.9775 181.468 40.0812 181.406 40.1985C181.345 40.3159 181.307 40.4446 181.296 40.5771C181.285 40.7095 181.3 40.8431 181.34 40.97C181.893 42.7033 181.363 44.1167 179.75 45.21" stroke="#2E1E40" stroke-width="2"/>
<path d="M187.8 39.21C186.533 41.1033 185.74 43.1933 185.42 45.48C185.046 48.2 184.526 48.23 183.86 45.57C183.826 45.4566 183.796 45.34 183.77 45.22C183.67 44.8066 183.51 44.78 183.29 45.14L180.01 50.55" stroke="#2E1E40" stroke-width="2"/>
<path d="M609.96 38.25C607.507 40.9233 606.067 44.0733 605.64 47.7C605.627 47.8078 605.592 47.9117 605.537 48.0057C605.483 48.0997 605.41 48.1818 605.323 48.2471C605.237 48.3124 605.138 48.3596 605.032 48.3858C604.927 48.4121 604.817 48.4169 604.71 48.4L604.41 48.35C604.267 48.3251 604.121 48.3319 603.981 48.3697C603.841 48.4076 603.712 48.4756 603.601 48.569C603.491 48.6625 603.402 48.7791 603.341 48.9105C603.28 49.042 603.249 49.1852 603.25 49.33V50.88C603.249 51.0804 603.188 51.2761 603.074 51.4419C602.96 51.6077 602.798 51.736 602.61 51.81L598.29 53.5" stroke="#2E1E40" stroke-width="2"/>
<path d="M608.16 69.64C606.773 70.5267 606.636 71.7167 607.75 73.21" stroke="#2E1E40" stroke-width="2"/>
<path d="M607.75 76.54L606.19 78.15C606.098 78.248 605.987 78.3261 605.863 78.3794C605.739 78.4327 605.605 78.4602 605.47 78.46C601.837 78.4267 598.733 79.74 596.16 82.4" stroke="#2E1E40" stroke-width="2"/>
<path d="M197.46 108.5C194.5 106.38 191.17 101.48 186.54 101" stroke="#2E1E40" stroke-width="2"/>
<path d="M606.79 82.24C599.23 79.56 597.85 88.22 598.53 93.46C598.562 93.7165 598.494 93.9746 598.34 94.18C597.7 95.06 597.13 93.62 597.09 93.04C597.043 92.42 596.97 91.7934 596.87 91.16C596.563 89.34 596.053 89.28 595.34 90.98C595.24 91.22 595.167 91.4734 595.12 91.74" stroke="#2E1E40" stroke-width="2"/>
<path d="M592.6 114.79C592.32 116.05 592.78 122.45 591.54 122.25" stroke="#2E1E40" stroke-width="2"/>
<path d="M601 133.96C600.06 137.8 599.74 141.73 600.04 145.75" stroke="#2E1E40" stroke-width="2"/>
<path d="M596.21 167.25C595.45 167.93 595.437 168.64 596.17 169.38" stroke="#0B0415" stroke-opacity="0.769" stroke-width="2"/>
<path d="M596.17 169.38C593.58 173.89 583.17 192.13 582.07 192.28" stroke="#2E1E40" stroke-width="2"/>
<path d="M204.21 144.47C203.11 143.597 202.704 142.457 202.99 141.05" stroke="#2E1E40" stroke-width="2"/>
<path d="M199.11 117.49C196.403 112.05 192.453 107.607 187.26 104.16" stroke="#2E1E40" stroke-width="2"/>
<path d="M215.14 200.09C210.993 195.65 207.213 190.93 203.8 185.93C199.15 179.12 199.02 168.38 198.38 160.45C198.3 159.55 197.56 158.65 196.79 159.75" stroke="#2E1E40" stroke-width="2"/>
<path d="M592.51 193.7L593.71 188" stroke="#2E1E40" stroke-width="2"/>
<path d="M593.71 188L594.51 183.54C594.836 181.707 594.523 181.587 593.57 183.18L593.3 183.62" stroke="#33253F" stroke-opacity="0.769" stroke-width="2"/>
<path d="M593.299 183.62C589.173 190.86 584.649 197.85 579.729 204.59" stroke="#2E1E40" stroke-width="2"/>
<path d="M574.91 237.6C575.317 239.153 575.094 240.647 574.24 242.08" stroke="#2E1E40" stroke-width="2"/>
<path d="M596.17 169.38L596.75 167.79" stroke="#33253F" stroke-opacity="0.769" stroke-width="2"/>
<path d="M222.62 234.04C221.447 230.92 220.727 227.677 220.46 224.31" stroke="#2E1E40" stroke-width="2"/>
<path d="M217.179 208.45L214.27 204.19C213.21 202.643 212.723 202.807 212.809 204.68C212.849 205.587 212.836 206.493 212.77 207.4C212.73 207.97 212.339 208.35 211.809 208.09C211.679 208.023 211.569 207.923 211.492 207.8C211.415 207.676 211.372 207.535 211.369 207.39C211.203 200.25 208.489 194.283 203.229 189.49" stroke="#2E1E40" stroke-width="2"/>
<path d="M593.71 188L593.3 183.62" stroke="#0B0415" stroke-opacity="0.769" stroke-width="2"/>
<path d="M582.83 255.92C581.13 256.26 581.8 260.31 581.96 261.5" stroke="#2E1E40" stroke-width="2"/>
<path d="M509.46 468C507.68 468.253 507.026 469.237 507.5 470.95" stroke="#2E1E40" stroke-width="2"/>
<path d="M483.6 496.31C483.806 492.223 484.7 487.793 486.28 483.02C488.7 475.74 492.616 469.76 498.03 465.08C498.69 464.51 498.85 463.85 498.75 463.04" stroke="#2E1E40" stroke-width="2"/>
<path d="M240.25 312.21L239.68 311.99C239.54 311.93 239.42 311.847 239.32 311.74C234.567 306.74 230.1 301.5 225.92 296.02" stroke="#2E1E40" stroke-width="2"/>
<path d="M219.38 264.7C219.093 261.373 218.757 258.02 218.37 254.64C218.27 253.78 217.95 253.44 217.04 253.75" stroke="#2E1E40" stroke-width="2"/>
<path d="M246.94 337.71C246.28 337.837 245.926 337.74 245.88 337.42C245.273 332.953 244.306 328.567 242.98 324.26C242.573 322.953 242.043 321.697 241.39 320.49C240.57 318.99 239.953 319.07 239.54 320.73L239.25 321.88C239.09 322.52 238.796 322.59 238.37 322.09C238.236 321.937 238.16 321.737 238.14 321.49C237.606 313.797 234.426 307.857 228.6 303.67" stroke="#2E1E40" stroke-width="2"/>
<path d="M338.94 522.07C337.313 526.237 336.393 530.633 336.18 535.26" stroke="#2E1E40" stroke-width="2"/>
<path d="M243.24 362.95C242.99 361.78 243.23 354.69 241.29 355" stroke="#2E1E40" stroke-width="2"/>
<path d="M465.25 512.21C465.777 510.81 466.65 510.373 467.87 510.9" stroke="#2E1E40" stroke-width="2"/>
<path d="M477.46 502.43C479.373 496.397 480.513 490.153 480.88 483.7" stroke="#2E1E40" stroke-width="2"/>
<path d="M443.79 526.25C444.363 520.483 445.85 514.97 448.25 509.71" stroke="#2E1E40" stroke-width="2"/>
<path d="M453 506.29C454.213 506.17 455.063 505.683 455.55 504.83" stroke="#2E1E40" stroke-width="2"/>
<path d="M424.25 536.21C424.663 535.097 425.627 534.7 427.14 535.02" stroke="#2E1E40" stroke-width="2"/>
<path d="M439.02 529.55C440.706 524.503 441.87 519.137 442.51 513.45" stroke="#2E1E40" stroke-width="2"/>
<path d="M400.33 543.43C400.883 538.897 401.87 534.42 403.29 530" stroke="#2E1E40" stroke-width="2"/>
<path d="M409.32 527.9C410.18 528.273 410.967 528.1 411.68 527.38" stroke="#2E1E40" stroke-width="2"/>
<path d="M345.25 524.93C344.51 525.203 343.837 524.94 343.23 524.14C343.119 523.99 342.969 523.874 342.796 523.805C342.623 523.736 342.434 523.717 342.25 523.75C339.23 524.33 339.92 534.89 340.29 537.5" stroke="#2E1E40" stroke-width="2"/>
<path d="M362.79 531C361.103 532.767 359.853 532.433 359.04 530" stroke="#2E1E40" stroke-width="2"/>
<path d="M357.83 530.25L357.29 543.5" stroke="#2E1E40" stroke-width="2"/>
<path d="M344.91 539.74C346.077 539.56 346.94 539.827 347.5 540.54" stroke="#2E1E40" stroke-width="2"/>
<path d="M352.96 542.25C353.613 537.783 353.877 533.297 353.75 528.79" stroke="#2E1E40" stroke-width="2"/>
<path d="M379.71 545.75C379.577 541.29 378.84 536.943 377.5 532.71" stroke="#2E1E40" stroke-width="2"/>
<path d="M373.96 531.75C373.513 532.623 372.847 532.79 371.96 532.25" stroke="#2E1E40" stroke-width="2"/>
<path d="M380.79 532.75C380.497 537.15 381.163 541.4 382.79 545.5" stroke="#2E1E40" stroke-width="2"/>
<path d="M396.77 544.42L399.38 530.65" stroke="#2E1E40" stroke-width="2"/>
<path d="M370.02 545.82C369.413 545.38 368.753 545.357 368.04 545.75" stroke="#2E1E40" stroke-width="2"/>
<path d="M361.71 544.5C360.903 543.94 360.083 543.87 359.25 544.29" stroke="#2E1E40" stroke-width="2"/>
<path d="M176.5 0H185.33L186.49 22.66C182.677 22.9333 181.523 23.7233 183.03 25.03C183.218 25.1944 183.337 25.423 183.365 25.6709C183.393 25.9188 183.327 26.1682 183.18 26.37L178.54 32.75L176.5 0Z" fill="#0F041F"/>
<path d="M603.78 -0.0100098L613.56 -9.76585e-06L612.96 4.99999C610.97 5.68999 608.53 5.86999 606.66 6.45999C604.92 7.01332 604.797 7.48332 606.29 7.86999C606.452 7.91257 606.601 7.99513 606.722 8.11011C606.844 8.22508 606.935 8.36879 606.987 8.52804C607.039 8.68729 607.05 8.85699 607.019 9.02157C606.988 9.18615 606.916 9.34034 606.81 9.46999L606.01 10.43C605.9 10.5642 605.758 10.6679 605.599 10.731C605.439 10.794 605.268 10.8144 605.1 10.79C603.313 10.5233 602.803 11.16 603.57 12.7C603.661 12.8818 603.692 13.0881 603.66 13.29C603.42 14.9767 602.547 16.13 601.04 16.75C601.053 10.9967 601.967 5.40999 603.78 -0.0100098Z" fill="#0F041F"/>
<path d="M665.297 1.20982C669.067 1.30856 672.13 1.16483 672.137 0.888778C672.145 0.61273 669.094 0.308903 665.323 0.210161C661.552 0.111418 658.489 0.255153 658.482 0.531201C658.475 0.807248 661.526 1.11108 665.297 1.20982Z" fill="#0F041F"/>
<path d="M612.96 5L612.46 7.5C610.614 8.98 609.814 11.15 610.06 14.01C610.14 14.9167 609.88 15.3 609.28 15.16C609.141 15.1264 609.017 15.0471 608.928 14.9347C608.839 14.8222 608.791 14.6833 608.79 14.54C608.757 12.3533 608.164 12.1833 607.01 14.03C605.077 17.1367 602.98 20.1133 600.72 22.96C598.33 21.17 600.17 19.12 601.04 16.75C602.547 16.13 603.42 14.9767 603.66 13.29C603.693 13.0881 603.661 12.8818 603.57 12.7C602.804 11.16 603.314 10.5233 605.1 10.79C605.268 10.8144 605.44 10.7941 605.599 10.731C605.758 10.6679 605.9 10.5642 606.01 10.43L606.81 9.47C606.916 9.34035 606.988 9.18616 607.019 9.02158C607.05 8.857 607.039 8.6873 606.987 8.52805C606.935 8.3688 606.844 8.22509 606.723 8.11012C606.601 7.99514 606.452 7.91258 606.29 7.87C604.797 7.48333 604.92 7.01333 606.66 6.46C608.53 5.87 610.97 5.69 612.96 5Z" fill="#4C3760"/>
<path d="M612.46 7.5L611.46 17.75C611.294 17.61 611.104 17.5233 610.89 17.49C610.763 17.4714 610.634 17.4826 610.514 17.5226C610.394 17.5626 610.287 17.6303 610.2 17.72C609.254 18.6667 608.12 19.1733 606.8 19.24C606.027 19.28 605.864 19.6167 606.31 20.25L606.55 20.59C606.67 20.7589 606.734 20.9617 606.732 21.1697C606.73 21.3778 606.663 21.5808 606.54 21.75L599.99 30.86L600.72 22.96C602.98 20.1133 605.077 17.1367 607.01 14.03C608.164 12.1833 608.757 12.3533 608.79 14.54C608.791 14.6833 608.839 14.8222 608.928 14.9347C609.017 15.0471 609.141 15.1264 609.28 15.16C609.88 15.3 610.14 14.9167 610.06 14.01C609.814 11.15 610.614 8.98 612.46 7.5Z" fill="#0F041F"/>
<path d="M611.46 17.7499L611.21 19.9999C609.903 21.7533 608.86 23.6299 608.08 25.6299C607.25 27.7599 601.88 36.1399 599.29 36.9999C598.636 34.8799 598.87 32.8333 599.99 30.8599L606.54 21.7499C606.663 21.5807 606.73 21.3778 606.731 21.1697C606.733 20.9616 606.67 20.7588 606.55 20.5899L606.31 20.2499C605.863 19.6166 606.026 19.2799 606.8 19.2399C608.12 19.1733 609.253 18.6666 610.2 17.7199C610.286 17.6302 610.394 17.5625 610.514 17.5225C610.634 17.4825 610.763 17.4713 610.89 17.4899C611.103 17.5233 611.293 17.6099 611.46 17.7499Z" fill="#4C3760"/>
<path d="M611.21 20L610.21 35.25C607.24 35.43 600.76 45.78 599 48.43L599.29 37C601.88 36.14 607.25 27.76 608.08 25.63C608.86 23.63 609.903 21.7533 611.21 20Z" fill="#0F041F"/>
<path d="M186.49 22.66C189.73 21.62 186.92 26.77 186.53 27.66C185.804 29.6067 184.72 31.3133 183.28 32.78C183.095 32.9656 182.99 33.2174 182.99 33.48V34.82C182.994 34.9902 182.953 35.1581 182.872 35.3071C182.792 35.4562 182.674 35.5813 182.53 35.67L178.34 38.32C177.76 36.5133 177.827 34.6567 178.54 32.75L183.18 26.37C183.327 26.1682 183.393 25.9188 183.365 25.6709C183.337 25.423 183.218 25.1944 183.03 25.03C181.524 23.7233 182.677 22.9333 186.49 22.66Z" fill="#4C3760"/>
<path d="M186.53 27.66L187.54 34.5L184.05 38.9C183.926 39.0626 183.754 39.1817 183.56 39.24L182 39.71C181.873 39.7473 181.756 39.8098 181.654 39.8936C181.552 39.9775 181.468 40.0812 181.406 40.1986C181.345 40.3159 181.307 40.4446 181.296 40.5771C181.284 40.7096 181.299 40.8432 181.34 40.97C181.893 42.7034 181.363 44.1167 179.75 45.21C179.69 42.7367 179.22 40.44 178.34 38.32L182.53 35.67C182.673 35.5813 182.791 35.4562 182.872 35.3072C182.953 35.1581 182.993 34.9902 182.99 34.82V33.48C182.99 33.2175 183.094 32.9657 183.28 32.78C184.72 31.3134 185.803 29.6067 186.53 27.66Z" fill="#0F041F"/>
<path d="M187.54 34.5C190.32 34.48 188.12 37.95 187.8 39.21C186.534 41.1033 185.74 43.1933 185.42 45.48C185.047 48.2 184.527 48.23 183.86 45.57C183.827 45.4566 183.797 45.34 183.77 45.22C183.67 44.8066 183.51 44.78 183.29 45.14L180.01 50.55C178.07 49.17 177.984 47.39 179.75 45.21C181.364 44.1166 181.894 42.7033 181.34 40.97C181.3 40.8431 181.285 40.7095 181.296 40.577C181.308 40.4446 181.345 40.3159 181.407 40.1985C181.468 40.0811 181.552 39.9775 181.654 39.8936C181.756 39.8097 181.874 39.7473 182 39.71L183.56 39.24C183.755 39.1816 183.926 39.0626 184.05 38.9L187.54 34.5Z" fill="#4C3760"/>
<path d="M610.21 35.25L609.96 38.25C607.506 40.9233 606.066 44.0733 605.64 47.7C605.626 47.8078 605.591 47.9117 605.537 48.0057C605.483 48.0997 605.41 48.1818 605.323 48.2471C605.236 48.3124 605.137 48.3596 605.032 48.3858C604.927 48.4121 604.817 48.4169 604.71 48.4L604.41 48.35C604.267 48.3251 604.121 48.3319 603.981 48.3697C603.841 48.4076 603.711 48.4756 603.601 48.569C603.49 48.6625 603.401 48.7791 603.341 48.9105C603.28 49.042 603.249 49.1852 603.25 49.33V50.88C603.249 51.0803 603.188 51.2761 603.074 51.4419C602.96 51.6077 602.798 51.736 602.61 51.81L598.29 53.5C598.043 51.6267 598.28 49.9367 599 48.43C600.76 45.78 607.24 35.43 610.21 35.25Z" fill="#4C3760"/>
<path d="M609.96 38.25L608.16 69.64C606.773 70.5267 606.637 71.7167 607.75 73.21C606.897 74.3367 606.897 75.4467 607.75 76.54L606.19 78.15C606.098 78.248 605.987 78.326 605.863 78.3794C605.739 78.4327 605.605 78.4601 605.47 78.46C601.837 78.4267 598.733 79.74 596.16 82.4L598.29 53.5L602.61 51.81C602.798 51.736 602.96 51.6077 603.074 51.4419C603.188 51.2761 603.25 51.0803 603.25 50.88V49.33C603.249 49.1852 603.281 49.042 603.341 48.9105C603.402 48.7791 603.491 48.6625 603.601 48.569C603.712 48.4756 603.842 48.4076 603.981 48.3697C604.121 48.3319 604.268 48.3251 604.41 48.35L604.71 48.4C604.817 48.4169 604.927 48.4121 605.032 48.3858C605.138 48.3596 605.237 48.3124 605.323 48.2471C605.41 48.1818 605.483 48.0997 605.537 48.0057C605.592 47.9117 605.627 47.8078 605.64 47.7C606.067 44.0733 607.507 40.9233 609.96 38.25Z" fill="#0F041F"/>
<path d="M187.8 39.21C190.513 62.4233 193.733 85.52 197.46 108.5C194.5 106.38 191.17 101.48 186.54 101L180.01 50.55L183.29 45.14C183.51 44.78 183.67 44.8066 183.77 45.22C183.796 45.34 183.826 45.4566 183.86 45.57C184.526 48.23 185.046 48.2 185.42 45.48C185.74 43.1933 186.533 41.1033 187.8 39.21Z" fill="#0F041F"/>
<path d="M608.16 69.64C612.52 74.0333 612.063 78.2333 606.79 82.24C599.23 79.56 597.85 88.22 598.53 93.46C598.562 93.7165 598.494 93.9746 598.34 94.18C597.7 95.06 597.13 93.62 597.09 93.04C597.043 92.42 596.97 91.7934 596.87 91.16C596.563 89.34 596.053 89.28 595.34 90.98C595.24 91.22 595.167 91.4733 595.12 91.74C591.313 98.9733 590.473 106.657 592.6 114.79C592.32 116.05 592.78 122.45 591.54 122.25C585.613 108.577 586.89 95.72 595.37 83.68C595.697 83.2067 595.96 82.78 596.16 82.4C598.733 79.74 601.837 78.4267 605.47 78.46C605.605 78.4602 605.739 78.4327 605.863 78.3794C605.987 78.3261 606.098 78.248 606.19 78.15L607.75 76.54C609.13 75.3933 609.13 74.2833 607.75 73.21C606.637 71.7167 606.773 70.5267 608.16 69.64Z" fill="#4C3760"/>
<path d="M606.79 82.24C605.31 99.5734 603.38 116.813 601 133.96C600.06 137.8 599.74 141.73 600.04 145.75C600.154 145.263 600.137 144.86 599.99 144.54C599.744 144.02 599.58 144.047 599.5 144.62L596.21 167.25C595.45 167.93 595.437 168.64 596.17 169.38C593.58 173.89 583.17 192.13 582.07 192.28C585.684 168.973 588.84 145.63 591.54 122.25C592.78 122.45 592.32 116.05 592.6 114.79L595.12 91.74C595.167 91.4734 595.24 91.22 595.34 90.98C596.054 89.28 596.564 89.34 596.87 91.16C596.97 91.7934 597.044 92.42 597.09 93.04C597.13 93.62 597.7 95.06 598.34 94.18C598.494 93.9746 598.562 93.7165 598.53 93.46C597.85 88.22 599.23 79.56 606.79 82.24Z" fill="#0F041F"/>
<path d="M186.54 101C191.17 101.48 194.5 106.38 197.46 108.5C200.54 114.92 205.33 118.55 206.75 126.52C207.003 127.96 207.06 131.457 206.92 137.01C206.787 142.05 207.157 147.377 208.03 152.99C208.157 153.823 207.933 154.207 207.36 154.14C207.203 154.119 207.056 154.052 206.937 153.947C206.818 153.843 206.732 153.704 206.69 153.55L204.21 144.47C203.11 143.597 202.703 142.457 202.99 141.05C203.67 137.45 203.86 133.247 203.56 128.44C203.293 124.04 201.81 120.39 199.11 117.49C196.403 112.05 192.453 107.607 187.26 104.16L186.54 101Z" fill="#4C3760"/>
<path d="M187.26 104.16C192.453 107.607 196.403 112.05 199.11 117.49L202.99 141.05C202.703 142.457 203.11 143.597 204.21 144.47C204.33 147.603 204.753 150.67 205.48 153.67C209.18 168.97 211.95 184.6 215.14 200.09C210.993 195.65 207.213 190.93 203.8 185.93C199.15 179.12 199.02 168.38 198.38 160.45C198.3 159.55 197.56 158.65 196.79 159.75L187.26 104.16Z" fill="#0F041F"/>
<path d="M601 133.96C604.17 139.39 603.23 146.95 603.35 153.01C603.477 158.83 602.557 164.417 600.59 169.77C596.2 181.74 594.46 191.64 595.03 204.8C595.23 209.347 595.364 213.893 595.43 218.44C595.47 221.05 594.96 227.03 594.03 228.52C591.93 231.87 592.16 227.65 592.29 226.79C593.87 216.2 592.65 204.48 592.51 193.7L593.71 188L594.51 183.54C594.837 181.707 594.524 181.587 593.57 183.18L593.3 183.62C589.174 190.86 584.65 197.85 579.73 204.59C574.924 215.063 573.317 226.067 574.91 237.6C575.317 239.153 575.094 240.647 574.24 242.08C571.374 237.027 570.387 231.92 571.28 226.76C572.37 220.45 572.82 212.16 575.71 206.49C578.064 201.843 580.184 197.107 582.07 192.28C583.17 192.13 593.58 173.89 596.17 169.38L596.75 167.79C600.4 162.47 600.49 151.57 600.04 145.75C599.74 141.73 600.06 137.8 601 133.96Z" fill="#4C3760"/>
<path d="M215.14 200.09C217.28 204.26 220.24 207.73 221.52 212.03C223.647 219.183 224.013 226.52 222.62 234.04C221.447 230.92 220.727 227.677 220.46 224.31C220.92 218.683 219.827 213.397 217.18 208.45L214.27 204.19C213.21 202.643 212.723 202.807 212.81 204.68C212.85 205.587 212.837 206.493 212.77 207.4C212.73 207.97 212.34 208.35 211.81 208.09C211.68 208.023 211.57 207.923 211.493 207.8C211.415 207.676 211.373 207.535 211.37 207.39C211.203 200.25 208.49 194.283 203.23 189.49C197.397 180.503 195.25 170.59 196.79 159.75C197.56 158.65 198.3 159.55 198.38 160.45C199.02 168.38 199.15 179.12 203.8 185.93C207.213 190.93 210.993 195.65 215.14 200.09Z" fill="#4C3760"/>
<path d="M596.21 167.25L596.75 167.79L596.17 169.38C595.437 168.64 595.45 167.93 596.21 167.25Z" fill="#040302" fill-opacity="0.533"/>
<path d="M593.71 188L593.3 183.62L593.57 183.18C594.523 181.587 594.836 181.707 594.51 183.54L593.71 188Z" fill="#040302" fill-opacity="0.533"/>
<path d="M593.3 183.62L593.71 188L592.51 193.7L582.83 255.92C581.13 256.26 581.8 260.31 581.96 261.5C581.813 261.447 581.666 261.483 581.52 261.61C581.448 261.675 581.399 261.763 581.38 261.86C576.693 294.547 570.016 326.813 561.35 358.66C550.57 398.26 534.12 435.16 509.46 468C507.68 468.253 507.026 469.237 507.5 470.95C500.066 479.923 492.1 488.377 483.6 496.31C483.806 492.223 484.7 487.793 486.28 483.02C488.7 475.74 492.616 469.76 498.03 465.08C498.69 464.51 498.85 463.85 498.75 463.04C499.05 463.047 499.29 462.937 499.47 462.71C530.15 423.05 548.13 376.43 558.74 327C565.513 295.447 570.68 267.14 574.24 242.08C575.093 240.647 575.316 239.153 574.91 237.6C576.743 226.653 578.503 215.76 580.19 204.92C580.25 204.53 580.11 204.33 579.73 204.59C584.65 197.85 589.173 190.86 593.3 183.62Z" fill="#0F041F"/>
<path d="M203.23 189.49C208.49 194.283 211.204 200.25 211.37 207.39C211.373 207.535 211.415 207.676 211.493 207.8C211.57 207.923 211.68 208.023 211.81 208.09C212.34 208.35 212.73 207.97 212.77 207.4C212.837 206.493 212.85 205.587 212.81 204.68C212.724 202.807 213.21 202.643 214.27 204.19L217.18 208.45L220.46 224.31C220.727 227.677 221.447 230.92 222.62 234.04C228.14 259.487 233.93 284.89 239.99 310.25C240.15 310.897 240.237 311.55 240.25 312.21L239.68 311.99C239.54 311.93 239.42 311.847 239.32 311.74C234.567 306.74 230.1 301.5 225.92 296.02L226.16 295.9C226.327 295.824 226.462 295.692 226.543 295.526C226.623 295.36 226.643 295.17 226.6 294.99L219.38 264.7C219.094 261.373 218.757 258.02 218.37 254.64C218.27 253.78 217.95 253.44 217.04 253.75L203.23 189.49Z" fill="#0F041F"/>
<path d="M217.04 253.75C217.95 253.44 218.27 253.78 218.37 254.64C218.756 258.02 219.093 261.373 219.38 264.7C218.193 269.613 217.936 273.827 218.61 277.34C219.71 283.047 222.146 289.273 225.92 296.02C230.1 301.5 234.566 306.74 239.32 311.74C239.42 311.847 239.54 311.93 239.68 311.99L240.25 312.21C244.236 320.283 246.466 328.783 246.94 337.71C246.28 337.837 245.926 337.74 245.88 337.42C245.273 332.953 244.306 328.567 242.98 324.26C242.573 322.953 242.043 321.697 241.39 320.49C240.57 318.99 239.953 319.07 239.54 320.73L239.25 321.88C239.09 322.52 238.796 322.59 238.37 322.09C238.236 321.937 238.16 321.737 238.14 321.49C237.606 313.797 234.426 307.857 228.6 303.67C227.933 302.103 227.136 300.653 226.21 299.32C224.983 297.567 224.5 297.753 224.76 299.88C226.8 316.513 227.16 333.183 225.84 349.89C225.55 353.45 226.17 356.87 226.8 360.29C227.093 361.897 226.963 363.437 226.41 364.91C225.816 366.483 225.403 366.437 225.17 364.77C225.03 363.763 225.08 362.763 225.32 361.77C225.48 361.103 225.373 360.71 225 360.59C224.952 360.575 224.902 360.57 224.852 360.577C224.803 360.584 224.756 360.603 224.714 360.631C224.673 360.658 224.638 360.695 224.613 360.739C224.588 360.782 224.573 360.83 224.57 360.88C224.11 367.76 223.7 373.79 224.86 380.91C225.09 382.36 227.44 396.32 225.82 395.91C225.673 395.874 225.54 395.797 225.435 395.687C225.331 395.577 225.259 395.44 225.23 395.29C222.21 379.96 220.87 369.91 222.41 356.81C224.67 337.62 224.62 318.26 222.65 299.06C221.76 290.44 216.77 282.6 216.62 274.21C216.5 267.383 216.64 260.563 217.04 253.75Z" fill="#4C3760"/>
<path d="M582.83 255.92C585.657 263.227 586.707 270.257 585.98 277.01C584.494 290.81 583.604 299.8 583.31 303.98C583.2 305.58 581.88 306.62 581.69 304.05C581.28 298.71 580.53 293.7 581.16 288.34C582.15 279.99 584.45 269.62 581.96 261.5C581.8 260.31 581.13 256.26 582.83 255.92Z" fill="#4C3760"/>
<path d="M228.6 303.67C234.426 307.857 237.606 313.797 238.14 321.49C238.16 321.737 238.236 321.937 238.37 322.09C238.796 322.59 239.09 322.52 239.25 321.88L239.54 320.73C239.953 319.07 240.57 318.99 241.39 320.49C242.043 321.697 242.573 322.953 242.98 324.26C244.306 328.567 245.273 332.953 245.88 337.42C245.926 337.74 246.28 337.837 246.94 337.71C253.006 363.03 260.166 388.05 268.42 412.77C279.23 445.16 294.41 480.61 317.99 505.5C323.863 511.7 330.846 517.223 338.94 522.07C337.313 526.237 336.393 530.633 336.18 535.26C321.973 526.84 310.113 516.053 300.6 502.9C271.15 462.16 256.97 411.56 243.24 362.95C242.99 361.78 243.23 354.69 241.29 355L228.6 303.67Z" fill="#0F041F"/>
<path d="M241.29 355C243.23 354.69 242.99 361.78 243.24 362.95C241.227 371.51 241.484 380.267 244.01 389.22C244.33 390.37 243.06 390.15 242.67 389.48C242.097 388.5 241.677 387.443 241.41 386.31C241.388 386.221 241.336 386.142 241.264 386.086C241.191 386.03 241.102 386 241.01 386H240.75C240.705 386 240.659 386.03 240.624 386.084C240.589 386.138 240.566 386.211 240.56 386.29C240.35 389.36 240.08 391.59 240.8 394.83C241.01 395.77 242.03 402.54 240.47 401.98C240.34 401.931 240.229 401.841 240.153 401.724C240.078 401.607 240.041 401.469 240.05 401.33C240.084 400.87 239.994 400.453 239.78 400.08C239.24 399.14 238.924 399.21 238.83 400.29C238.157 408.003 237.9 415.733 238.06 423.48C238.06 423.575 238.04 423.668 238 423.754C237.96 423.84 237.902 423.917 237.83 423.98C236.11 425.43 236.49 414.8 236.51 414.24C236.56 412.85 236.05 411.99 235.56 410.78C235.488 410.597 235.468 410.4 235.5 410.21C237.96 397.99 238.55 385.37 240 372.98C240.63 367.63 240.24 361.03 241.29 355Z" fill="#4C3760"/>
<path d="M498.75 463.04C498.85 463.85 498.69 464.51 498.03 465.08C492.617 469.76 488.7 475.74 486.28 483.02C484.7 487.793 483.807 492.223 483.6 496.31C482.153 498.65 481.453 501.05 481.5 503.51C481.613 510.103 482.21 517.48 483.29 525.64C484.05 531.38 484.09 537.12 484.55 542.91C484.72 545.13 482.86 545.77 482.8 543.15C482.62 534.27 481.21 525.41 480.6 516.92C480.387 513.92 480.21 511.017 480.07 508.21C479.983 506.517 479.49 506.39 478.59 507.83C475.47 512.843 471.023 514.303 465.25 512.21C465.777 510.81 466.65 510.373 467.87 510.9C473.11 510.407 476.307 507.583 477.46 502.43C479.373 496.397 480.513 490.153 480.88 483.7C483.02 480.09 492.35 458.13 498.75 463.04Z" fill="#4C3760"/>
<path d="M509.46 468C511.07 473.13 509.54 477.27 510 482.19C510.114 483.337 510.62 485.303 511.52 488.09C513.94 495.57 515.044 503.247 514.83 511.12C514.68 516.79 516.16 522.15 516.47 526.49C516.64 528.95 515.4 527.85 515.09 526.79C512.617 518.45 511.714 509.933 512.38 501.24C512.527 499.353 511.53 494.527 509.39 486.76C509.362 486.653 509.3 486.558 509.214 486.49C509.127 486.421 509.021 486.383 508.91 486.38C507.57 486.34 507.43 497.15 506.79 498.45C505.75 500.58 505.49 497.77 505.53 497.26C506.224 488.74 506.88 479.97 507.5 470.95C507.027 469.237 507.68 468.253 509.46 468Z" fill="#4C3760"/>
<path d="M480.88 483.7C480.513 490.153 479.373 496.397 477.46 502.43C473.88 504.87 470.683 507.693 467.87 510.9C466.65 510.373 465.777 510.81 465.25 512.21C458.423 517.39 451.27 522.07 443.79 526.25C444.363 520.483 445.85 514.97 448.25 509.71C450.103 508.943 451.687 507.803 453 506.29C454.213 506.17 455.063 505.683 455.55 504.83C464.317 498.183 472.76 491.14 480.88 483.7Z" fill="#0F041F"/>
<path d="M455.55 504.83C455.063 505.683 454.213 506.17 453 506.29C450.393 505.99 448.81 507.13 448.25 509.71C445.85 514.97 444.363 520.483 443.79 526.25C440.43 535.44 435.07 542.74 424.25 536.21C424.663 535.097 425.627 534.7 427.14 535.02C433.187 536.893 437.147 535.07 439.02 529.55C440.707 524.503 441.87 519.137 442.51 513.45C445.06 508.71 445.77 504.4 451.75 502.81C453.37 502.377 454.637 503.05 455.55 504.83Z" fill="#4C3760"/>
<path d="M442.51 513.45C441.87 519.137 440.707 524.503 439.02 529.55C434.8 530.883 430.84 532.707 427.14 535.02C425.627 534.7 424.663 535.097 424.25 536.21C416.563 539.037 408.59 541.443 400.33 543.43C400.883 538.897 401.87 534.42 403.29 530L409.32 527.9C410.18 528.273 410.967 528.1 411.68 527.38C422.393 523.707 432.67 519.063 442.51 513.45Z" fill="#0F041F"/>
<path d="M345.25 524.93C344.51 525.203 343.836 524.94 343.23 524.14C343.119 523.99 342.968 523.874 342.795 523.805C342.622 523.736 342.433 523.717 342.25 523.75C339.23 524.33 339.92 534.89 340.29 537.5C340.283 539.4 340.656 544.627 341.41 553.18C341.876 558.407 341.783 567.517 341.13 580.51C341.07 581.82 340.33 582.51 339.15 581.06C339.013 580.898 338.933 580.698 338.92 580.49L336.18 535.26C336.393 530.633 337.313 526.237 338.94 522.07C342.686 520.443 344.79 521.397 345.25 524.93Z" fill="#4C3760"/>
<path d="M362.79 531C361.103 532.767 359.853 532.433 359.04 530C358.48 526.813 358.077 526.897 357.83 530.25L357.29 543.5C355.977 548.767 355.36 554.1 355.44 559.5C355.47 561.18 354.17 560.83 354.18 559.36C354.187 558.5 354.093 557.66 353.9 556.84C353.867 556.692 353.801 556.554 353.705 556.436C353.61 556.319 353.489 556.224 353.351 556.16C353.213 556.097 353.062 556.065 352.909 556.069C352.756 556.072 352.606 556.11 352.47 556.18C349.577 557.667 347.66 556.79 346.72 553.55C346.127 551.503 345.523 546.9 344.91 539.74C346.077 539.56 346.94 539.827 347.5 540.54C348.487 544.46 349.13 548.467 349.43 552.56C349.442 552.738 349.503 552.91 349.605 553.058C349.707 553.206 349.847 553.324 350.01 553.4C352.21 554.4 352.92 545.27 352.96 542.25C353.613 537.783 353.877 533.297 353.75 528.79C354.71 527.25 355.44 524.77 356.91 523.9C360.67 521.65 361.87 528.97 362.79 531Z" fill="#4C3760"/>
<path d="M345.25 524.93C347.85 526.583 350.683 527.87 353.75 528.79C353.877 533.297 353.613 537.783 352.96 542.25L347.5 540.54C346.94 539.827 346.077 539.56 344.91 539.74C343.677 538.6 342.137 537.853 340.29 537.5C339.92 534.89 339.23 524.33 342.25 523.75C342.434 523.717 342.623 523.736 342.796 523.805C342.969 523.874 343.119 523.99 343.23 524.14C343.837 524.94 344.51 525.203 345.25 524.93Z" fill="#0F041F"/>
<path d="M411.68 527.38C410.967 528.1 410.18 528.273 409.32 527.9C406.207 526.113 404.197 526.813 403.29 530C401.87 534.42 400.883 538.897 400.33 543.43C398.563 554.79 398.363 566.15 399.73 577.51C400.58 584.55 399.24 590.72 399.97 597.33C400.51 602.157 401.16 606.963 401.92 611.75C402.187 613.397 401.843 613.813 400.89 613C400.734 612.863 400.622 612.682 400.57 612.48C398.263 603.087 397.307 593.567 397.7 583.92C397.96 577.61 396.23 571.53 396.73 565.01C396.91 562.7 395.88 563.12 395.73 564.48C395.23 568.82 394.13 572.98 392.43 576.96C392.345 577.161 392.198 577.329 392.01 577.44C389.3 579 387.77 577.4 386.89 574.87C384.88 569.1 382.73 563.65 381.74 557.52C381.107 553.593 380.43 549.67 379.71 545.75C379.577 541.29 378.84 536.943 377.5 532.71C377.053 529.343 375.873 529.023 373.96 531.75C373.513 532.623 372.847 532.79 371.96 532.25C372.15 529.02 375.55 525.52 378.39 528.35C379.47 529.44 379.89 531.28 380.79 532.75C380.497 537.15 381.163 541.4 382.79 545.5C383.63 554.427 385.807 562.983 389.32 571.17C389.67 571.99 390.07 576.37 391.28 571.79C393.627 562.837 395.457 553.713 396.77 544.42L399.38 530.65C401.047 524.963 404.643 523 410.17 524.76C410.917 525 411.42 525.873 411.68 527.38Z" fill="#4C3760"/>
<path d="M359.04 530C359.853 532.433 361.103 532.767 362.79 531L371.96 532.25C372.847 532.79 373.513 532.623 373.96 531.75C374.927 532.703 376.107 533.023 377.5 532.71C378.84 536.943 379.577 541.29 379.71 545.75C376.39 545.437 373.16 545.46 370.02 545.82C369.413 545.38 368.753 545.357 368.04 545.75C366.067 544.657 363.957 544.24 361.71 544.5C360.903 543.94 360.083 543.87 359.25 544.29C358.863 543.337 358.21 543.073 357.29 543.5L357.83 530.25C358.603 530.717 359.007 530.633 359.04 530Z" fill="#0F041F"/>
<path d="M399.38 530.65L396.77 544.42L382.79 545.5C381.163 541.4 380.497 537.15 380.79 532.75C386.943 532.483 393.14 531.783 399.38 530.65Z" fill="#0F041F"/>
<path d="M361.71 544.5C363.19 553.867 363.8 559.783 363.54 562.25C363.346 564.17 363.446 565.977 363.84 567.67C364.306 569.65 364.936 569.703 365.73 567.83C366.396 566.263 366.84 564.643 367.06 562.97C367.83 557.09 368.49 551.71 368.04 545.75C368.753 545.357 369.413 545.38 370.02 545.82C370.42 553.307 369.846 560.973 368.3 568.82C367.866 571.013 366.7 572.37 364.8 572.89C364.582 572.949 364.39 573.079 364.255 573.261C364.121 573.443 364.052 573.664 364.06 573.89C364.37 582.37 362.84 590.34 364.2 598.93C364.238 599.169 364.188 599.414 364.06 599.62C363.64 600.287 363.27 600.127 362.95 599.14C361.456 594.593 360.886 591.213 361.24 589C361.96 584.41 362.74 580.45 362.04 575.68C361.34 570.913 360.816 566.13 360.47 561.33C360.16 556.86 358.75 550.12 359.25 544.29C360.083 543.87 360.903 543.94 361.71 544.5Z" fill="#4C3760"/>
</g>
<defs>
<clipPath id="clip0_709_82">
<rect width="715" height="630" fill="white"/>
</clipPath>
</defs>
</svg>
