<svg width="620" height="682" viewBox="0 0 620 682" fill="none" xmlns="http://www.w3.org/2000/svg">
<g clip-path="url(#clip0_709_179)">
<path d="M90.46 16.75C89.22 16.6833 88.3334 16.1233 87.8 15.07C87.6934 14.8592 87.664 14.6177 87.717 14.3875C87.77 14.1573 87.902 13.953 88.09 13.81C88.49 13.51 88.73 13.1533 88.81 12.74C88.8365 12.594 88.8304 12.4439 88.7923 12.3005C88.7542 12.1571 88.6849 12.0238 88.5894 11.9102C88.494 11.7966 88.3746 11.7054 88.2399 11.6432C88.1052 11.5809 87.9584 11.5491 87.81 11.55C86.25 11.57 85.0134 10.9967 84.1 9.83C83 8.43 83.2967 8.01333 84.99 8.58C85.99 8.92 86.3267 8.65333 86 7.78C85.9414 7.6238 85.8447 7.48504 85.7188 7.37664C85.5929 7.26824 85.442 7.19371 85.28 7.16L77.79 5.5" stroke="#2E1E40" stroke-width="2"/>
<path d="M547.96 35.5L543.09 28.86C542.996 28.7339 542.933 28.5869 542.907 28.4313C542.882 28.2757 542.894 28.116 542.943 27.9654C542.992 27.8148 543.076 27.6776 543.189 27.5654C543.301 27.4531 543.439 27.369 543.59 27.32C543.977 27.1934 544.24 26.9434 544.38 26.57C544.418 26.4721 544.431 26.3663 544.418 26.2621C544.406 26.1579 544.367 26.0584 544.307 25.9725C544.247 25.8865 544.166 25.8167 544.073 25.7692C543.979 25.7217 543.875 25.6979 543.77 25.7C542.277 25.7334 540.934 25.4234 539.74 24.77" stroke="#2E1E40" stroke-width="2"/>
<path d="M91.2 25.19L83.26 13.96C83.1884 13.8628 83.0863 13.7924 82.97 13.76C82.44 13.62 82.41 14.17 82.51 14.54C82.65 15.02 82.6634 15.4367 82.55 15.79C82.0567 17.2567 81.5534 17.26 81.04 15.8C80.8 15.1267 80.7 14.45 80.74 13.77C80.88 11.16 80.39 9.7 78.29 8.25" stroke="#2E1E40" stroke-width="2"/>
<path d="M91.9599 33.25L84.7499 23.51C84.5948 23.3016 84.5269 23.0411 84.5604 22.7835C84.594 22.526 84.7265 22.2916 84.9299 22.13L85.2299 21.89C86.0499 21.2366 85.9366 20.8566 84.8899 20.75C82.8899 20.55 81.0532 19.83 79.3799 18.59" stroke="#2E1E40" stroke-width="2"/>
<path d="M92.58 39.67C90.5467 38.7767 89.1 37.2233 88.24 35.01C88.1788 34.8564 88.0801 34.7204 87.9527 34.6139C87.8253 34.5075 87.6732 34.434 87.51 34.4C86.3967 34.1733 85.99 33.46 86.29 32.26C86.35 32.0137 86.3142 31.7537 86.1898 31.5328C86.0654 31.3119 85.8618 31.1465 85.62 31.07L84.36 30.67C84.2001 30.618 84.056 30.5276 83.9407 30.4071C83.8254 30.2866 83.7427 30.1398 83.7 29.98C82.86 27 81.4734 24.34 79.54 22" stroke="#2E1E40" stroke-width="2"/>
<path d="M93.21 52.5C88.55 47.38 86.93 42.69 81 38.24" stroke="#2E1E40" stroke-width="2"/>
<path d="M548.22 41.79L543.94 38.9C543.804 38.8073 543.693 38.6832 543.617 38.5386C543.54 38.3939 543.5 38.2331 543.5 38.07V36.08C543.5 35.8982 543.45 35.7202 543.357 35.5651C543.263 35.41 543.13 35.2838 542.97 35.2C540.88 34.1 540.7 30.37 539.29 30.5" stroke="#2E1E40" stroke-width="2"/>
<path d="M546.75 48.0401C545.117 47.1801 544.674 46.0101 545.42 44.5301C545.485 44.4016 545.522 44.2607 545.527 44.117C545.532 43.9732 545.506 43.83 545.451 43.6971C545.396 43.5642 545.313 43.4447 545.208 43.3469C545.102 43.249 544.977 43.1751 544.841 43.1301L543.031 42.5401C542.811 42.469 542.623 42.324 542.5 42.1301C541.3 40.2567 539.794 38.7734 537.98 37.6801" stroke="#2E1E40" stroke-width="2"/>
<path d="M546.43 54.7L543.67 50.03C542.936 48.79 542.443 48.88 542.19 50.3C542.123 50.6667 541.993 51.0034 541.8 51.31C541.153 52.33 540.76 52.24 540.62 51.04C540.46 49.56 539.77 42.15 538.01 42.03" stroke="#2E1E40" stroke-width="2"/>
<path d="M93.7101 57.25C92.5501 57.8033 91.5967 57.5767 90.8501 56.57C90.6981 56.3638 90.4704 56.2257 90.215 56.1846C89.9595 56.1436 89.6961 56.2029 89.4801 56.35L89.2601 56.5C89.2038 56.5382 89.139 56.5623 89.0714 56.5699C89.0039 56.5775 88.9358 56.5685 88.8733 56.5437C88.8107 56.5189 88.7558 56.479 88.7133 56.4278C88.6709 56.3765 88.6422 56.3154 88.6301 56.25C88.5201 55.74 88.4201 48.79 86.7101 52.38C86.6959 52.4155 86.6703 52.4459 86.6364 52.4673C86.6025 52.4887 86.562 52.5001 86.5201 52.5H86.2401C86.1543 52.5001 86.0718 52.4667 86.0102 52.4069C85.9486 52.3472 85.9127 52.2658 85.9101 52.18C85.8701 48.18 84.2601 45 81.0801 42.64" stroke="#2E1E40" stroke-width="2"/>
<path d="M539.46 109.5C535.74 108.7 529.92 115.57 527.67 118.13" stroke="#2E1E40" stroke-width="2"/>
<path d="M95.76 89.13C92.77 86.5 90 84.14 86.02 84.94C85.8183 84.979 85.6128 84.9581 85.43 84.88C84.6167 84.54 84.0567 83.9267 83.75 83.04" stroke="#2E1E40" stroke-width="2"/>
<path d="M83.29 79.25C84.5634 77.65 84.48 76.3167 83.04 75.25" stroke="#2E1E40" stroke-width="2"/>
<path d="M100.67 132.8C100.057 130.247 99.9033 127.647 100.21 125" stroke="#2E1E40" stroke-width="2"/>
<path d="M97.0496 99.5L96.1796 96.57C96.1638 96.5118 96.1257 96.4615 96.0724 96.4284C96.0191 96.3953 95.9542 96.3817 95.8896 96.39C95.4896 96.44 96.0096 102.05 93.9996 102.19C93.9244 102.195 93.849 102.183 93.7787 102.156C93.7085 102.129 93.645 102.088 93.5926 102.035C93.5403 101.981 93.5004 101.918 93.4757 101.848C93.451 101.778 93.4421 101.704 93.4496 101.63C93.9296 97.01 92.7996 84.94 84.5996 89.18" stroke="#2E1E40" stroke-width="2"/>
<path d="M111.04 207.3C105.286 199.513 100.223 191.333 95.8496 182.76" stroke="#2E1E40" stroke-width="2"/>
<path d="M91.9999 156.21C91.8333 153.763 91.8133 150.463 91.9399 146.31C91.9599 145.483 91.4533 145.11 90.4199 145.19" stroke="#2E1E40" stroke-width="2"/>
<path d="M538.61 112.61C533.304 116.41 529.084 121.13 525.95 126.77" stroke="#2E1E40" stroke-width="2"/>
<path d="M521.54 151.56L521.36 155.37C521.354 155.5 521.322 155.628 521.265 155.746C521.208 155.864 521.128 155.971 521.03 156.06L520.5 156.54" stroke="#2E1E40" stroke-width="2"/>
<path d="M528.18 172.07C526.1 172.94 526.9 174.37 526.72 175.88C525.79 183.58 525.43 194.96 521.09 200.82C517.39 205.813 513.68 210.787 509.96 215.74C509.853 215.873 509.723 215.977 509.57 216.05L508.55 216.51" stroke="#2E1E40" stroke-width="2"/>
<path d="M119.84 262.08C118.766 260.787 118.376 259.193 118.67 257.3" stroke="#2E1E40" stroke-width="2"/>
<path d="M113.49 222.03L100.11 199.87C99.9995 199.688 99.8353 199.545 99.64 199.46C99.2867 199.313 99.0034 199.077 98.79 198.75" stroke="#2E1E40" stroke-width="2"/>
<path d="M98.29 200.25L99.67 213" stroke="#2E1E40" stroke-width="2"/>
<path d="M521.4 204.94C515.687 210.113 512.707 216.6 512.46 224.4C512.447 224.646 512.351 224.879 512.19 225.06C511.596 225.687 511.243 225.587 511.13 224.76C510.943 223.42 510.99 222.1 511.27 220.8C511.87 217.987 511.383 217.783 509.81 220.19L506.05 225.96" stroke="#2E1E40" stroke-width="2"/>
<path d="M502.73 241.56C502.524 245.52 501.764 249.35 500.45 253.05" stroke="#2E1E40" stroke-width="2"/>
<path d="M201.14 501.55C204.91 506.2 209.2 510.3 211.8 515.41C215.34 522.377 217.416 529.827 218.03 537.76" stroke="#2E1E40" stroke-width="2"/>
<path d="M191.98 509.55C192.067 507.87 191.323 506.783 189.75 506.29" stroke="#2E1E40" stroke-width="2"/>
<path d="M111.54 283C111.53 281.95 112.04 276.62 110.45 276.96" stroke="#2E1E40" stroke-width="2"/>
<path d="M506.27 274.03C504.543 277.97 503.857 282.127 504.21 286.5" stroke="#2E1E40" stroke-width="2"/>
<path d="M495.91 321.11C491.303 327.37 486.293 333.433 480.88 339.3" stroke="#2E1E40" stroke-width="2"/>
<path d="M493.57 329.33C486.99 333.877 483.69 340.243 483.67 348.43C483.668 348.551 483.625 348.668 483.549 348.761C483.472 348.854 483.367 348.917 483.25 348.94C482.51 349.07 482.26 348.39 482.21 347.72C482.183 347.393 482.123 347.08 482.03 346.78C481.616 345.447 481.023 345.36 480.25 346.52C479.383 347.827 478.696 349.383 478.19 351.19C476.723 356.403 475.756 361.01 475.29 365.01C475.236 365.437 474.823 365.607 474.05 365.52" stroke="#2E1E40" stroke-width="2"/>
<path d="M479.86 383.94C478.7 386.68 478.027 389.58 477.84 392.64" stroke="#2E1E40" stroke-width="2"/>
<path d="M377.2 579.51C377.16 574.477 376.26 569.653 374.5 565.04" stroke="#2E1E40" stroke-width="2"/>
<path d="M219.99 522.51C221.164 529.87 222.66 537.097 224.48 544.19" stroke="#2E1E40" stroke-width="2"/>
<path d="M234.85 552.87C236.836 552.483 237.673 552.95 237.36 554.27" stroke="#2E1E40" stroke-width="2"/>
<path d="M248.46 545.75C248.673 547.057 249.41 547.833 250.67 548.08" stroke="#2E1E40" stroke-width="2"/>
<path d="M256.03 551.59C256.977 552.93 257.79 554.82 258.47 557.26C259.757 561.84 260.507 565.91 260.72 569.47" stroke="#2E1E40" stroke-width="2"/>
<path d="M261.99 555.5L265.75 572.79" stroke="#2E1E40" stroke-width="2"/>
<path d="M279.55 579.06C281.076 578.987 281.893 579.453 282 580.46" stroke="#2E1E40" stroke-width="2"/>
<path d="M295.64 570.92C296.453 571.66 297.476 571.853 298.71 571.5" stroke="#2E1E40" stroke-width="2"/>
<path d="M304.54 573.25C306.247 578.097 307.337 583.1 307.81 588.26" stroke="#2E1E40" stroke-width="2"/>
<path d="M373.3 582.02C373.54 577.22 373.273 572.47 372.5 567.77C372.307 566.603 371.76 566.403 370.86 567.17C369.86 568.023 368.74 568.537 367.5 568.71" stroke="#2E1E40" stroke-width="2"/>
<path d="M358.04 572.5C358.1 577.367 358.517 582.2 359.29 587" stroke="#2E1E40" stroke-width="2"/>
<path d="M365.04 585.25C365.673 584.37 366.623 584.043 367.89 584.27" stroke="#2E1E40" stroke-width="2"/>
<path d="M354.46 588.25C354.86 583.463 354.61 578.713 353.71 574" stroke="#2E1E40" stroke-width="2"/>
<path d="M352.54 574.25C351.5 576.41 350.307 576.577 348.96 574.75" stroke="#2E1E40" stroke-width="2"/>
<path d="M308.95 574.53L311.79 589" stroke="#2E1E40" stroke-width="2"/>
<path d="M326.96 590.75C328.4 586.11 329.233 581.36 329.46 576.5" stroke="#2E1E40" stroke-width="2"/>
<path d="M338.72 576.18C338.033 577.12 337.363 577.143 336.71 576.25" stroke="#2E1E40" stroke-width="2"/>
<path d="M332.46 576.75L330.07 590.96" stroke="#2E1E40" stroke-width="2"/>
<path d="M352.5 588.54C351.427 588.56 350.523 588.88 349.79 589.5" stroke="#2E1E40" stroke-width="2"/>
<path d="M342.75 590.29C342.037 589.95 341.44 590.02 340.96 590.5" stroke="#2E1E40" stroke-width="2"/>
<path d="M77.5097 -0.0100098H87.8297C89.7764 5.38999 90.6531 10.9767 90.4597 16.75C89.2197 16.6833 88.3331 16.1233 87.7997 15.07C87.6931 14.8592 87.6637 14.6177 87.7167 14.3875C87.7697 14.1573 87.9017 13.9529 88.0897 13.81C88.4897 13.51 88.7297 13.1533 88.8097 12.74C88.8362 12.594 88.8301 12.4439 88.792 12.3005C88.7539 12.1571 88.6846 12.0238 88.5891 11.9102C88.4937 11.7966 88.3743 11.7054 88.2396 11.6431C88.1049 11.5809 87.9581 11.5491 87.8097 11.55C86.2497 11.57 85.0131 10.9967 84.0997 9.82999C82.9997 8.42999 83.2964 8.01332 84.9897 8.57999C85.9897 8.91999 86.3264 8.65332 85.9997 7.77999C85.9411 7.62379 85.8444 7.48503 85.7185 7.37663C85.5926 7.26823 85.4417 7.1937 85.2797 7.15999L77.7897 5.49999C77.1897 3.63999 77.0964 1.80332 77.5097 -0.0100098Z" fill="#0F041F"/>
<path d="M541.03 -9.76585e-06L549.95 -0.0100098C550.27 5.86999 550.08 11.7233 549.38 17.55C548.67 23.4 548.89 29.49 547.96 35.5L543.09 28.86C542.996 28.7339 542.933 28.5869 542.907 28.4313C542.882 28.2757 542.894 28.116 542.943 27.9653C542.992 27.8147 543.076 27.6776 543.189 27.5654C543.301 27.4531 543.439 27.369 543.59 27.32C543.977 27.1933 544.24 26.9433 544.38 26.57C544.418 26.472 544.431 26.3663 544.418 26.2621C544.406 26.1579 544.367 26.0584 544.307 25.9724C544.247 25.8865 544.166 25.8167 544.073 25.7692C543.979 25.7216 543.875 25.6979 543.77 25.7C542.277 25.7333 540.934 25.4233 539.74 24.77L541.03 -9.76585e-06Z" fill="#0F041F"/>
<path d="M28.0444 0.11119L14.5097 0.489249C14.2778 0.495726 14.0951 0.688944 14.1016 0.920813L14.1032 0.980789C14.1097 1.21266 14.3029 1.39538 14.5348 1.3889L28.0695 1.01084C28.3014 1.00436 28.4841 0.811145 28.4776 0.579276L28.476 0.5193C28.4695 0.28743 28.2763 0.104714 28.0444 0.11119Z" fill="#4C3760"/>
<path d="M77.79 5.5L85.28 7.16C85.442 7.19371 85.5929 7.26824 85.7188 7.37664C85.8447 7.48504 85.9414 7.6238 86 7.78C86.3267 8.65333 85.99 8.92 84.99 8.58C83.2967 8.01333 83 8.43 84.1 9.83C85.0134 10.9967 86.25 11.57 87.81 11.55C87.9584 11.5491 88.1052 11.5809 88.2399 11.6432C88.3746 11.7054 88.494 11.7966 88.5894 11.9102C88.6849 12.0238 88.7542 12.1571 88.7923 12.3005C88.8304 12.4439 88.8365 12.594 88.81 12.74C88.73 13.1533 88.49 13.51 88.09 13.81C87.902 13.953 87.77 14.1573 87.717 14.3875C87.664 14.6177 87.6934 14.8592 87.8 15.07C88.3334 16.1233 89.22 16.6833 90.46 16.75C91.14 19.73 93.82 22.47 91.2 25.19L83.26 13.96C83.1884 13.8628 83.0863 13.7924 82.97 13.76C82.44 13.62 82.41 14.17 82.51 14.54C82.65 15.02 82.6634 15.4367 82.55 15.79C82.0567 17.2567 81.5534 17.26 81.04 15.8C80.8 15.1267 80.7 14.45 80.74 13.77C80.88 11.16 80.39 9.7 78.29 8.25L77.79 5.5Z" fill="#4C3760"/>
<path d="M78.29 8.25C80.39 9.7 80.88 11.16 80.74 13.77C80.7 14.45 80.8 15.1267 81.04 15.8C81.5534 17.26 82.0567 17.2567 82.55 15.79C82.6634 15.4367 82.65 15.02 82.51 14.54C82.41 14.17 82.44 13.62 82.97 13.76C83.0863 13.7924 83.1884 13.8628 83.26 13.96L91.2 25.19L91.96 33.25L84.75 23.51C84.5949 23.3016 84.527 23.0411 84.5606 22.7836C84.5942 22.526 84.7267 22.2916 84.93 22.13L85.23 21.89C86.05 21.2367 85.9367 20.8567 84.89 20.75C82.89 20.55 81.0534 19.83 79.38 18.59L78.29 8.25Z" fill="#0F041F"/>
<path d="M79.3799 18.59C81.0532 19.83 82.8899 20.55 84.8899 20.75C85.9366 20.8566 86.0499 21.2366 85.2299 21.89L84.9299 22.13C84.7265 22.2916 84.594 22.526 84.5604 22.7835C84.5269 23.0411 84.5948 23.3016 84.7499 23.51L91.9599 33.25C92.9999 35.2433 93.2066 37.3833 92.5799 39.67C90.5466 38.7766 89.0999 37.2233 88.2399 35.01C88.1786 34.8564 88.0799 34.7203 87.9525 34.6139C87.8252 34.5074 87.6731 34.4339 87.5099 34.4C86.3966 34.1733 85.9899 33.46 86.2899 32.26C86.3499 32.0136 86.314 31.7537 86.1897 31.5328C86.0653 31.3119 85.8616 31.1464 85.6199 31.07L84.3599 30.67C84.2 30.6179 84.0558 30.5276 83.9406 30.4071C83.8253 30.2865 83.7425 30.1397 83.6999 29.98C82.8599 27 81.4732 24.34 79.5399 22L79.3799 18.59Z" fill="#4C3760"/>
<path d="M79.54 22C81.4734 24.34 82.86 27 83.7 29.98C83.7427 30.1398 83.8254 30.2866 83.9407 30.4071C84.056 30.5276 84.2001 30.618 84.36 30.67L85.62 31.07C85.8618 31.1465 86.0654 31.3119 86.1898 31.5328C86.3142 31.7537 86.35 32.0137 86.29 32.26C85.99 33.46 86.3967 34.1733 87.51 34.4C87.6732 34.434 87.8253 34.5075 87.9527 34.6139C88.0801 34.7204 88.1788 34.8564 88.24 35.01C89.1 37.2233 90.5467 38.7767 92.58 39.67L93.21 52.5C88.55 47.38 86.93 42.69 81 38.24L79.54 22Z" fill="#0F041F"/>
<path d="M539.74 24.77C540.934 25.4234 542.277 25.7334 543.77 25.7C543.875 25.6979 543.979 25.7217 544.073 25.7692C544.166 25.8167 544.247 25.8865 544.307 25.9725C544.367 26.0585 544.406 26.1579 544.418 26.2621C544.431 26.3663 544.418 26.4721 544.38 26.57C544.24 26.9434 543.977 27.1934 543.59 27.32C543.439 27.369 543.301 27.4532 543.189 27.5654C543.076 27.6777 542.992 27.8148 542.943 27.9654C542.894 28.116 542.882 28.2757 542.908 28.4314C542.933 28.587 542.996 28.7339 543.09 28.86L547.96 35.5C548.94 37.7 549.027 39.7967 548.22 41.79L543.94 38.9C543.805 38.8073 543.694 38.6832 543.617 38.5386C543.54 38.3939 543.5 38.2331 543.5 38.07V36.08C543.5 35.8982 543.45 35.7202 543.357 35.5651C543.264 35.4101 543.13 35.2838 542.97 35.2C540.88 34.1 540.7 30.37 539.29 30.5L537.68 25.64C537.609 25.42 537.616 25.1801 537.7 24.96C538.054 24.0467 538.734 23.9834 539.74 24.77Z" fill="#4C3760"/>
<path d="M539.29 30.5C540.7 30.37 540.88 34.1 542.97 35.2C543.13 35.2838 543.264 35.41 543.357 35.5651C543.451 35.7202 543.5 35.8982 543.5 36.08V38.07C543.5 38.2331 543.54 38.3939 543.617 38.5386C543.694 38.6832 543.805 38.8073 543.94 38.9L548.22 41.79L546.75 48.04C545.117 47.18 544.674 46.01 545.42 44.53C545.485 44.4016 545.522 44.2607 545.527 44.1169C545.532 43.9732 545.506 43.83 545.451 43.6971C545.396 43.5642 545.313 43.4447 545.208 43.3469C545.102 43.249 544.977 43.175 544.841 43.13L543.031 42.54C542.811 42.469 542.623 42.3239 542.5 42.13C541.3 40.2567 539.794 38.7734 537.98 37.68L539.29 30.5Z" fill="#0F041F"/>
<path d="M537.98 37.6801C539.794 38.7734 541.3 40.2567 542.5 42.1301C542.623 42.324 542.811 42.469 543.03 42.5401L544.84 43.1301C544.977 43.1751 545.102 43.249 545.208 43.3469C545.313 43.4447 545.396 43.5642 545.451 43.6971C545.506 43.83 545.532 43.9732 545.527 44.117C545.521 44.2607 545.485 44.4016 545.42 44.5301C544.674 46.0101 545.117 47.1801 546.75 48.0401C546.96 49.3001 549.87 55.3001 546.43 54.7001L543.67 50.0301C542.937 48.7901 542.444 48.8801 542.19 50.3001C542.124 50.6667 541.994 51.0034 541.8 51.3101C541.154 52.3301 540.76 52.2401 540.62 51.0401C540.46 49.5601 539.77 42.1501 538.01 42.0301C537.52 40.7101 535.68 37.7901 537.98 37.6801Z" fill="#4C3760"/>
<path d="M80.9998 38.24C86.9298 42.69 88.5498 47.38 93.2098 52.5L93.7098 57.25C92.5498 57.8033 91.5965 57.5767 90.8498 56.57C90.6978 56.3638 90.4702 56.2256 90.2147 56.1846C89.9592 56.1436 89.6958 56.2029 89.4798 56.35L89.2598 56.5C89.2035 56.5382 89.1387 56.5622 89.0712 56.5699C89.0036 56.5775 88.9355 56.5685 88.873 56.5437C88.8105 56.5189 88.7555 56.479 88.713 56.4277C88.6706 56.3765 88.642 56.3154 88.6298 56.25C88.5198 55.74 88.4198 48.79 86.7098 52.38C86.6957 52.4155 86.67 52.4459 86.6361 52.4673C86.6022 52.4886 86.5617 52.5001 86.5198 52.5H86.2398C86.154 52.5 86.0715 52.4666 86.0099 52.4069C85.9483 52.3472 85.9124 52.2658 85.9098 52.18C85.8698 48.18 84.2598 45 81.0798 42.64C80.6398 41.48 80.6131 40.0133 80.9998 38.24Z" fill="#4C3760"/>
<path d="M538.01 42.03C539.77 42.15 540.46 49.56 540.62 51.04C540.76 52.24 541.153 52.33 541.8 51.31C541.993 51.0034 542.123 50.6667 542.19 50.3C542.443 48.88 542.937 48.79 543.67 50.03L546.43 54.7L539.46 109.5C535.74 108.7 529.92 115.57 527.67 118.13C531.623 92.7367 535.07 67.37 538.01 42.03Z" fill="#0F041F"/>
<path d="M81.0801 42.64C84.2601 45 85.8701 48.18 85.9101 52.18C85.9127 52.2658 85.9486 52.3472 86.0102 52.4069C86.0718 52.4667 86.1543 52.5001 86.2401 52.5H86.5201C86.562 52.5001 86.6025 52.4887 86.6364 52.4673C86.6703 52.4459 86.6959 52.4155 86.7101 52.38C88.4201 48.79 88.5201 55.74 88.6301 56.25C88.6422 56.3154 88.6709 56.3765 88.7133 56.4278C88.7558 56.479 88.8107 56.5189 88.8733 56.5437C88.9358 56.5685 89.0039 56.5775 89.0714 56.5699C89.139 56.5623 89.2038 56.5382 89.2601 56.5L89.4801 56.35C89.6961 56.2029 89.9595 56.1436 90.215 56.1846C90.4704 56.2257 90.6981 56.3638 90.8501 56.57C91.5967 57.5767 92.5501 57.8033 93.7101 57.25L95.7601 89.13C92.7701 86.5 90.0001 84.14 86.0201 84.94C85.8183 84.979 85.6128 84.9581 85.4301 84.88C84.6167 84.54 84.0567 83.9267 83.7501 83.04C84.0767 81.7267 83.9234 80.4633 83.2901 79.25C84.5634 77.65 84.4801 76.3167 83.0401 75.25L81.0801 42.64Z" fill="#0F041F"/>
<path d="M83.04 75.25C84.48 76.3167 84.5633 77.65 83.29 79.25C81.8633 80.7833 82.0167 82.0467 83.75 83.04C84.0567 83.9267 84.6167 84.54 85.43 84.88C85.6127 84.9581 85.8183 84.979 86.02 84.94C90 84.14 92.77 86.5 95.76 89.13C101.193 96.33 104.237 104.33 104.89 113.13C105.18 117.06 103.38 130.14 100.67 132.8C100.057 130.247 99.9033 127.647 100.21 125C100.52 121.1 101.42 116.87 101.17 113.32C100.837 108.46 99.4633 103.853 97.05 99.5L96.18 96.57C96.1641 96.5118 96.1261 96.4615 96.0728 96.4285C96.0195 96.3954 95.9546 96.3817 95.89 96.39C95.49 96.44 96.01 102.05 94 102.19C93.9248 102.195 93.8494 102.183 93.7791 102.156C93.7088 102.129 93.6453 102.088 93.593 102.035C93.5407 101.981 93.5008 101.918 93.4761 101.848C93.4514 101.778 93.4425 101.704 93.45 101.63C93.93 97.01 92.8 84.94 84.6 89.18C78.8667 84.9467 78.3467 80.3033 83.04 75.25Z" fill="#4C3760"/>
<path d="M97.0496 99.5L99.5696 125.51C99.6429 126.223 99.8129 126.247 100.08 125.58C100.133 125.44 100.176 125.247 100.21 125C99.9029 127.647 100.056 130.247 100.67 132.8L111.04 207.3C105.286 199.513 100.223 191.333 95.8496 182.76L91.9996 156.21C91.8329 153.763 91.8129 150.463 91.9396 146.31C91.9596 145.483 91.4529 145.11 90.4196 145.19L84.5996 89.18C92.7996 84.94 93.9296 97.01 93.4496 101.63C93.4421 101.704 93.451 101.778 93.4757 101.848C93.5004 101.918 93.5403 101.981 93.5926 102.035C93.645 102.088 93.7085 102.129 93.7787 102.156C93.849 102.183 93.9244 102.195 93.9996 102.19C96.0096 102.05 95.4896 96.44 95.8896 96.39C95.9542 96.3817 96.0191 96.3953 96.0724 96.4284C96.1257 96.4615 96.1638 96.5118 96.1796 96.57L97.0496 99.5Z" fill="#0F041F"/>
<path d="M539.46 109.5C539.393 110.687 539.11 111.723 538.61 112.61C533.303 116.41 529.083 121.13 525.95 126.77C520.21 133.31 520.22 143.11 521.54 151.56L521.36 155.37C521.354 155.5 521.321 155.627 521.265 155.746C521.208 155.864 521.128 155.971 521.03 156.06L520.5 156.54C519.35 156.24 518.23 164.69 517.88 165.97C517.837 166.13 517.744 166.273 517.615 166.378C517.486 166.484 517.327 166.548 517.16 166.56C516.433 166.607 516.143 166.173 516.29 165.26C517.36 158.39 517.56 151.91 517.3 144.98C516.913 134.667 520.37 125.717 527.67 118.13C529.92 115.57 535.74 108.7 539.46 109.5Z" fill="#4C3760"/>
<path d="M538.61 112.61C535.69 132.637 532.213 152.457 528.18 172.07C526.1 172.94 526.9 174.37 526.72 175.88C525.79 183.58 525.43 194.96 521.09 200.82C517.39 205.813 513.68 210.787 509.96 215.74C509.853 215.873 509.723 215.977 509.57 216.05L508.55 216.51C512.416 196.75 516.463 177.06 520.69 157.44C520.723 157.287 520.66 156.987 520.5 156.54L521.03 156.06C521.128 155.971 521.208 155.864 521.265 155.746C521.321 155.627 521.354 155.5 521.36 155.37L521.54 151.56L525.95 126.77C529.083 121.13 533.303 116.41 538.61 112.61Z" fill="#0F041F"/>
<path d="M90.4197 145.19C91.453 145.11 91.9597 145.483 91.9397 146.31C91.813 150.463 91.833 153.763 91.9997 156.21C91.2797 163.6 91.2097 175.84 95.8497 182.76C100.223 191.333 105.286 199.513 111.04 207.3C112.68 215.53 118.55 220.92 120.15 229.37C122.24 240.4 125.63 251.46 119.84 262.08C118.766 260.787 118.376 259.193 118.67 257.3C119.803 253.767 120.116 250.06 119.61 246.18C118.47 237.45 118.38 227.96 113.49 222.03L100.11 199.87C99.9991 199.688 99.8349 199.545 99.6397 199.46C99.2863 199.313 99.003 199.077 98.7897 198.75L97.7797 196.48C97.7151 196.332 97.5973 196.215 97.4497 196.15C96.1997 195.63 98.1897 200.04 98.2897 200.25L99.6697 213C99.5097 220.01 99.7497 226.1 99.3697 233.88C99.1897 237.567 99.5597 241.463 100.48 245.57C100.668 246.407 100.577 247.284 100.22 248.07C99.5397 249.59 98.6397 248.14 98.3997 247.41C97.153 243.603 96.5963 240.217 96.7297 237.25C97.7497 214.94 98.1297 200.87 90.7697 181.9C89.5697 178.82 88.833 176.113 88.5597 173.78C87.4197 164.18 88.0397 154.65 90.4197 145.19Z" fill="#4C3760"/>
<path d="M528.18 172.07C528.666 174.637 528.833 177.277 528.68 179.99C528.12 189.86 527.12 196.8 521.4 204.94C515.686 210.113 512.706 216.6 512.46 224.4C512.446 224.646 512.351 224.879 512.19 225.06C511.596 225.687 511.243 225.587 511.13 224.76C510.943 223.42 510.99 222.1 511.27 220.8C511.87 217.987 511.383 217.783 509.81 220.19L506.05 225.96C503.523 230.76 502.416 235.96 502.73 241.56C502.523 245.52 501.763 249.35 500.45 253.05C499.336 249.21 499.036 245.35 499.55 241.47C500.09 237.31 500.33 233.13 501.79 229.32C503.51 224.793 505.763 220.523 508.55 216.51L509.57 216.05C509.723 215.977 509.853 215.873 509.96 215.74C513.68 210.787 517.39 205.813 521.09 200.82C525.43 194.96 525.79 183.58 526.72 175.88C526.9 174.37 526.1 172.94 528.18 172.07Z" fill="#4C3760"/>
<path d="M98.79 198.75C99.0034 199.077 99.2867 199.313 99.64 199.46C99.8353 199.545 99.9995 199.688 100.11 199.87L113.49 222.03L118.67 257.3C118.377 259.193 118.767 260.787 119.84 262.08C124.593 296.047 130.863 329.74 138.65 363.16C150.41 413.6 169.37 460.51 201.14 501.55C204.91 506.2 209.2 510.3 211.8 515.41C215.34 522.377 217.417 529.827 218.03 537.76C208.763 528.86 200.08 519.457 191.98 509.55C192.067 507.87 191.323 506.783 189.75 506.29C140.67 441.55 124.2 361.23 111.54 283C111.53 281.95 112.04 276.62 110.45 276.96C107.117 255.593 103.81 234.21 100.53 212.81C100.4 211.98 99.73 211.43 99.67 213L98.29 200.25C98.8034 199.957 98.97 199.457 98.79 198.75Z" fill="#0F041F"/>
<path d="M521.4 204.94C516.753 228.107 511.71 251.137 506.27 274.03C504.543 277.97 503.857 282.127 504.21 286.5L503.91 286.49C503.817 286.49 503.726 286.523 503.654 286.583C503.581 286.643 503.53 286.727 503.51 286.82L495.91 321.11C491.303 327.37 486.293 333.433 480.88 339.3L500.45 253.05C501.763 249.35 502.523 245.52 502.73 241.56C504.403 236.48 505.51 231.28 506.05 225.96L509.81 220.19C511.383 217.783 511.87 217.987 511.27 220.8C510.99 222.1 510.943 223.42 511.13 224.76C511.243 225.587 511.597 225.687 512.19 225.06C512.351 224.879 512.447 224.646 512.46 224.4C512.707 216.6 515.687 210.113 521.4 204.94Z" fill="#0F041F"/>
<path d="M506.27 274.03C506.803 281.263 507.053 288.503 507.02 295.75C506.98 305.16 501.65 313.02 500.56 322.31C497.9 344.903 498.016 367.483 500.91 390.05C502.64 403.56 499.72 414.53 497.86 426.69C497.72 427.63 496.28 430.73 496.25 426.5C496.216 422.913 497.046 416.663 498.74 407.75C499.206 405.27 499.01 399.64 498.15 390.86C498.144 390.807 498.131 390.755 498.112 390.707C498.093 390.659 498.067 390.617 498.038 390.582C498.008 390.548 497.974 390.522 497.938 390.506C497.903 390.49 497.866 390.485 497.83 390.49L497.67 390.52C497.624 390.525 497.581 390.551 497.55 390.593C497.518 390.636 497.501 390.691 497.5 390.75V394.83C497.5 394.929 497.478 395.026 497.434 395.115C497.391 395.204 497.327 395.281 497.249 395.341C497.17 395.401 497.079 395.442 496.982 395.461C496.885 395.48 496.785 395.476 496.69 395.45C494.19 394.76 497.05 382.71 497 382C496.006 366.073 495.693 354.51 496.06 347.31C496.473 339.237 497.186 331.527 498.2 324.18C498.493 322.013 498.01 321.823 496.75 323.61C495.436 325.463 494.376 327.37 493.57 329.33C486.99 333.877 483.69 340.243 483.67 348.43C483.668 348.551 483.625 348.668 483.549 348.761C483.472 348.854 483.367 348.917 483.25 348.94C482.51 349.07 482.26 348.39 482.21 347.72C482.183 347.393 482.123 347.08 482.03 346.78C481.616 345.447 481.023 345.36 480.25 346.52C479.383 347.827 478.696 349.383 478.19 351.19C476.723 356.403 475.756 361.01 475.29 365.01C475.236 365.437 474.823 365.607 474.05 365.52C474.356 356.293 476.633 347.553 480.88 339.3C486.293 333.433 491.303 327.37 495.91 321.11C499.88 316.21 501.6 310.3 503.47 304.59C505.42 298.64 505 292.54 504.21 286.5C503.856 282.127 504.543 277.97 506.27 274.03Z" fill="#4C3760"/>
<path d="M110.45 276.96C112.04 276.62 111.53 281.95 111.54 283C110.314 286.4 109.904 290.15 110.31 294.25C111.71 308.48 113.16 316.08 111.53 330.07C111.517 330.172 111.481 330.269 111.424 330.354C111.366 330.439 111.29 330.509 111.202 330.559C111.113 330.608 111.014 330.636 110.913 330.64C110.812 330.644 110.712 330.623 110.62 330.58C110.147 330.353 109.894 329.847 109.86 329.06C109.66 324.967 108.724 315.347 107.05 300.2C106.244 292.9 107.377 285.153 110.45 276.96Z" fill="#4C3760"/>
<path d="M493.57 329.33C491.777 337.643 488.337 351.95 483.25 372.25C481.857 377.803 480.727 381.7 479.86 383.94C478.7 386.68 478.027 389.58 477.84 392.64C469.007 427.2 458.807 458.65 447.24 486.99C432.61 522.84 411.87 559.75 377.2 579.51C377.16 574.477 376.26 569.653 374.5 565.04C401 549.22 419.13 521.98 431.86 494.29C450.7 453.31 464.48 405.96 474.05 365.52C474.823 365.607 475.237 365.437 475.29 365.01C475.757 361.01 476.723 356.403 478.19 351.19C478.697 349.383 479.383 347.827 480.25 346.52C481.023 345.36 481.617 345.447 482.03 346.78C482.123 347.08 482.183 347.393 482.21 347.72C482.26 348.39 482.51 349.07 483.25 348.94C483.367 348.917 483.472 348.854 483.549 348.761C483.625 348.668 483.668 348.551 483.67 348.43C483.69 340.243 486.99 333.877 493.57 329.33Z" fill="#0F041F"/>
<path d="M479.86 383.94C481.4 390.45 480.8 397.18 481.5 403.05C482.76 413.57 483.844 424.1 484.75 434.64C484.98 437.25 486.43 441.63 486 445.09C485.76 447.06 485.44 458.49 484.55 459.06C484.017 459.407 483.754 459.263 483.76 458.63C483.84 450.403 483.587 442.193 483 434C482.9 432.67 481.95 431.33 481.67 434.07C481.651 434.284 481.563 434.484 481.42 434.64C478.95 437.38 481 426.03 481.48 424.87C481.547 424.71 481.57 424.547 481.55 424.38L480.86 417.84C480.856 417.798 480.842 417.758 480.82 417.723C480.797 417.688 480.766 417.659 480.73 417.639C480.694 417.618 480.653 417.607 480.611 417.605C480.569 417.604 480.528 417.612 480.49 417.63C480.08 417.82 479.02 421.28 478.57 421.8C477.2 423.38 477.12 421.6 477.36 420.77C480.107 411.577 480.267 402.2 477.84 392.64C478.027 389.58 478.7 386.68 479.86 383.94Z" fill="#4C3760"/>
<path d="M219.99 522.51C221.163 529.87 222.66 537.097 224.48 544.19C225.793 549.65 229.25 552.543 234.85 552.87C236.836 552.483 237.673 552.95 237.36 554.27C231.04 558.24 225.17 553.55 222.24 548.04C222.16 547.893 222.05 547.803 221.91 547.77C221.862 547.759 221.813 547.76 221.766 547.772C221.719 547.783 221.675 547.806 221.637 547.838C221.6 547.87 221.57 547.91 221.549 547.955C221.529 548.001 221.519 548.05 221.52 548.1C221.626 554.28 221.296 560.433 220.53 566.56C219.52 574.58 219.16 581.12 218.54 588.45C218.38 590.34 216.76 590.29 216.91 588.52C217.42 582.39 217.34 576.14 218.11 570.19C219.37 560.463 220.07 551.987 220.21 544.76C220.256 542.513 219.53 540.18 218.03 537.76C217.416 529.827 215.34 522.377 211.8 515.41C209.2 510.3 204.91 506.2 201.14 501.55C208.07 495.6 218.22 518.59 219.99 522.51Z" fill="#4C3760"/>
<path d="M189.75 506.29C191.324 506.783 192.067 507.87 191.98 509.55C191.934 514.143 192.2 518.62 192.78 522.98C193.01 524.69 195.19 541.31 193.04 539.97C192.938 539.908 192.851 539.823 192.787 539.722C192.723 539.622 192.683 539.508 192.67 539.39C192.49 537.94 191.26 526.64 190.6 526.36C190.547 526.337 190.49 526.326 190.433 526.327C190.375 526.327 190.318 526.34 190.266 526.363C190.215 526.387 190.168 526.421 190.131 526.464C190.094 526.506 190.066 526.556 190.05 526.61C187.797 533.943 186.66 541.417 186.64 549.03C186.61 558 185.99 563.56 183.55 571.02C183.523 571.106 183.476 571.185 183.415 571.252C183.354 571.319 183.279 571.372 183.195 571.407C183.112 571.442 183.022 571.459 182.931 571.456C182.84 571.453 182.752 571.43 182.67 571.39C182.304 571.217 182.164 570.837 182.25 570.25C183.08 564.59 184.2 559.21 184.17 553.45C184.13 545.803 184.32 541.15 184.74 539.49C186.16 533.88 190 523.94 189.29 518.49C188.757 514.397 188.91 510.33 189.75 506.29Z" fill="#4C3760"/>
<path d="M219.99 522.51C222.72 525.18 246.57 547.25 248.46 545.75C248.674 547.057 249.41 547.833 250.67 548.08C252.15 549.673 253.937 550.843 256.03 551.59C256.977 552.93 257.79 554.82 258.47 557.26C259.757 561.84 260.507 565.91 260.72 569.47C252.447 564.897 244.66 559.83 237.36 554.27C237.674 552.95 236.837 552.483 234.85 552.87C231.677 549.397 228.22 546.503 224.48 544.19C222.66 537.097 221.164 529.87 219.99 522.51Z" fill="#0F041F"/>
<path d="M261.99 555.5L265.75 572.79C267.963 579.19 272.563 581.28 279.55 579.06C281.077 578.987 281.893 579.453 282 580.46C274.26 585.07 266.73 583.1 263.19 575.06C262.357 573.153 261.533 571.29 260.72 569.47C260.507 565.91 259.757 561.84 258.47 557.26C257.79 554.82 256.977 552.93 256.03 551.59C255.263 548.717 253.477 547.547 250.67 548.08C249.41 547.833 248.673 547.057 248.46 545.75C249.033 544.703 249.967 544.21 251.26 544.27C257.45 544.55 259.8 549.8 261.99 555.5Z" fill="#4C3760"/>
<path d="M261.99 555.5C272.724 561.8 283.94 566.94 295.64 570.92C296.454 571.66 297.477 571.853 298.71 571.5C300.524 572.52 302.467 573.103 304.54 573.25C306.247 578.097 307.337 583.1 307.81 588.26C298.997 586.08 290.394 583.48 282 580.46C281.894 579.453 281.077 578.987 279.55 579.06L265.75 572.79L261.99 555.5Z" fill="#0F041F"/>
<path d="M374.5 565.04C376.26 569.653 377.16 574.477 377.2 579.51C376.313 593.783 375.53 608.077 374.85 622.39C374.75 624.48 374.18 626.64 373.82 628.74C373.56 630.28 372.25 630.35 372.16 628.81C371.253 613.183 371.633 597.587 373.3 582.02C373.54 577.22 373.273 572.47 372.5 567.77C372.307 566.603 371.76 566.403 370.86 567.17C369.86 568.023 368.74 568.537 367.5 568.71C368.1 564.517 370.433 563.293 374.5 565.04Z" fill="#4C3760"/>
<path d="M358.04 572.5C358.1 577.367 358.517 582.2 359.29 587C359.27 588.02 359.53 599.4 362.22 598.84C362.417 598.795 362.597 598.694 362.736 598.548C362.875 598.402 362.967 598.218 363 598.02L365.04 585.25C365.673 584.37 366.623 584.043 367.89 584.27C367.397 591.917 366.79 596.923 366.07 599.29C365.003 602.803 362.817 603.66 359.51 601.86C359.359 601.777 359.189 601.735 359.017 601.737C358.845 601.739 358.676 601.786 358.527 601.873C358.379 601.959 358.255 602.082 358.167 602.231C358.08 602.379 358.033 602.548 358.03 602.72C358.01 603.573 357.987 604.49 357.96 605.47C357.95 606.02 357.52 607.4 356.79 606.32C356.673 606.138 356.613 605.928 356.62 605.72C356.833 599.78 356.113 593.957 354.46 588.25C354.86 583.463 354.61 578.713 353.71 574C354.003 573.513 354.127 573.057 354.08 572.63C353.92 571.13 353.517 571.063 352.87 572.43C352.603 572.977 352.493 573.583 352.54 574.25C351.5 576.41 350.307 576.577 348.96 574.75C349.833 571.01 350.603 568.77 351.27 568.03C354.91 563.96 357.09 569.34 358.04 572.5Z" fill="#4C3760"/>
<path d="M308.95 574.53L311.79 589C313.263 599.093 315.306 609.237 317.92 619.43C318.306 620.93 318.81 620.97 319.43 619.55C323.403 610.47 325.913 600.87 326.96 590.75C328.4 586.11 329.233 581.36 329.46 576.5C330.57 569.96 338.23 568.49 338.72 576.18C338.033 577.12 337.363 577.143 336.71 576.25C334.876 572.61 333.46 572.777 332.46 576.75L330.07 590.96C329.003 602.64 326.136 613.84 321.47 624.56C321.386 624.761 321.238 624.926 321.05 625.03C313.32 629.49 314.75 611.22 312.5 609.92C312.166 609.727 312.003 609.823 312.01 610.21C312.18 619.9 310.6 626.83 310.73 635.22C310.9 645.73 310.01 651.97 307.98 661.98C307.826 662.727 307.573 663.24 307.22 663.52C306.393 664.18 306.046 663.987 306.18 662.94C306.86 657.647 307.596 652.397 308.39 647.19C309.3 641.22 307.79 633.21 308.39 626.73C308.89 621.3 309.84 615.62 309.65 610.39C309.476 605.557 309.05 599.097 308.37 591.01C308.25 589.577 308.063 588.66 307.81 588.26C307.336 583.1 306.246 578.097 304.54 573.25C303.373 570.217 301.43 569.633 298.71 571.5C297.476 571.853 296.453 571.66 295.64 570.92C296.086 568.887 297.046 567.733 298.52 567.46C304.04 566.453 307.516 568.81 308.95 574.53Z" fill="#4C3760"/>
<path d="M373.3 582.02C370.827 582.247 369.023 582.997 367.89 584.27C366.623 584.043 365.673 584.37 365.04 585.25L359.29 587C358.517 582.2 358.1 577.367 358.04 572.5L367.5 568.71C368.74 568.537 369.86 568.023 370.86 567.17C371.76 566.403 372.307 566.603 372.5 567.77C373.273 572.47 373.54 577.22 373.3 582.02Z" fill="#0F041F"/>
<path d="M353.71 574C354.61 578.713 354.86 583.463 354.46 588.25L352.5 588.54C351.427 588.56 350.524 588.88 349.79 589.5L342.75 590.29C342.037 589.95 341.44 590.02 340.96 590.5L330.07 590.96L332.46 576.75C333.914 576.883 335.33 576.717 336.71 576.25C337.364 577.143 338.034 577.12 338.72 576.18C342.187 576.14 345.6 575.663 348.96 574.75C350.307 576.577 351.5 576.41 352.54 574.25L353.71 574Z" fill="#0F041F"/>
<path d="M308.95 574.53C315.804 575.863 322.64 576.52 329.46 576.5C329.234 581.36 328.4 586.11 326.96 590.75L311.79 589L308.95 574.53Z" fill="#0F041F"/>
<path d="M352.5 588.54C352.89 595.66 351.41 603.98 351 609.57C350.51 616.21 348.57 623.69 349.35 630.2C350.25 637.64 350.88 642.02 348.36 649.17C348.319 649.28 348.256 649.38 348.175 649.463C348.094 649.545 347.997 649.609 347.89 649.65C347.244 649.897 346.984 649.517 347.11 648.51C348.03 641.33 348.247 636.49 347.76 633.99C346.947 629.777 346.85 625.55 347.47 621.31C347.503 621.075 347.452 620.836 347.325 620.634C347.199 620.433 347.006 620.283 346.78 620.21L344.84 619.61C344.615 619.539 344.423 619.39 344.3 619.19C341.93 615.45 341.52 610.96 341.28 606.65C340.98 601.26 340.04 596.17 340.96 590.5C341.44 590.02 342.037 589.95 342.75 590.29C342.364 598.79 343.27 607.133 345.47 615.32C345.64 615.96 346.51 616.72 347.02 615.94C347.484 615.235 347.737 614.416 347.75 613.58C347.877 605.393 348.557 597.367 349.79 589.5C350.524 588.88 351.427 588.56 352.5 588.54Z" fill="#4C3760"/>
</g>
<defs>
<clipPath id="clip0_709_179">
<rect width="620" height="682" fill="white"/>
</clipPath>
</defs>
</svg>
