<svg width="428" height="643" viewBox="0 0 428 643" fill="none" xmlns="http://www.w3.org/2000/svg">
<g clip-path="url(#clip0_713_283)">
<path d="M441.137 18.1162C440.949 17.9733 440.735 17.8849 440.494 17.8508C440.351 17.8319 440.205 17.8433 440.07 17.8841C439.934 17.9249 439.813 17.994 439.715 18.0856C438.647 19.0518 437.368 19.5689 435.878 19.637C435.005 19.6778 434.82 20.0214 435.325 20.6678L435.595 21.0148C435.731 21.1872 435.802 21.3941 435.8 21.6065C435.798 21.8189 435.723 22.026 435.584 22.1987L428.191 31.4967" stroke="#2E1E40" stroke-width="2"/>
<path d="M440.855 20.4127C439.38 22.2022 438.203 24.1176 437.322 26.1589C436.386 28.3328 430.325 36.8858 427.401 37.7635" stroke="#2E1E40" stroke-width="2"/>
<path d="M439.727 35.9773C436.374 36.161 429.061 46.7246 427.074 49.4293" stroke="#2E1E40" stroke-width="2"/>
<path d="M439.444 39.0393C436.675 41.7678 435.05 44.9828 434.568 48.6843C434.553 48.7943 434.514 48.9004 434.452 48.9963C434.391 49.0922 434.309 49.176 434.211 49.2427C434.113 49.3093 434.001 49.3575 433.882 49.3843C433.763 49.4111 433.64 49.416 433.519 49.3988L433.18 49.3477C433.019 49.3223 432.854 49.3292 432.696 49.3678C432.538 49.4065 432.392 49.4759 432.267 49.5713C432.142 49.6667 432.042 49.7856 431.973 49.9198C431.905 50.054 431.87 50.2002 431.871 50.3479V51.9299C431.87 52.1344 431.801 52.3342 431.672 52.5034C431.543 52.6727 431.361 52.8036 431.148 52.8791L426.272 54.604" stroke="#2E1E40" stroke-width="2"/>
<path d="M436.949 78.1194L435.189 79.7626C435.085 79.8626 434.959 79.9423 434.82 79.9967C434.68 80.0511 434.529 80.0791 434.376 80.079C430.275 80.045 426.773 81.3854 423.868 84.1003" stroke="#2E1E40" stroke-width="2"/>
<path d="M435.866 83.937C427.333 81.2017 425.776 90.0404 426.543 95.3886C426.579 95.6503 426.502 95.9138 426.329 96.1234C425.606 97.0216 424.963 95.5519 424.918 94.9599C424.865 94.3271 424.782 93.6875 424.67 93.0411C424.323 91.1836 423.748 91.1223 422.943 92.8574C422.83 93.1023 422.747 93.3609 422.694 93.6331" stroke="#2E1E40" stroke-width="2"/>
<path d="M419.851 117.159C419.535 118.445 420.054 124.977 418.654 124.773" stroke="#2E1E40" stroke-width="2"/>
<path d="M429.331 136.724C428.27 140.643 427.909 144.655 428.248 148.758" stroke="#2E1E40" stroke-width="2"/>
<path d="M423.925 170.701C423.068 171.395 423.052 172.12 423.88 172.875" stroke="#0B0415" stroke-opacity="0.769" stroke-width="2"/>
<path d="M423.88 172.875C420.957 177.478 409.207 196.095 407.966 196.248" stroke="#2E1E40" stroke-width="2"/>
<path d="M419.749 197.697L421.103 191.879" stroke="#2E1E40" stroke-width="2"/>
<path d="M421.103 191.879L422.006 187.327C422.375 185.456 422.021 185.334 420.945 186.96L420.641 187.409" stroke="#33253F" stroke-opacity="0.769" stroke-width="2"/>
<path d="M420.64 187.409C415.983 194.798 410.877 201.933 405.324 208.812" stroke="#2E1E40" stroke-width="2"/>
<path d="M399.884 242.503C400.343 244.088 400.091 245.612 399.128 247.075" stroke="#2E1E40" stroke-width="2"/>
<path d="M423.88 172.875L424.535 171.252" stroke="#33253F" stroke-opacity="0.769" stroke-width="2"/>
<path d="M2.26507 238.869C0.940758 235.685 0.128127 232.375 -0.172852 228.938" stroke="#2E1E40" stroke-width="2"/>
<path d="M421.103 191.879L420.641 187.409" stroke="#0B0415" stroke-opacity="0.769" stroke-width="2"/>
<path d="M408.824 261.201C406.905 261.548 407.661 265.682 407.842 266.896" stroke="#2E1E40" stroke-width="2"/>
<path d="M326.012 477.657C324.003 477.916 323.266 478.919 323.8 480.668" stroke="#2E1E40" stroke-width="2"/>
<path d="M296.825 506.551C297.058 502.38 298.067 497.859 299.85 492.987C302.581 485.557 307.002 479.453 313.112 474.677C313.857 474.095 314.037 473.421 313.925 472.595" stroke="#2E1E40" stroke-width="2"/>
<path d="M22.1631 318.652L21.5198 318.428C21.3618 318.367 21.2263 318.282 21.1135 318.173C15.7485 313.07 10.7071 307.721 5.98926 302.128" stroke="#2E1E40" stroke-width="2"/>
<path d="M29.7135 344.679C28.9686 344.808 28.5698 344.709 28.5171 344.383C27.8324 339.824 26.7413 335.347 25.244 330.951C24.785 329.618 24.1868 328.335 23.4494 327.103C22.5239 325.572 21.8278 325.654 21.3613 327.348L21.034 328.522C20.8534 329.175 20.5223 329.247 20.0408 328.736C19.8903 328.58 19.8038 328.376 19.7812 328.124C19.1792 320.272 15.5901 314.209 9.01367 309.936" stroke="#2E1E40" stroke-width="2"/>
<path d="M133.552 532.843C131.716 537.095 130.677 541.583 130.437 546.305" stroke="#2E1E40" stroke-width="2"/>
<path d="M25.5378 370.44C25.2557 369.245 25.5265 362.009 23.3369 362.325" stroke="#2E1E40" stroke-width="2"/>
<path d="M276.114 522.779C276.709 521.35 277.694 520.905 279.071 521.442" stroke="#2E1E40" stroke-width="2"/>
<path d="M289.896 512.798C292.055 506.64 293.342 500.268 293.756 493.681" stroke="#2E1E40" stroke-width="2"/>
<path d="M251.893 537.109C252.54 531.223 254.218 525.596 256.926 520.228" stroke="#2E1E40" stroke-width="2"/>
<path d="M262.288 516.737C263.658 516.615 264.617 516.118 265.166 515.247" stroke="#2E1E40" stroke-width="2"/>
<path d="M229.839 547.275C230.305 546.138 231.393 545.733 233.101 546.06" stroke="#2E1E40" stroke-width="2"/>
<path d="M246.509 540.477C248.412 535.326 249.726 529.849 250.448 524.045" stroke="#2E1E40" stroke-width="2"/>
<path d="M202.841 554.644C203.465 550.017 204.579 545.448 206.182 540.937" stroke="#2E1E40" stroke-width="2"/>
<path d="M212.987 538.793C213.958 539.174 214.846 538.997 215.651 538.262" stroke="#2E1E40" stroke-width="2"/>
<path d="M140.673 535.762C139.838 536.041 139.078 535.772 138.393 534.955C138.268 534.803 138.098 534.684 137.903 534.614C137.708 534.544 137.494 534.524 137.287 534.557C133.879 535.149 134.657 545.927 135.075 548.591" stroke="#2E1E40" stroke-width="2"/>
<path d="M160.471 541.957C158.567 543.76 157.156 543.42 156.238 540.937" stroke="#2E1E40" stroke-width="2"/>
<path d="M154.872 541.192L154.263 554.715" stroke="#2E1E40" stroke-width="2"/>
<path d="M140.29 550.878C141.607 550.694 142.581 550.966 143.213 551.694" stroke="#2E1E40" stroke-width="2"/>
<path d="M149.376 553.439C150.113 548.88 150.411 544.301 150.268 539.701" stroke="#2E1E40" stroke-width="2"/>
<path d="M179.568 557.011C179.417 552.459 178.586 548.023 177.073 543.702" stroke="#2E1E40" stroke-width="2"/>
<path d="M173.078 542.723C172.574 543.614 171.821 543.784 170.82 543.233" stroke="#2E1E40" stroke-width="2"/>
<path d="M180.787 543.743C180.456 548.234 181.208 552.572 183.044 556.756" stroke="#2E1E40" stroke-width="2"/>
<path d="M198.823 555.654L201.769 541.6" stroke="#2E1E40" stroke-width="2"/>
<path d="M168.631 557.083C167.947 556.634 167.202 556.61 166.396 557.012" stroke="#2E1E40" stroke-width="2"/>
<path d="M159.251 555.736C158.341 555.164 157.415 555.093 156.475 555.521" stroke="#2E1E40" stroke-width="2"/>
<path d="M442.831 5.10315L442.266 7.65474C440.182 9.16528 439.279 11.3801 439.557 14.2991C439.648 15.2244 439.354 15.6157 438.677 15.4728C438.52 15.4385 438.38 15.3575 438.28 15.2428C438.179 15.1281 438.125 14.9862 438.124 14.84C438.086 12.6082 437.417 12.4347 436.115 14.3195C433.933 17.4903 431.566 20.5283 429.016 23.4338C426.318 21.6068 428.395 19.5145 429.377 17.0956C431.077 16.4628 432.063 15.2857 432.334 13.5642C432.37 13.3582 432.335 13.1476 432.232 12.962C431.367 11.3903 431.943 10.7405 433.959 11.0126C434.148 11.0375 434.342 11.0168 434.522 10.9524C434.702 10.888 434.862 10.7822 434.986 10.6452L435.889 9.66539C436.009 9.53306 436.09 9.37569 436.125 9.20771C436.159 9.03974 436.147 8.86654 436.089 8.704C436.03 8.54146 435.928 8.39479 435.79 8.27744C435.653 8.16009 435.485 8.07583 435.302 8.03237C433.617 7.63773 433.756 7.15803 435.72 6.59328C437.831 5.9911 440.585 5.80739 442.831 5.10315Z" fill="#4C3760"/>
<path d="M441.138 18.1163L440.855 20.4128C439.381 22.2023 438.203 24.1177 437.323 26.1589C436.386 28.3329 430.325 36.8858 427.402 37.7636C426.664 35.5998 426.928 33.5109 428.192 31.4969L435.585 22.1989C435.723 22.0261 435.799 21.819 435.801 21.6066C435.803 21.3943 435.731 21.1873 435.596 21.0149L435.325 20.6679C434.821 20.0215 435.005 19.6779 435.878 19.6371C437.368 19.569 438.647 19.0519 439.715 18.0857C439.813 17.9941 439.934 17.925 440.07 17.8842C440.205 17.8434 440.351 17.832 440.494 17.851C440.735 17.885 440.95 17.9734 441.138 18.1163Z" fill="#4C3760"/>
<path d="M440.855 20.4127L439.727 35.9774C436.374 36.1611 429.061 46.7247 427.074 49.4294L427.402 37.7635C430.325 36.8858 436.386 28.3328 437.323 26.1589C438.203 24.1176 439.381 22.2022 440.855 20.4127Z" fill="#0F041F"/>
<path d="M439.726 35.9774L439.444 39.0393C436.675 41.7678 435.05 44.9828 434.568 48.6843C434.553 48.7943 434.514 48.9004 434.452 48.9963C434.391 49.0922 434.309 49.176 434.211 49.2427C434.113 49.3093 434.001 49.3575 433.882 49.3843C433.763 49.4111 433.64 49.416 433.519 49.3988L433.18 49.3477C433.019 49.3224 432.854 49.3292 432.696 49.3678C432.538 49.4065 432.392 49.4759 432.267 49.5713C432.142 49.6667 432.042 49.7857 431.974 49.9198C431.905 50.054 431.87 50.2002 431.871 50.348V51.9299C431.87 52.1344 431.801 52.3342 431.672 52.5035C431.543 52.6727 431.361 52.8036 431.148 52.8791L426.273 54.604C425.994 52.692 426.261 50.9671 427.074 49.4294C429.06 46.7247 436.374 36.1611 439.726 35.9774Z" fill="#4C3760"/>
<path d="M439.445 39.0393L437.413 71.077C435.848 71.982 435.694 73.1966 436.95 74.7207C435.987 75.8706 435.987 77.0035 436.95 78.1194L435.19 79.7626C435.086 79.8626 434.96 79.9423 434.821 79.9967C434.681 80.0512 434.53 80.0792 434.377 80.079C430.276 80.045 426.774 81.3855 423.869 84.1003L426.273 54.604L431.149 52.8791C431.361 52.8036 431.544 52.6727 431.673 52.5034C431.801 52.3342 431.871 52.1344 431.871 51.9299V50.3479C431.871 50.2002 431.906 50.054 431.974 49.9198C432.043 49.7856 432.143 49.6667 432.268 49.5713C432.393 49.4759 432.539 49.4065 432.697 49.3678C432.854 49.3292 433.02 49.3223 433.181 49.3477L433.519 49.3988C433.64 49.416 433.764 49.4111 433.883 49.3843C434.002 49.3575 434.114 49.3093 434.212 49.2427C434.309 49.176 434.392 49.0922 434.453 48.9963C434.514 48.9004 434.554 48.7943 434.569 48.6843C435.051 44.9828 436.676 41.7678 439.445 39.0393Z" fill="#0F041F"/>
<path d="M437.413 71.077C442.334 75.561 441.818 79.8477 435.866 83.937C427.334 81.2017 425.776 90.0404 426.544 95.3885C426.58 95.6503 426.503 95.9137 426.329 96.1234C425.607 97.0216 424.963 95.5519 424.918 94.9599C424.866 94.3271 424.783 93.6875 424.67 93.0411C424.324 91.1835 423.748 91.1223 422.943 92.8574C422.83 93.1023 422.747 93.3609 422.695 93.6331C418.398 101.016 417.45 108.858 419.851 117.159C419.534 118.445 420.054 124.977 418.654 124.773C411.965 110.817 413.406 97.6952 422.977 85.4067C423.346 84.9236 423.643 84.4882 423.869 84.1003C426.773 81.3854 430.276 80.045 434.377 80.079C434.529 80.0792 434.68 80.0512 434.82 79.9967C434.96 79.9423 435.085 79.8626 435.189 79.7626L436.95 78.1194C438.507 76.9491 438.507 75.8162 436.95 74.7207C435.693 73.1965 435.848 71.982 437.413 71.077Z" fill="#4C3760"/>
<path d="M435.867 83.937C434.196 101.628 432.018 119.224 429.332 136.724C428.271 140.644 427.909 144.655 428.248 148.758C428.376 148.261 428.357 147.849 428.192 147.523C427.913 146.992 427.729 147.019 427.639 147.604L423.925 170.701C423.067 171.395 423.052 172.12 423.88 172.875C420.957 177.478 409.207 196.095 407.966 196.248C412.044 172.46 415.607 148.635 418.654 124.773C420.054 124.977 419.535 118.445 419.851 117.159L422.695 93.6331C422.748 93.3609 422.83 93.1023 422.943 92.8574C423.748 91.1223 424.324 91.1836 424.67 93.0411C424.783 93.6875 424.866 94.3271 424.918 94.9599C424.964 95.5519 425.607 97.0216 426.329 96.1234C426.503 95.9138 426.58 95.6503 426.544 95.3886C425.776 90.0404 427.334 81.2017 435.867 83.937Z" fill="#0F041F"/>
<path d="M429.331 136.724C432.909 142.266 431.848 149.982 431.983 156.167C432.126 162.107 431.088 167.809 428.868 173.273C423.914 185.49 421.95 195.594 422.593 209.026C422.819 213.667 422.969 218.307 423.044 222.947C423.09 225.611 422.514 231.715 421.464 233.235C419.094 236.655 419.354 232.348 419.5 231.47C421.284 220.661 419.907 208.699 419.749 197.697L421.103 191.879L422.006 187.327C422.375 185.456 422.021 185.334 420.945 186.96L420.64 187.409C415.983 194.798 410.877 201.933 405.324 208.812C399.899 219.501 398.086 230.732 399.884 242.503C400.343 244.088 400.091 245.612 399.128 247.075C395.892 241.918 394.779 236.706 395.787 231.439C397.017 224.999 397.525 216.538 400.787 210.751C403.443 206.008 405.836 201.174 407.965 196.248C409.207 196.095 420.956 177.478 423.88 172.875L424.534 171.252C428.654 165.823 428.756 154.698 428.248 148.758C427.909 144.655 428.27 140.643 429.331 136.724Z" fill="#4C3760"/>
<path d="M-6.17792 204.219C-3.76256 208.475 -0.421692 212.016 1.02301 216.405C3.42331 223.706 3.83715 231.194 2.26454 238.869C0.940227 235.685 0.127597 232.375 -0.173382 228.939C0.345807 223.196 -0.888223 217.8 -3.87544 212.751L-7.15986 208.403C-8.35625 206.825 -8.90555 206.992 -8.80773 208.904C-8.76258 209.829 -8.77762 210.754 -8.85287 211.68C-8.89801 212.261 -9.3382 212.649 -9.9364 212.384C-10.0834 212.316 -10.2073 212.213 -10.2947 212.087C-10.3822 211.962 -10.43 211.817 -10.433 211.669C-10.6211 204.382 -13.6836 198.292 -19.6204 193.4C-26.2043 184.228 -28.6272 174.11 -26.889 163.046C-26.02 161.924 -25.1847 162.842 -25.0944 163.761C-24.3721 171.854 -24.2254 182.816 -18.977 189.767C-15.1245 194.87 -10.8581 199.687 -6.17792 204.219Z" fill="#4C3760"/>
<path d="M423.925 170.701L424.535 171.252L423.88 172.875C423.052 172.12 423.068 171.395 423.925 170.701Z" fill="#040302" fill-opacity="0.533"/>
<path d="M421.103 191.879L420.641 187.409L420.945 186.96C422.021 185.334 422.375 185.456 422.006 187.327L421.103 191.879Z" fill="#040302" fill-opacity="0.533"/>
<path d="M420.64 187.409L421.103 191.879L419.749 197.697L408.823 261.201C406.905 261.548 407.661 265.681 407.841 266.896C407.676 266.842 407.51 266.879 407.345 267.008C407.264 267.075 407.209 267.164 407.187 267.263C401.897 300.625 394.361 333.557 384.579 366.061C372.412 406.478 353.846 444.139 326.013 477.657C324.004 477.916 323.266 478.919 323.8 480.668C315.411 489.826 306.419 498.454 296.825 506.551C297.058 502.38 298.067 497.859 299.85 492.987C302.581 485.557 307.002 479.453 313.112 474.677C313.857 474.095 314.037 473.421 313.925 472.595C314.263 472.602 314.534 472.489 314.737 472.258C349.365 431.78 369.658 384.198 381.634 333.748C389.278 301.543 395.11 272.652 399.128 247.075C400.091 245.612 400.343 244.088 399.884 242.503C401.953 231.33 403.94 220.212 405.844 209.148C405.911 208.75 405.753 208.546 405.324 208.812C410.877 201.933 415.983 194.798 420.64 187.409Z" fill="#0F041F"/>
<path d="M-19.6201 193.4C-13.6833 198.292 -10.6208 204.382 -10.4327 211.67C-10.4297 211.817 -10.3819 211.962 -10.2945 212.088C-10.207 212.213 -10.0832 212.316 -9.93611 212.384C-9.33792 212.649 -8.89773 212.261 -8.85258 211.68C-8.77734 210.754 -8.7623 209.829 -8.80744 208.904C-8.90526 206.992 -8.35597 206.825 -7.15958 208.403L-3.87515 212.751L-0.173096 228.939C0.127883 232.375 0.940513 235.685 2.26482 238.869C8.49509 264.841 15.0301 290.769 21.8699 316.652C22.0504 317.312 22.1483 317.979 22.1633 318.652L21.52 318.428C21.3619 318.367 21.2265 318.282 21.1136 318.173C15.7487 313.07 10.7073 307.721 5.98944 302.128L6.26033 302.006C6.44864 301.929 6.60113 301.794 6.69173 301.624C6.78232 301.455 6.80539 301.261 6.75695 301.077L-1.39206 270.162C-1.71562 266.767 -2.09561 263.344 -2.53203 259.895C-2.6449 259.017 -3.00608 258.67 -4.03317 258.986L-19.6201 193.4Z" fill="#0F041F"/>
<path d="M-4.03279 258.986C-3.0057 258.67 -2.64452 259.017 -2.53165 259.894C-2.09523 263.344 -1.71524 266.767 -1.39168 270.162C-2.73104 275.177 -3.02074 279.477 -2.26077 283.063C-1.01923 288.887 1.73097 295.242 5.98982 302.128C10.7077 307.721 15.7491 313.07 21.114 318.173C21.2269 318.282 21.3623 318.367 21.5203 318.428L22.1637 318.652C26.6633 326.892 29.1803 335.568 29.7145 344.679C28.9696 344.808 28.5708 344.709 28.5181 344.383C27.8334 339.824 26.7423 335.347 25.2449 330.951C24.786 329.617 24.1878 328.335 23.4504 327.103C22.5249 325.572 21.8288 325.654 21.3623 327.348L21.035 328.522C20.8544 329.175 20.5233 329.247 20.0418 328.736C19.8913 328.58 19.8048 328.376 19.7822 328.124C19.1802 320.272 15.5911 314.209 9.01467 309.936C8.26222 308.337 7.36304 306.857 6.31714 305.496C4.93264 303.707 4.3871 303.897 4.68056 306.068C6.98305 323.045 7.38937 340.059 5.89952 357.11C5.57221 360.743 6.27199 364.234 6.98305 367.725C7.31413 369.364 7.16741 370.936 6.54287 372.44C5.8732 374.046 5.40667 373.998 5.14332 372.297C4.9853 371.27 5.04174 370.249 5.31263 369.235C5.49321 368.555 5.37281 368.153 4.95144 368.031C4.89778 368.015 4.84091 368.011 4.78511 368.018C4.72931 368.025 4.67605 368.044 4.62932 368.072C4.58259 368.101 4.54361 368.138 4.51534 368.183C4.48707 368.227 4.47026 368.276 4.46612 368.327C3.94693 375.349 3.48417 381.503 4.79343 388.77C5.05302 390.25 7.70541 404.498 5.87696 404.08C5.71159 404.043 5.56101 403.964 5.44302 403.852C5.32502 403.74 5.24453 403.6 5.21103 403.447C1.80245 387.8 0.290035 377.543 2.02819 364.173C4.57899 344.587 4.52254 324.827 2.29906 305.231C1.29454 296.433 -4.33753 288.431 -4.50683 279.868C-4.64227 272.901 -4.48426 265.94 -4.03279 258.986Z" fill="#4C3760"/>
<path d="M408.824 261.201C412.014 268.658 413.199 275.833 412.379 282.726C410.701 296.811 409.696 305.986 409.365 310.253C409.241 311.886 407.751 312.947 407.537 310.324C407.074 304.874 406.228 299.761 406.939 294.29C408.056 285.768 410.652 275.184 407.842 266.896C407.661 265.682 406.905 261.548 408.824 261.201Z" fill="#4C3760"/>
<path d="M9.01465 309.936C15.591 314.209 19.1802 320.272 19.7822 328.124C19.8047 328.376 19.8913 328.58 20.0418 328.736C20.5233 329.247 20.8544 329.175 21.035 328.522L21.3623 327.348C21.8288 325.654 22.5248 325.572 23.4503 327.103C24.1877 328.335 24.7859 329.618 25.2449 330.951C26.7423 335.347 27.8334 339.824 28.5181 344.383C28.5708 344.709 28.9696 344.808 29.7145 344.679C36.5618 370.521 44.6431 396.057 53.9584 421.288C66.1593 454.346 83.2925 490.527 109.907 515.931C116.536 522.259 124.418 527.896 133.552 532.843C131.716 537.096 130.678 541.583 130.437 546.305C114.402 537.711 101.016 526.702 90.279 513.277C57.0396 471.697 41.0351 420.053 25.5384 370.44C25.2562 369.245 25.5271 362.009 23.3375 362.325L9.01465 309.936Z" fill="#0F041F"/>
<path d="M23.3371 362.325C25.5268 362.009 25.2559 369.245 25.5381 370.44C23.2657 379.176 23.5554 388.114 26.4071 397.252C26.7683 398.425 25.3349 398.201 24.8947 397.517C24.2476 396.517 23.7736 395.438 23.4726 394.282C23.4473 394.191 23.3891 394.11 23.3073 394.053C23.2254 393.996 23.1247 393.965 23.0211 393.965H22.7277C22.6759 393.965 22.6249 393.995 22.585 394.05C22.5452 394.105 22.5195 394.181 22.5132 394.261C22.2762 397.395 21.9715 399.671 22.7841 402.977C23.0211 403.937 24.1724 410.846 22.4116 410.275C22.2644 410.225 22.1389 410.133 22.0535 410.014C21.9682 409.895 21.9275 409.753 21.9376 409.611C21.9752 409.142 21.8736 408.717 21.6329 408.336C21.0234 407.376 20.666 407.448 20.5606 408.55C19.8006 416.423 19.5109 424.312 19.6915 432.219C19.6913 432.315 19.668 432.41 19.6233 432.498C19.5785 432.586 19.5133 432.665 19.4319 432.729C17.4906 434.209 17.9195 423.359 17.9421 422.788C17.9985 421.369 17.4229 420.491 16.8699 419.257C16.7887 419.069 16.7653 418.868 16.8021 418.675C19.5787 406.203 20.2446 393.322 21.8812 380.677C22.5922 375.216 22.152 368.48 23.3371 362.325Z" fill="#4C3760"/>
<path d="M313.925 472.595C314.038 473.421 313.857 474.095 313.112 474.677C307.002 479.453 302.582 485.557 299.85 492.987C298.067 497.859 297.059 502.38 296.825 506.551C295.193 508.94 294.402 511.389 294.455 513.9C294.583 520.629 295.257 528.158 296.475 536.486C297.333 542.345 297.378 548.203 297.898 554.113C298.089 556.379 295.99 557.032 295.922 554.358C295.719 545.295 294.128 536.252 293.439 527.587C293.199 524.525 292.999 521.561 292.841 518.697C292.743 516.969 292.187 516.839 291.171 518.309C287.649 523.426 282.63 524.916 276.114 522.779C276.709 521.35 277.694 520.905 279.071 521.442C284.986 520.939 288.594 518.057 289.895 512.798C292.055 506.64 293.342 500.268 293.755 493.681C296.171 489.997 306.701 467.583 313.925 472.595Z" fill="#4C3760"/>
<path d="M326.013 477.657C327.83 482.893 326.104 487.119 326.623 492.14C326.751 493.31 327.323 495.318 328.338 498.162C331.07 505.796 332.315 513.631 332.074 521.667C331.905 527.454 333.575 532.925 333.925 537.354C334.117 539.865 332.718 538.742 332.368 537.66C329.576 529.148 328.557 520.456 329.309 511.583C329.475 509.658 328.35 504.731 325.934 496.804C325.903 496.695 325.833 496.599 325.735 496.529C325.637 496.459 325.517 496.419 325.393 496.417C323.88 496.376 323.722 507.409 323 508.736C321.826 510.91 321.532 508.042 321.578 507.521C322.36 498.825 323.101 489.874 323.801 480.668C323.267 478.919 324.004 477.916 326.013 477.657Z" fill="#4C3760"/>
<path d="M293.755 493.681C293.341 500.268 292.054 506.64 289.895 512.798C285.854 515.288 282.246 518.17 279.071 521.442C277.694 520.905 276.708 521.351 276.114 522.779C268.409 528.066 260.335 532.843 251.893 537.109C252.54 531.223 254.218 525.596 256.926 520.228C259.018 519.445 260.805 518.282 262.288 516.737C263.657 516.615 264.616 516.118 265.166 515.247C275.06 508.463 284.59 501.275 293.755 493.681Z" fill="#0F041F"/>
<path d="M265.166 515.247C264.617 516.118 263.658 516.615 262.288 516.737C259.346 516.431 257.559 517.595 256.927 520.228C254.218 525.596 252.54 531.224 251.893 537.109C248.101 546.489 242.051 553.94 229.839 547.275C230.305 546.138 231.393 545.734 233.101 546.06C239.925 547.972 244.395 546.111 246.509 540.477C248.413 535.327 249.726 529.849 250.448 524.045C253.327 519.207 254.128 514.808 260.877 513.186C262.706 512.743 264.135 513.43 265.166 515.247Z" fill="#4C3760"/>
<path d="M250.448 524.045C249.726 529.849 248.413 535.326 246.509 540.477C241.746 541.838 237.277 543.699 233.101 546.06C231.392 545.733 230.305 546.138 229.839 547.275C221.163 550.16 212.164 552.616 202.841 554.644C203.465 550.017 204.579 545.448 206.182 540.936L212.988 538.793C213.958 539.174 214.846 538.997 215.651 538.262C227.743 534.513 239.342 529.774 250.448 524.045Z" fill="#0F041F"/>
<path d="M140.674 535.762C139.838 536.041 139.078 535.772 138.394 534.956C138.269 534.803 138.099 534.684 137.903 534.614C137.708 534.544 137.495 534.524 137.288 534.558C133.879 535.15 134.658 545.927 135.075 548.591C135.068 550.531 135.489 555.865 136.339 564.595C136.866 569.929 136.761 579.227 136.023 592.489C135.956 593.826 135.121 594.53 133.789 593.05C133.635 592.884 133.544 592.681 133.529 592.468L130.437 546.305C130.677 541.583 131.716 537.096 133.552 532.843C137.78 531.183 140.154 532.156 140.674 535.762Z" fill="#4C3760"/>
<path d="M160.471 541.957C158.567 543.76 157.156 543.42 156.238 540.936C155.606 537.684 155.151 537.769 154.872 541.192L154.263 554.715C152.781 560.09 152.085 565.534 152.175 571.045C152.209 572.76 150.742 572.403 150.753 570.902C150.76 570.025 150.655 569.167 150.437 568.33C150.4 568.18 150.325 568.039 150.217 567.918C150.11 567.798 149.973 567.702 149.817 567.637C149.661 567.572 149.49 567.54 149.318 567.543C149.146 567.547 148.976 567.585 148.823 567.657C145.557 569.174 143.394 568.279 142.333 564.972C141.663 562.883 140.982 558.185 140.29 550.877C141.607 550.694 142.581 550.966 143.213 551.694C144.327 555.695 145.053 559.784 145.392 563.962C145.406 564.144 145.474 564.319 145.589 564.47C145.704 564.621 145.862 564.742 146.046 564.819C148.529 565.84 149.331 556.522 149.376 553.439C150.113 548.88 150.41 544.301 150.267 539.701C151.351 538.13 152.175 535.599 153.834 534.711C158.078 532.414 159.432 539.885 160.471 541.957Z" fill="#4C3760"/>
<path d="M140.674 535.762C143.609 537.449 146.807 538.762 150.268 539.701C150.411 544.301 150.114 548.88 149.376 553.439L143.214 551.694C142.582 550.966 141.607 550.694 140.29 550.877C138.898 549.714 137.16 548.952 135.076 548.591C134.658 545.927 133.88 535.149 137.288 534.557C137.495 534.524 137.709 534.544 137.904 534.614C138.099 534.684 138.269 534.803 138.394 534.955C139.079 535.772 139.839 536.041 140.674 535.762Z" fill="#0F041F"/>
<path d="M215.651 538.263C214.846 538.997 213.958 539.174 212.987 538.793C209.474 536.97 207.205 537.684 206.182 540.937C204.579 545.448 203.465 550.017 202.841 554.644C200.847 566.238 200.621 577.833 202.164 589.427C203.123 596.612 201.61 602.91 202.434 609.656C203.044 614.582 203.778 619.488 204.635 624.374C204.936 626.054 204.549 626.479 203.473 625.649C203.296 625.51 203.171 625.325 203.112 625.119C200.508 615.531 199.428 605.815 199.872 595.969C200.166 589.529 198.213 583.324 198.778 576.669C198.981 574.311 197.818 574.74 197.649 576.128C197.085 580.558 195.843 584.804 193.924 588.866C193.829 589.071 193.663 589.243 193.45 589.356C190.391 590.948 188.665 589.315 187.671 586.732C185.403 580.843 182.976 575.281 181.859 569.024C181.144 565.017 180.38 561.012 179.568 557.012C179.417 552.46 178.586 548.023 177.073 543.703C176.569 540.266 175.237 539.94 173.078 542.723C172.574 543.614 171.821 543.784 170.82 543.233C171.035 539.936 174.872 536.364 178.078 539.253C179.297 540.365 179.771 542.243 180.786 543.743C180.455 548.234 181.208 552.572 183.044 556.756C183.992 565.867 186.449 574.601 190.414 582.956C190.809 583.793 191.261 588.263 192.626 583.589C195.275 574.451 197.34 565.139 198.823 555.654L201.768 541.6C203.65 535.796 207.709 533.792 213.947 535.588C214.79 535.833 215.358 536.725 215.651 538.263Z" fill="#4C3760"/>
<path d="M156.238 540.937C157.156 543.42 158.567 543.76 160.47 541.957L170.82 543.233C171.821 543.784 172.573 543.614 173.078 542.723C174.169 543.696 175.501 544.022 177.073 543.702C178.586 548.023 179.417 552.459 179.567 557.012C175.82 556.692 172.175 556.716 168.631 557.083C167.946 556.634 167.201 556.61 166.396 557.012C164.169 555.896 161.787 555.47 159.251 555.736C158.341 555.164 157.415 555.093 156.475 555.521C156.038 554.548 155.301 554.28 154.263 554.715L154.872 541.192C155.745 541.668 156.2 541.583 156.238 540.937Z" fill="#0F041F"/>
<path d="M201.769 541.6L198.823 555.654L183.044 556.757C181.208 552.572 180.456 548.234 180.787 543.743C187.732 543.471 194.726 542.757 201.769 541.6Z" fill="#0F041F"/>
<path d="M159.252 555.736C160.922 565.296 161.611 571.334 161.317 573.852C161.099 575.812 161.212 577.656 161.656 579.384C162.183 581.405 162.894 581.459 163.789 579.547C164.542 577.948 165.042 576.295 165.29 574.587C166.159 568.586 166.904 563.095 166.396 557.012C167.202 556.61 167.946 556.634 168.631 557.083C169.083 564.724 168.436 572.549 166.69 580.558C166.201 582.796 164.884 584.181 162.74 584.712C162.493 584.771 162.277 584.905 162.125 585.09C161.973 585.276 161.896 585.502 161.904 585.732C162.254 594.387 160.527 602.522 162.062 611.289C162.105 611.532 162.049 611.782 161.904 611.993C161.43 612.674 161.013 612.51 160.651 611.503C158.966 606.863 158.323 603.413 158.721 601.154C159.534 596.469 160.414 592.428 159.624 587.559C158.834 582.694 158.244 577.812 157.852 572.913C157.502 568.351 155.911 561.472 156.475 555.521C157.416 555.093 158.341 555.164 159.252 555.736Z" fill="#4C3760"/>
</g>
<defs>
<clipPath id="clip0_713_283">
<rect width="807" height="643" fill="white" transform="translate(-249)"/>
</clipPath>
</defs>
</svg>
