<svg width="45" height="62" viewBox="0 0 45 62" fill="none" xmlns="http://www.w3.org/2000/svg">
<g clip-path="url(#clip0_836_11737)">
<path d="M34.536 9.18908C34.9352 9.59678 36.4956 9.56542 37.0749 9.51235C39.1052 9.32176 42.2284 9.28075 43.2386 11.3555C43.4869 11.8653 43.6111 12.7684 43.6111 14.0646C43.6143 28.5345 43.6143 43.0052 43.6111 57.4767C43.6111 59.7565 42.6714 61.5176 40.1373 61.5176C28.128 61.5176 16.1204 61.5168 4.11432 61.5152C1.50716 61.5152 0.655153 59.2643 0.652719 57.0787C0.641359 42.4817 0.642981 27.884 0.657587 13.2854C0.65921 11.6578 1.32702 10.5409 2.66103 9.93452C4.90547 8.91165 7.44202 9.92488 9.71811 9.34106C9.75331 9.33216 9.78635 9.31631 9.81523 9.29446C9.84411 9.27261 9.86825 9.24522 9.8862 9.21391C9.90415 9.18261 9.91555 9.14804 9.91971 9.11227C9.92387 9.0765 9.92071 9.04026 9.91042 9.00573C9.46737 7.53172 9.58179 4.45585 11.8384 4.46067C13.2649 4.46389 14.6914 4.46469 16.1179 4.46309C16.206 4.46239 16.2925 4.43996 16.3694 4.39782C16.4464 4.35569 16.5114 4.29519 16.5585 4.22184C19.7475 -0.726097 24.6283 -0.771934 27.8294 4.25079C27.8698 4.31437 27.9257 4.3669 27.992 4.40357C28.0584 4.44024 28.133 4.45987 28.2092 4.46067C29.6584 4.4655 31.1036 4.4655 32.5447 4.46067C34.7794 4.45344 34.9279 7.51484 34.4824 8.97437C34.4581 9.05639 34.4759 9.12796 34.536 9.18908ZM17.4933 6.17834C15.8745 6.37616 14.1632 6.27001 12.5297 6.28207C11.8895 6.2869 11.6071 6.85141 11.6047 7.45452C11.5982 9.45203 11.599 11.4512 11.6071 13.4519C11.612 14.2335 11.5731 14.5302 12.5176 14.5327C18.9993 14.5375 25.4811 14.5375 31.9629 14.5327C32.4011 14.5327 32.7711 14.4144 32.7759 13.932C32.7906 12.774 32.7897 10.5923 32.7735 7.38698C32.7662 5.73686 29.8329 6.27001 28.7496 6.27001C27.3937 6.27001 26.4102 6.37857 25.9014 5.13616C24.5528 1.85523 20.5532 1.41857 18.7665 4.64161C18.4776 5.1627 18.1254 5.63875 17.71 6.06978C17.6499 6.13089 17.5777 6.16708 17.4933 6.17834ZM11.5804 16.342C10.8549 16.342 9.98345 15.9319 9.91772 15.1237C9.8382 14.1555 9.75544 13.1881 9.66942 12.2215C9.60613 11.493 9.36513 11.2348 8.62023 11.271C6.92108 11.353 5.22274 11.4423 3.52521 11.5388C2.70485 11.5871 2.47359 12.2794 2.47359 13.0273C2.47359 27.6886 2.47359 42.3514 2.47359 57.0159C2.47359 59.122 3.51304 59.7806 5.59681 59.7613C16.746 59.6551 27.8951 59.656 39.0443 59.7637C41.296 59.7854 41.9119 58.7577 41.9095 56.5889C41.9095 42.0161 41.9095 27.4433 41.9095 12.8705C41.9095 12.2625 41.5857 11.5846 40.9552 11.546C39.0695 11.427 37.2105 11.3321 35.3782 11.2614C35.2223 11.2552 35.07 11.3089 34.9527 11.4112C34.8354 11.5136 34.762 11.6568 34.7477 11.8114C34.665 12.7121 34.5879 13.6079 34.5165 14.4989C34.4361 15.4808 34.1124 16.342 33.0242 16.342C25.8771 16.3452 18.7291 16.3452 11.5804 16.342Z" fill="black"/>
<path d="M35.7117 20.7471H8.6713C8.23839 20.7471 7.88745 21.0949 7.88745 21.5239V21.8423C7.88745 22.2713 8.23839 22.6191 8.6713 22.6191H35.7117C36.1446 22.6191 36.4955 22.2713 36.4955 21.8423V21.5239C36.4955 21.0949 36.1446 20.7471 35.7117 20.7471Z" fill="black"/>
<path d="M35.4803 28.5852H8.90243C8.41037 28.5852 8.01147 28.9805 8.01147 29.4682V29.8156C8.01147 30.3032 8.41037 30.6985 8.90243 30.6985H35.4803C35.9724 30.6985 36.3713 30.3032 36.3713 29.8156V29.4682C36.3713 28.9805 35.9724 28.5852 35.4803 28.5852Z" fill="black"/>
<path d="M35.6215 36.8574H8.76121C8.24898 36.8574 7.83374 37.2689 7.83374 37.7766V37.7959C7.83374 38.3035 8.24898 38.715 8.76121 38.715H35.6215C36.1337 38.715 36.5489 38.3035 36.5489 37.7959V37.7766C36.5489 37.2689 36.1337 36.8574 35.6215 36.8574Z" fill="black"/>
<path d="M35.685 44.9294H8.69815C8.21819 44.9294 7.8291 45.315 7.8291 45.7907V45.8775C7.8291 46.3532 8.21819 46.7388 8.69815 46.7388H35.685C36.1649 46.7388 36.554 46.3532 36.554 45.8775V45.7907C36.554 45.315 36.1649 44.9294 35.685 44.9294Z" fill="black"/>
<path d="M35.5217 52.9534H8.86103C8.29502 52.9534 7.83618 53.4081 7.83618 53.969V53.9883C7.83618 54.5492 8.29502 55.004 8.86103 55.004H35.5217C36.0877 55.004 36.5465 54.5492 36.5465 53.9883V53.969C36.5465 53.4081 36.0877 52.9534 35.5217 52.9534Z" fill="black"/>
</g>
<defs>
<clipPath id="clip0_836_11737">
<rect width="44.0611" height="62" fill="white" transform="translate(0.160889)"/>
</clipPath>
</defs>
</svg>
