<svg width="34" height="45" viewBox="0 0 34 45" fill="none" xmlns="http://www.w3.org/2000/svg">
<path d="M0.906912 45C0.650912 45 0.480245 44.936 0.394912 44.808C0.352245 44.6373 0.394912 44.4453 0.522912 44.232L13.9629 22.792C14.0482 22.664 14.0482 22.536 13.9629 22.408L0.522912 0.967999C0.437578 0.797331 0.394912 0.669332 0.394912 0.584C0.394912 0.327998 0.565578 0.199997 0.906912 0.199997H4.49091C4.78958 0.199997 5.04558 0.349331 5.25891 0.647999L16.6509 18.888C16.6936 18.9307 16.7576 18.952 16.8429 18.952C16.9282 18.952 16.9922 18.9307 17.0349 18.888L28.3629 0.647999C28.5762 0.349331 28.8322 0.199997 29.1309 0.199997H32.6509C32.9069 0.199997 33.0562 0.28533 33.0989 0.455997C33.1842 0.583998 33.1629 0.754665 33.0349 0.967999L19.6589 22.472C19.6162 22.6 19.6162 22.728 19.6589 22.856L33.0349 44.232C33.1202 44.4027 33.1629 44.5307 33.1629 44.616C33.1629 44.872 32.9922 45 32.6509 45H29.1309C28.8322 45 28.5762 44.8507 28.3629 44.552L17.0349 26.376C16.9922 26.2907 16.9282 26.248 16.8429 26.248C16.7576 26.248 16.6936 26.2907 16.6509 26.376L5.25891 44.552C5.04558 44.8507 4.78958 45 4.49091 45H0.906912Z" fill="black" fill-opacity="0.8"/>
</svg>
