<svg width="30" height="58" viewBox="0 0 30 58" fill="none" xmlns="http://www.w3.org/2000/svg">
<path d="M29.1877 40.736C29.1877 43.9787 28.1211 46.6453 25.9877 48.736C23.8971 50.8267 20.9531 52.064 17.1557 52.448C16.9851 52.448 16.8997 52.5333 16.8997 52.704L16.9637 57.312C16.9637 57.7387 16.7504 57.952 16.3237 57.952H13.5077C13.0811 57.952 12.8677 57.7387 12.8677 57.312L12.9317 52.704C12.9317 52.5333 12.8464 52.448 12.6757 52.448C8.79307 52.0213 5.76374 50.7627 3.58774 48.672C1.41174 46.5387 0.323738 43.8293 0.323738 40.544V38.56C0.323738 38.1333 0.537071 37.92 0.963738 37.92H3.84374C4.2704 37.92 4.48374 38.1333 4.48374 38.56V40.288C4.48374 42.7627 5.44374 44.768 7.36374 46.304C9.3264 47.7973 12.0144 48.544 15.4277 48.544C18.4997 48.544 20.8464 47.8613 22.4677 46.496C24.0891 45.088 24.8997 43.232 24.8997 40.928C24.8997 39.4347 24.5157 38.1547 23.7477 37.088C23.0224 36.0213 21.8917 35.0187 20.3557 34.08C18.8197 33.1413 16.6224 32.0533 13.7637 30.816C10.6917 29.536 8.32374 28.4267 6.65974 27.488C5.03841 26.5067 3.6944 25.2693 2.62774 23.776C1.60374 22.24 1.09174 20.32 1.09174 18.016C1.09174 14.7307 2.0944 12.128 4.09974 10.208C6.10507 8.24533 8.87841 7.09333 12.4197 6.752C12.5904 6.752 12.6757 6.66667 12.6757 6.496L12.6117 1.504C12.6117 1.07733 12.8251 0.863998 13.2517 0.863998H16.0037C16.4304 0.863998 16.6437 1.07733 16.6437 1.504L16.5797 6.56C16.5797 6.73066 16.6651 6.816 16.8357 6.816C20.5904 7.24266 23.5344 8.52266 25.6677 10.656C27.8011 12.7893 28.8677 15.52 28.8677 18.848V20.256C28.8677 20.6827 28.6544 20.896 28.2277 20.896H25.2197C24.7931 20.896 24.5797 20.6827 24.5797 20.256V19.104C24.5797 16.6293 23.6624 14.6027 21.8277 13.024C19.9931 11.4453 17.4544 10.656 14.2117 10.656C11.3531 10.656 9.15574 11.2747 7.61974 12.512C6.08374 13.7493 5.31574 15.5413 5.31574 17.888C5.31574 19.424 5.67841 20.704 6.40374 21.728C7.17174 22.7093 8.23841 23.584 9.60374 24.352C11.0117 25.0773 13.1664 26.0373 16.0677 27.232C19.0117 28.512 21.3797 29.7067 23.1717 30.816C25.0064 31.9253 26.4571 33.2907 27.5237 34.912C28.6331 36.4907 29.1877 38.432 29.1877 40.736Z" fill="black"/>
</svg>
