<svg width="63" height="69" viewBox="0 0 63 69" fill="none" xmlns="http://www.w3.org/2000/svg">
<g filter="url(#filter0_d_836_11712)">
<path d="M48.6096 25.6C52.0744 26.14 53.226 28.37 53.236 31.81C53.2427 39.2833 53.2427 46.7567 53.236 54.23C53.226 57.39 51.8041 59.98 48.4294 59.98C36.9334 60 25.4308 60.01 13.9215 60.01C10.8773 60.01 9.70566 56.78 9.69565 53.97C9.66895 46.6633 9.66227 39.3533 9.67562 32.04C9.68564 28.34 10.8472 26.16 14.4923 25.48C14.8795 25.4067 15.0598 25.1767 15.0331 24.79C14.5524 17.58 14.993 10.96 20.2303 6.22999C27.5604 -0.380007 38.6859 0.619993 44.6341 8.43999C48.5696 13.61 47.7584 18.75 47.9988 24.92C48.0188 25.3133 48.2224 25.54 48.6096 25.6ZM18.9585 25.5H43.9532C44.0408 25.5 44.1249 25.4652 44.1868 25.4033C44.2488 25.3414 44.2836 25.2575 44.2836 25.17V18.47C44.2836 15.0301 42.9458 11.7312 40.5646 9.29882C38.1833 6.86647 34.9536 5.49999 31.586 5.49999H31.3256C27.958 5.49999 24.7283 6.86647 22.3471 9.29882C19.9658 11.7312 18.628 15.0301 18.628 18.47V25.17C18.628 25.2575 18.6629 25.3414 18.7248 25.4033C18.7868 25.4652 18.8709 25.5 18.9585 25.5ZM49.7412 31.02C49.7412 30.4922 49.5312 29.986 49.1575 29.6129C48.7838 29.2397 48.2769 29.03 47.7484 29.03H15.1833C14.6547 29.03 14.1479 29.2397 13.7742 29.6129C13.4004 29.986 13.1905 30.4922 13.1905 31.02V54.52C13.1905 55.0478 13.4004 55.5539 13.7742 55.9271C14.1479 56.3003 14.6547 56.51 15.1833 56.51H47.7484C48.2769 56.51 48.7838 56.3003 49.1575 55.9271C49.5312 55.5539 49.7412 55.0478 49.7412 54.52V31.02Z" fill="black"/>
<path d="M29.1426 44.96C24.5863 42.89 25.1671 36.8 29.2828 35.08C35.5415 32.45 40.3381 41.39 33.8992 44.98C33.6388 45.1266 33.4986 45.3466 33.4786 45.64L33.2182 50.01C33.1915 50.39 33.0046 50.65 32.6575 50.79C28.8021 52.29 29.443 47.75 29.6433 45.83C29.6833 45.4166 29.5164 45.1266 29.1426 44.96ZM33.2683 40.08C33.2683 39.5999 33.0774 39.1396 32.7374 38.8001C32.3975 38.4607 31.9365 38.27 31.4558 38.27C30.9751 38.27 30.5141 38.4607 30.1742 38.8001C29.8343 39.1396 29.6433 39.5999 29.6433 40.08C29.6433 40.56 29.8343 41.0204 30.1742 41.3598C30.5141 41.6993 30.9751 41.89 31.4558 41.89C31.9365 41.89 32.3975 41.6993 32.7374 41.3598C33.0774 41.0204 33.2683 40.56 33.2683 40.08Z" fill="black"/>
</g>
<defs>
<filter id="filter0_d_836_11712" x="-3.5874" y="0" width="70.0859" height="70" filterUnits="userSpaceOnUse" color-interpolation-filters="sRGB">
<feFlood flood-opacity="0" result="BackgroundImageFix"/>
<feColorMatrix in="SourceAlpha" type="matrix" values="0 0 0 0 0 0 0 0 0 0 0 0 0 0 0 0 0 0 127 0" result="hardAlpha"/>
<feOffset dy="4"/>
<feGaussianBlur stdDeviation="2"/>
<feComposite in2="hardAlpha" operator="out"/>
<feColorMatrix type="matrix" values="0 0 0 0 0 0 0 0 0 0 0 0 0 0 0 0 0 0 0.25 0"/>
<feBlend mode="normal" in2="BackgroundImageFix" result="effect1_dropShadow_836_11712"/>
<feBlend mode="normal" in="SourceGraphic" in2="effect1_dropShadow_836_11712" result="shape"/>
</filter>
</defs>
</svg>
