<svg width="45" height="57" viewBox="0 0 45 57" fill="none" xmlns="http://www.w3.org/2000/svg">
<path d="M31.0941 39.096C31.0971 39.097 31.1002 39.0974 31.1033 39.0971C31.1064 39.0968 31.1095 39.0958 31.1122 39.0942C31.115 39.0926 31.1174 39.0905 31.1194 39.0879C31.1214 39.0853 31.1228 39.0823 31.1236 39.0791C32.3976 33.8968 33.6758 28.7231 34.9583 23.558C35.1803 22.6637 35.3824 22.0365 35.5645 21.6764C37.5393 17.7763 43.5345 18.5646 44.5985 22.7269C44.8009 23.5166 44.796 24.3569 44.5838 25.2479C42.3345 34.6905 40.084 44.133 37.8321 53.5756C37.7771 53.8059 37.6542 54.0958 37.4636 54.4454C36.5617 56.0975 34.9396 57.021 33.0906 56.9991C32.7408 56.9945 32.3016 56.924 31.773 56.7876C22.7937 54.4695 13.8143 52.1524 4.83499 49.8363C4.05685 49.635 3.48602 49.4394 3.1225 49.2495C-1.46575 46.8446 0.632859 39.6004 5.78015 40.0055C6.39028 40.0532 7.08392 40.2487 7.72156 40.4106C12.6956 41.6775 17.6611 42.9342 22.6181 44.1807C22.63 44.1838 22.6425 44.1832 22.654 44.1791C22.6656 44.175 22.6757 44.1676 22.6831 44.1577C22.6904 44.1478 22.6947 44.136 22.6954 44.1236C22.6961 44.1113 22.6931 44.099 22.6869 44.0883C15.742 32.4084 8.80918 20.7437 1.88849 9.09428C0.860798 7.36464 0.260493 5.95372 0.985574 3.98478C2.21959 0.633715 6.49049 -0.346285 8.98898 2.22138C9.27521 2.51594 9.63742 3.03192 10.0756 3.76932C17.0553 15.5167 24.0303 27.2671 31.0008 39.0205C31.0231 39.0583 31.0542 39.0834 31.0941 39.096ZM31.0912 41.7907C30.3376 41.7351 29.7029 41.1394 29.3227 40.5C22.2527 28.6016 15.1816 16.7039 8.10964 4.80691C7.76839 4.23301 7.48183 3.84544 7.24996 3.64421C5.92851 2.49641 3.82498 2.97499 3.12741 4.57953C2.55167 5.90407 3.07338 6.7401 3.84169 8.03286C10.8292 19.7975 17.8131 31.5641 24.7934 43.3327C25.9291 45.248 24.6087 46.9856 22.5562 46.4683C17.4126 45.1709 12.2692 43.8732 7.12617 42.5751C6.47052 42.409 6.03887 42.3071 5.83124 42.2693C3.04488 41.755 1.7028 45.7147 3.90751 47.1276C4.17213 47.2971 4.63063 47.4662 5.28301 47.635C14.3763 49.9849 23.4703 52.3321 32.5649 54.6767C33.7537 54.9835 34.9917 54.4285 35.5271 53.3581C35.6228 53.1681 35.7957 52.5479 36.0459 51.4974C38.1694 42.5811 40.2899 33.6645 42.4076 24.7475C43.2623 21.1482 38.1082 20.058 37.3182 23.267C35.963 28.7684 34.6026 34.2675 33.2369 39.7642C32.9668 40.8505 32.3684 41.8851 31.0912 41.7907Z" fill="black"/>
</svg>
