<svg width="89" height="88" viewBox="0 0 89 88" fill="none" xmlns="http://www.w3.org/2000/svg">
<path d="M58.1146 62.8768C58.1105 62.8669 58.1043 62.858 58.0966 62.8507C58.0888 62.8434 58.0796 62.8378 58.0695 62.8342C58.0594 62.8307 58.0487 62.8293 58.038 62.8302C58.0274 62.8311 58.0171 62.8342 58.0077 62.8393C53.9757 65.0012 49.9455 67.164 45.9173 69.3274C45.768 69.4084 45.7342 69.5121 45.8161 69.6386C45.8351 69.6688 45.8472 69.7014 45.8525 69.7362C46.3267 72.9133 41.9774 73.5276 41.4066 70.6117C41.3827 70.489 41.4214 70.1836 41.2815 70.1132C37.3276 68.1337 33.3801 66.142 29.439 64.1383C29.4019 64.1194 29.3647 64.1182 29.3276 64.1349C29.09 64.2393 28.8603 64.4062 28.6283 64.463C27.6224 64.7098 26.7559 64.4645 26.029 63.7272C26.0065 63.7041 25.9762 63.6902 25.9439 63.6881C25.9116 63.686 25.8795 63.6959 25.8539 63.7159L16.4754 71.0318C16.4383 71.0613 16.4064 71.056 16.3799 71.0159L16.1695 70.6968C16.1422 70.656 16.1479 70.6204 16.1866 70.5901L25.5366 63.2799C25.5569 63.2643 25.5714 63.2425 25.578 63.2179C25.5846 63.1933 25.5828 63.1671 25.573 63.1436C25.0227 61.8257 25.2725 60.7163 26.3223 59.8155C26.3446 59.7962 26.36 59.7702 26.3662 59.7415C26.3724 59.7128 26.3689 59.683 26.3565 59.6565C24.1445 54.8549 21.928 50.059 19.7069 45.2688C19.6603 45.1677 19.6046 45.0815 19.4954 45.0326C17.7353 44.248 17.4146 42.0145 18.7586 40.6917C19.3582 40.102 20.1379 39.848 21.0975 39.9298C21.1203 39.9317 21.1431 39.9267 21.163 39.9154C21.1829 39.904 21.1989 39.8869 21.209 39.8662L27.0171 27.6495C27.0354 27.6113 27.0424 27.5686 27.0371 27.5265C27.0319 27.4844 27.0147 27.4448 26.9875 27.4122C25.639 25.7737 27.4139 23.6253 29.3628 24.5065C29.4011 24.5238 29.4427 24.5322 29.4845 24.531C29.5263 24.5299 29.5671 24.5191 29.6039 24.4997L41.684 18.2091C41.7227 18.1894 41.7488 18.1588 41.7625 18.1171C41.8489 17.8548 41.8728 17.5414 41.9751 17.3189C42.7938 15.543 45.301 15.5884 46.1675 17.2871C46.2319 17.4135 46.2884 17.4892 46.3369 17.5142C53.0266 20.9668 57.4536 23.2453 59.6178 24.3498C59.7178 24.4009 59.8543 24.3873 59.9737 24.3487C61.5348 23.8445 62.8163 25.1991 62.4229 26.7513C62.413 26.7884 62.4164 26.8244 62.4331 26.8592C64.144 30.4466 65.8564 34.0317 67.5704 37.6145C67.8319 38.1603 68.0786 38.7125 68.3106 39.2712C68.3258 39.3075 68.3511 39.334 68.3868 39.3507C68.5914 39.4449 68.8245 39.4994 69.0008 39.5937C71.1908 40.7632 70.8553 43.8426 68.6028 44.6625C68.5704 44.6743 68.5408 44.6926 68.5156 44.7162C68.4904 44.7398 68.4702 44.7683 68.4561 44.7999L62.0238 59.5112C62.0064 59.5521 62.0166 59.5839 62.0545 59.6066C63.3735 60.3787 63.6657 62.0501 62.9152 63.2855C62.8682 63.3635 62.8804 63.4305 62.9516 63.4865L72.0276 70.6219C72.0701 70.6552 72.0762 70.6942 72.0458 70.7388L71.8503 71.0307C71.8154 71.0829 71.7733 71.0897 71.7241 71.0511L62.5525 63.834C62.5192 63.8075 62.4866 63.8079 62.4547 63.8351C60.9913 65.0853 58.8741 64.6617 58.1146 62.8768ZM60.1419 28.0651C59.0989 27.8259 58.5823 27.1404 58.5921 26.0087C58.5929 25.9762 58.5785 25.9523 58.5489 25.9372L46.0822 19.4876C46.0481 19.4702 46.0136 19.4695 45.9787 19.4854C45.873 19.5319 45.7991 19.6795 45.7445 19.7363C45.5004 19.9944 45.2048 20.1799 44.8576 20.2927C44.8312 20.3013 44.8082 20.318 44.7918 20.3404C44.7755 20.3629 44.7667 20.3899 44.7666 20.4176L44.7882 36.697C44.7882 36.7409 44.8083 36.7708 44.8485 36.7867C45.702 37.135 46.28 37.7341 46.5825 38.5842C46.7917 39.1701 46.7098 39.714 46.5632 40.3669C46.5533 40.4086 46.5677 40.4392 46.6064 40.4589L54.1349 44.3411C54.1758 44.3623 54.2152 44.3608 54.2531 44.3366C54.4419 44.2162 54.6113 43.9823 54.7239 43.8881C56.0531 42.7719 57.8258 42.9456 58.9969 44.1765C59.0222 44.2029 59.0553 44.2205 59.0915 44.2264C59.1276 44.2324 59.1646 44.2264 59.197 44.2094C61.0489 43.2405 62.9133 42.2666 64.7902 41.2878C65.12 41.1152 65.1405 40.9403 65.3076 40.6258C65.4918 40.2806 65.8318 39.957 66.3276 39.655C66.3647 39.6315 66.3738 39.5997 66.3548 39.5596L60.8856 28.1105C60.8682 28.0742 60.8393 28.0552 60.7992 28.0537C60.5638 28.0458 60.3546 28.1139 60.1419 28.0651ZM30.343 26.3414C30.368 27.2226 29.7972 27.8959 28.9785 28.1309C28.9224 28.1476 28.8819 28.1824 28.8569 28.2354L22.9703 40.7053C22.9559 40.7362 22.949 40.7701 22.9502 40.804C22.9513 40.838 22.9606 40.8711 22.9771 40.9006C23.1238 41.1606 23.2489 41.3571 23.5297 41.5013C25.296 42.4104 27.0569 43.3131 28.8125 44.2094C28.8671 44.2374 28.916 44.2295 28.9592 44.1856C30.1 43.0304 31.4209 42.8131 32.9218 43.5338C32.9476 43.5459 32.9726 43.5455 32.9969 43.5327L40.8153 39.4665C40.8365 39.4557 40.8546 39.4397 40.868 39.4198C40.8813 39.3999 40.8894 39.3769 40.8915 39.3529C40.9923 38.1153 41.6128 37.2667 42.7529 36.8072C42.8499 36.7678 42.8984 36.6963 42.8984 36.5926C42.9007 31.2138 42.9303 25.8191 42.8893 20.4369C42.8859 20.002 42.5425 19.8851 42.1752 20.0747C38.244 22.114 34.3257 24.159 30.4203 26.2097C30.3962 26.2223 30.3761 26.2414 30.3624 26.2647C30.3487 26.288 30.342 26.3146 30.343 26.3414ZM34.217 45.1019C34.7229 46.9153 33.9247 48.4516 32.1691 49.0329C32.1472 49.0403 32.1282 49.0544 32.1147 49.0731C32.1013 49.0918 32.094 49.1143 32.0941 49.1374L32.0986 63.3287C32.0986 63.3495 32.1044 63.3699 32.1154 63.3877C32.1265 63.4056 32.1423 63.4201 32.1611 63.4297L42.0604 68.4054C42.0975 68.4239 42.1389 68.432 42.18 68.4288C42.2211 68.4256 42.2603 68.4112 42.2935 68.3873C42.9246 67.9342 43.3748 67.9864 44.1276 68.0035C44.2868 68.0065 44.4384 67.9702 44.5824 67.8945C48.3105 65.9202 52.0294 63.9259 55.7392 61.9116C55.7757 61.8916 55.8062 61.8622 55.8274 61.8265C55.8486 61.7907 55.8598 61.7499 55.8598 61.7083V49.1453C55.8599 49.1249 55.8534 49.1049 55.8414 49.0882C55.8293 49.0715 55.8123 49.0589 55.7927 49.0522C54.6981 48.6737 54.0174 47.9319 53.7505 46.8267C53.7153 46.6768 53.7505 46.4838 53.7028 46.3135C53.6914 46.2756 53.6687 46.2476 53.6345 46.2294L45.2521 41.8748C45.2373 41.8671 45.2208 41.8627 45.2038 41.8621C45.1869 41.8615 45.17 41.8647 45.1543 41.8714C43.8467 42.4498 42.7013 42.2439 41.7181 41.2537C41.695 41.2307 41.6652 41.2155 41.6329 41.2104C41.6007 41.2053 41.5676 41.2105 41.5385 41.2253L34.2556 45.0145C34.2192 45.0334 34.2063 45.0625 34.217 45.1019ZM66.3719 44.4774C65.8625 44.114 65.5532 43.7893 65.228 43.2579C65.2185 43.2424 65.2035 43.231 65.186 43.2262C65.1685 43.2213 65.1498 43.2233 65.1336 43.2317L59.8691 45.9944C59.8501 46.0044 59.8341 46.0192 59.8227 46.0373C59.8113 46.0555 59.805 46.0763 59.8042 46.0977C59.7648 47.4951 59.1046 48.4644 57.8235 49.0057C57.7909 49.0193 57.7674 49.0424 57.753 49.0749C57.6632 49.2771 57.7371 49.5144 57.7371 49.6768C57.734 53.5321 57.7348 57.4366 57.7393 61.3904C57.7392 61.4121 57.747 61.4331 57.7612 61.4495C57.7754 61.4659 57.795 61.4767 57.8165 61.4797C57.8381 61.4828 57.8599 61.4779 57.8781 61.4661C57.8964 61.4543 57.9097 61.4363 57.9156 61.4154C58.2203 60.3764 58.8468 59.6066 59.8827 59.2716C59.9691 59.2436 60.0309 59.1879 60.068 59.1047C62.2042 54.2834 64.3222 49.4671 66.4219 44.6556C66.4354 44.6249 66.4377 44.5904 66.4286 44.5579C66.4195 44.5255 66.3995 44.497 66.3719 44.4774ZM28.3702 59.3125C29.1343 59.4976 29.5573 59.6213 30.0667 60.2209C30.0754 60.231 30.087 60.2383 30.1 60.2417C30.1129 60.2451 30.1266 60.2444 30.1392 60.2399C30.1518 60.2353 30.1627 60.227 30.1705 60.2161C30.1782 60.2052 30.1825 60.1922 30.1827 60.1788L30.194 49.1488C30.194 49.1099 30.1827 49.0719 30.1615 49.0394C30.1403 49.0069 30.1101 48.9814 30.0746 48.9659C28.9209 48.4694 28.2955 47.5909 28.1985 46.3305C28.1871 46.1931 28.2156 46.0568 28.0655 45.9785C26.5191 45.1783 24.9711 44.3752 23.4217 43.569C23.4073 43.5614 23.3914 43.5568 23.3751 43.5556C23.3588 43.5543 23.3424 43.5564 23.3268 43.5617C23.3113 43.567 23.297 43.5754 23.2848 43.5864C23.2725 43.5975 23.2626 43.6108 23.2557 43.6258C22.9601 44.276 22.4867 44.7472 21.8355 45.0394C21.8227 45.0451 21.8112 45.0531 21.8016 45.0633C21.792 45.0734 21.7845 45.0853 21.7796 45.0984C21.7746 45.1115 21.7723 45.1255 21.7727 45.1395C21.7731 45.1536 21.7763 45.1674 21.7821 45.1802L28.2804 59.2375C28.2986 59.2769 28.3285 59.3019 28.3702 59.3125Z" fill="black"/>
</svg>
