<svg width="252" height="51" viewBox="0 0 252 51" fill="none" xmlns="http://www.w3.org/2000/svg">
<path opacity="0.976" fill-rule="evenodd" clip-rule="evenodd" d="M22.3829 0.00702739C23.2459 -0.0399934 24.0535 0.148951 24.8058 0.573861C31.0361 4.17982 37.2664 7.78577 43.4967 11.3917C44.5974 12.1219 45.2031 13.1499 45.3139 14.4757C45.3267 21.8349 45.3267 29.1941 45.3139 36.5534C45.2114 37.8778 44.6056 38.8993 43.4967 39.6181C38.4492 42.5145 33.4111 45.4255 28.3825 48.3512C28.3436 48.3408 28.3051 48.3504 28.2671 48.38C26.9497 49.1503 25.6229 49.9062 24.2866 50.6473C23.0707 51.1642 21.8785 51.1129 20.71 50.4936C17.2551 48.5016 13.8002 46.5098 10.3454 44.5178C10.208 44.4811 10.0798 44.4235 9.96078 44.3449C7.28127 42.7628 4.58917 41.1999 1.88447 39.6565C0.770897 38.9394 0.145945 37.9178 0.00961513 36.5918C-0.00320504 29.1941 -0.00320504 21.7965 0.00961513 14.3988C0.134113 13.0699 0.759066 12.0547 1.88447 11.3533C8.16278 7.7458 14.4379 4.13344 20.71 0.516217C21.2376 0.239002 21.7953 0.0692734 22.3829 0.00702739ZM22.4983 3.19666C22.6075 3.19348 22.7163 3.19668 22.8252 3.20627C29.158 6.85706 35.4909 10.5079 41.8237 14.1586C41.9453 14.2768 42.0126 14.4209 42.0256 14.591C42.0449 21.8931 42.0383 29.1947 42.0064 36.4957C41.9678 36.6531 41.8878 36.7843 41.766 36.8896C40.8238 37.4309 39.8816 37.972 38.9393 38.5133C38.928 38.5092 38.9184 38.5029 38.9105 38.494C36.4107 31.6152 33.9109 24.7363 31.4111 17.8575C31.2318 17.6183 31.0171 17.5831 30.7669 17.7518C30.7009 17.8102 30.6463 17.8775 30.6034 17.9535C29.7637 20.2658 28.9239 22.5781 28.0844 24.89C28.0715 24.9606 28.0715 25.0309 28.0844 25.1014C30.0441 30.5209 32.0151 35.9364 33.9974 41.3474C33.4 41.7073 32.7973 42.0597 32.1899 42.4042C32.1716 42.4161 32.1556 42.4129 32.1418 42.3946C30.5275 37.9906 28.9057 33.5905 27.2768 29.1941C27.1016 29.035 26.9126 29.0189 26.7095 29.1461C26.6341 29.2085 26.5732 29.2821 26.5268 29.3671C25.7038 31.6359 24.8769 33.9033 24.0462 36.1691C23.9822 36.3357 23.9822 36.5021 24.0462 36.6686C25.105 39.5095 26.1563 42.3533 27.1998 45.2C27.2148 45.2276 27.2116 45.2534 27.1902 45.2768C25.7352 46.119 24.2803 46.9614 22.8252 47.8036C22.7162 47.8164 22.6073 47.8164 22.4983 47.8036C21.0657 46.9693 19.6298 46.1398 18.1909 45.3153C18.1701 45.2987 18.1669 45.2795 18.1813 45.2576C22.0349 34.718 25.8807 24.1754 29.7189 13.6302C29.7606 13.3967 29.6804 13.2205 29.4785 13.1018C29.4172 13.0848 29.3564 13.0687 29.2958 13.0538C29.2895 13.0835 29.2991 13.1091 29.3247 13.1307C27.6835 13.1407 26.0424 13.1567 24.402 13.1787C24.1228 13.2338 23.9145 13.3843 23.777 13.6302C20.2581 23.241 16.7487 32.8547 13.249 42.4715C13.2064 42.4755 13.1744 42.4596 13.1528 42.4234C16.6494 32.8513 20.146 23.2793 23.6424 13.7071C23.7932 13.3964 24.0336 13.1882 24.3635 13.0826C25.9909 13.0573 27.619 13.0444 29.2478 13.0442C29.2776 13.0078 29.313 12.979 29.3535 12.9577C29.5602 13.0297 29.7141 13.1642 29.815 13.3612C29.8377 13.4371 29.8443 13.514 29.8343 13.5918C25.9909 24.1491 22.142 34.7043 18.2871 45.2576C19.662 46.0502 21.0336 46.8476 22.4021 47.6498C22.5752 47.7396 22.7483 47.7396 22.9213 47.6498C24.2516 46.8603 25.5911 46.0854 26.9403 45.3249C26.9991 45.2957 27.0502 45.2572 27.0941 45.2096C26.0499 42.3675 25.0019 39.527 23.9501 36.6879C23.8726 36.5236 23.8661 36.357 23.9309 36.1883C24.7568 33.9423 25.5771 31.6942 26.3922 29.4439C26.4753 29.2839 26.5874 29.1463 26.7287 29.0308C26.8641 28.9588 27.0051 28.9459 27.1518 28.9924C27.2787 29.0806 27.3779 29.1928 27.4498 29.3286C29.032 33.6491 30.6217 37.966 32.2187 42.2793C32.7715 41.9598 33.3261 41.6427 33.882 41.3282C31.9304 35.9773 29.9787 30.626 28.0267 25.2743C27.9513 25.1099 27.945 24.9435 28.0075 24.7748C28.8445 22.5024 29.6777 20.2288 30.5073 17.9535C30.6011 17.8084 30.7261 17.6835 30.8823 17.5789C31.1144 17.4975 31.3036 17.5584 31.4495 17.7614C31.4864 17.8159 31.5186 17.8736 31.5457 17.9343C34.0161 24.7442 36.4903 31.5525 38.9682 38.3595C38.9972 38.3793 39.0261 38.3763 39.0547 38.3499C39.9585 37.8279 40.8623 37.306 41.766 36.7839C41.8347 36.685 41.8828 36.5762 41.9103 36.4573C41.9231 29.1428 41.9231 21.8286 41.9103 14.5141C41.8933 14.425 41.8612 14.3418 41.8141 14.2643C35.5117 10.6368 29.2141 7.00206 22.9213 3.35999C22.7483 3.27031 22.5752 3.27031 22.4021 3.35999C16.1397 6.98205 9.87092 10.5944 3.59588 14.1971C3.50966 14.27 3.45518 14.3628 3.43243 14.4757C3.41334 14.5514 3.40051 14.6283 3.39397 14.7063C3.37486 21.9698 3.38126 29.2329 3.4132 36.4957C3.42416 36.6319 3.48506 36.7376 3.59588 36.8128C4.52039 37.3339 5.44018 37.8623 6.35529 38.398C9.38428 30.1314 12.4097 21.8626 15.4315 13.5918C15.6109 13.3101 15.8641 13.134 16.1911 13.0634C17.8384 13.0506 19.4856 13.0506 21.133 13.0634C21.1801 13.0773 21.2249 13.0965 21.2676 13.121C21.3478 13.2011 21.4278 13.2812 21.508 13.3612C21.5797 13.5031 21.5926 13.6504 21.5464 13.8032C18.1806 22.9899 14.8187 32.1776 11.4607 41.3666C11.5216 41.4479 11.5088 41.4735 11.4222 41.4435C11.3563 41.3918 11.3467 41.3309 11.3934 41.261C14.7329 32.134 18.0723 23.007 21.4118 13.88C21.5455 13.5502 21.4526 13.31 21.133 13.1595C19.5241 13.1467 17.9153 13.1467 16.3064 13.1595C15.9495 13.1791 15.6835 13.3424 15.5084 13.6495C12.483 21.9373 9.45761 30.2254 6.4322 38.5133C6.4184 38.5315 6.40238 38.5348 6.38413 38.5229C5.43222 37.9672 4.47716 37.4163 3.51896 36.8704C3.38734 36.7643 3.31363 36.6266 3.29783 36.4573C3.285 29.1686 3.285 21.8797 3.29783 14.591C3.32327 14.3702 3.42903 14.2005 3.61511 14.0818C9.92013 10.4675 16.2145 6.83908 22.4983 3.19666ZM40.3046 37.5525C40.02 37.7253 39.7283 37.8918 39.4297 38.0521C39.3397 38.0277 39.2853 38.0629 39.2662 38.1578C39.1822 38.2131 39.0924 38.2548 38.997 38.2827C36.5266 31.4667 34.0526 24.6518 31.5745 17.8383C31.6068 17.8251 31.6195 17.7995 31.613 17.7614C31.5803 17.7645 31.5482 17.7613 31.5168 17.7518C31.2668 17.4264 30.9849 17.3943 30.6707 17.6557C30.5948 17.7468 30.5209 17.8397 30.4496 17.9343C30.3496 18.1731 30.2631 18.4165 30.19 18.6645C30.0952 18.6612 30.0504 18.706 30.0554 18.799C30.0817 18.796 30.1075 18.7992 30.1323 18.8086C30.0266 19.0711 29.9304 19.3368 29.8439 19.606C29.7466 19.617 29.7273 19.6619 29.7862 19.7405C29.6145 20.218 29.4414 20.6855 29.267 21.1432C29.1735 21.1203 29.1285 21.1587 29.1324 21.2585C29.1668 21.2529 29.1987 21.2594 29.2285 21.2777C29.1276 21.5304 29.038 21.7867 28.9593 22.0463C28.8645 22.043 28.8197 22.0878 28.8247 22.1808C28.8511 22.1777 28.8768 22.181 28.9016 22.1904C28.7959 22.4529 28.6997 22.7186 28.6132 22.9878C28.5159 22.9987 28.4967 23.0437 28.5555 23.1223C28.3838 23.5998 28.2107 24.0673 28.0363 24.525C27.9429 24.5021 27.8979 24.5405 27.9017 24.6403C27.9361 24.6347 27.9681 24.6412 27.9979 24.6595C27.9092 24.8241 27.8867 24.9971 27.9306 25.1783C28.2669 26.0716 28.5874 26.9681 28.892 27.8683C28.8861 27.8528 28.8765 27.8401 28.8632 27.8299C28.8453 27.8528 28.839 27.8783 28.844 27.9067C28.8761 27.9067 28.908 27.9067 28.9401 27.9067C29.3291 29.0141 29.7264 30.1189 30.1323 31.2213C30.129 31.2309 30.126 31.2405 30.1227 31.2501C30.1167 31.2345 30.1071 31.2219 30.0939 31.2117C30.076 31.2345 30.0696 31.2601 30.0746 31.2885C30.1067 31.2885 30.1387 31.2885 30.1708 31.2885C30.5598 32.3959 30.9571 33.5007 31.363 34.6031C31.3597 34.6127 31.3566 34.6223 31.3534 34.6319C31.3474 34.6163 31.3378 34.6036 31.3245 34.5935C31.3067 34.6163 31.3003 34.6419 31.3053 34.6703C31.3374 34.6703 31.3693 34.6703 31.4015 34.6703C31.7905 35.7777 32.1877 36.8825 32.5937 37.9849C32.5904 37.9945 32.5873 38.0041 32.5841 38.0137C32.5781 37.9981 32.5685 37.9854 32.5552 37.9752C32.5373 37.9981 32.531 38.0237 32.536 38.0521C32.5681 38.0521 32.6 38.0521 32.6321 38.0521C33.0109 39.1268 33.3955 40.1995 33.7859 41.2706C33.7803 41.3069 33.7611 41.3324 33.7282 41.3474C33.6738 41.3714 33.6224 41.4003 33.5744 41.4339C33.4984 41.4128 33.4473 41.4416 33.4205 41.5204C33.2827 41.6053 33.1417 41.6854 32.9975 41.7605C32.8823 41.7046 32.8183 41.743 32.8052 41.8758C32.6171 41.989 32.4248 42.0914 32.2283 42.1833C30.6605 37.8905 29.0868 33.5993 27.5075 29.3094C27.3689 28.9824 27.1285 28.8575 26.7864 28.9347C26.6866 28.9766 26.6034 29.0408 26.5364 29.1269C26.4937 29.12 26.4522 29.123 26.4114 29.1365C26.3724 29.1642 26.3563 29.2026 26.3634 29.2518C26.3836 29.2489 26.4028 29.2522 26.4211 29.2614C26.3105 29.5094 26.2111 29.7625 26.123 30.0204C26.043 30.2277 25.9661 30.4391 25.8923 30.6544C25.8507 30.6502 25.809 30.6631 25.7673 30.6929C25.7517 30.723 25.7453 30.7551 25.748 30.789C25.7807 30.7859 25.8128 30.7891 25.8442 30.7986C25.7473 31.0606 25.6446 31.32 25.5365 31.5768C25.4621 31.591 25.43 31.6359 25.4404 31.7113C25.4631 31.707 25.4823 31.7134 25.4981 31.7305C25.2217 32.4839 24.9429 33.2525 24.6616 34.0362C24.62 34.032 24.5783 34.0449 24.5366 34.0747C24.521 34.1048 24.5147 34.1369 24.5174 34.1707C24.5501 34.1677 24.5822 34.1709 24.6135 34.1803C24.5166 34.4424 24.4139 34.7018 24.3058 34.9585C24.2314 34.9728 24.1993 35.0177 24.2097 35.093C24.2324 35.0888 24.2516 35.0952 24.2674 35.1123C24.1691 35.3665 24.076 35.6226 23.9886 35.8808C23.902 35.91 23.8861 35.9581 23.9405 36.025C23.8099 36.2442 23.794 36.4715 23.8924 36.7071C24.1391 37.344 24.3699 37.9845 24.5847 38.6285C24.5787 38.613 24.5691 38.6003 24.5558 38.5901C24.5379 38.613 24.5316 38.6385 24.5366 38.667C24.5687 38.667 24.6006 38.667 24.6327 38.667C25.0366 39.7814 25.4404 40.8959 25.8442 42.0103C26.1632 42.8225 26.4613 43.6424 26.7383 44.4698C26.7324 44.4542 26.7228 44.4416 26.7095 44.4314C26.6916 44.4542 26.6853 44.4798 26.6903 44.5082C26.7224 44.5082 26.7543 44.5082 26.7864 44.5082C26.8549 44.7317 26.9318 44.9527 27.0172 45.1711C27.0122 45.1954 26.9993 45.2146 26.9787 45.2288C26.8201 45.3193 26.663 45.4121 26.5076 45.5074C26.5236 45.4284 26.4916 45.4029 26.4114 45.4305C26.3557 45.4701 26.3524 45.5116 26.4018 45.5554C25.9317 45.8281 25.4702 46.0971 25.0173 46.3625C24.9835 46.3651 24.9516 46.3555 24.9212 46.3336C24.8485 46.3538 24.81 46.4018 24.8058 46.4777C24.6541 46.5696 24.5002 46.6561 24.3443 46.7371C24.356 46.6405 24.3176 46.6213 24.2289 46.6795C24.2133 46.7097 24.207 46.7417 24.2097 46.7756C24.2299 46.7727 24.2491 46.776 24.2674 46.7852C23.777 47.0678 23.2963 47.3464 22.8252 47.621C22.8196 47.5899 22.8004 47.5707 22.7675 47.5634C22.716 47.5743 22.6648 47.5872 22.6137 47.6018C22.6596 47.627 22.6596 47.6462 22.6137 47.6594C22.5752 47.6498 22.5367 47.6402 22.4983 47.6306C22.3623 47.5397 22.2212 47.4563 22.0752 47.3808C22.0685 47.3495 22.0685 47.3143 22.0752 47.2752C22.0468 47.2702 22.0212 47.2765 21.9983 47.2944C22.0235 47.309 22.0331 47.3282 22.0272 47.352C21.3205 46.9429 20.6121 46.5362 19.9023 46.1319C19.9193 46.1057 19.9256 46.0769 19.9216 46.0454C19.8835 46.0389 19.8577 46.0516 19.8446 46.0838C19.3649 45.8121 18.8842 45.5399 18.4024 45.2672C18.386 45.254 18.3732 45.238 18.364 45.2192C22.1893 34.7479 26.0128 24.2759 29.8343 13.8032C29.9698 13.4303 29.8641 13.1453 29.517 12.9481C29.4031 12.8741 29.3005 12.887 29.2093 12.9865C27.5869 12.9868 25.9653 12.9996 24.3443 13.025C24.2416 13.0587 24.1422 13.1003 24.0462 13.1499C23.9505 13.1241 23.8991 13.1626 23.8924 13.2652C23.818 13.3622 23.7251 13.4326 23.6136 13.4765C23.5824 13.5195 23.5888 13.5548 23.6328 13.5822C23.4559 14.0592 23.2796 14.53 23.104 14.9945C23.0152 14.9751 22.9734 15.0136 22.979 15.1098C23.0046 15.1098 23.0304 15.1098 23.0559 15.1098C22.979 15.3625 22.8925 15.6123 22.7963 15.8591C22.7702 15.8963 22.7348 15.922 22.6906 15.936C22.675 15.9662 22.6687 15.9982 22.6713 16.0321C22.694 16.0279 22.7133 16.0343 22.729 16.0513C22.4427 16.8229 22.1575 17.5979 21.8733 18.3763C21.7845 18.3569 21.7428 18.3953 21.7483 18.4916C21.7768 18.4865 21.8024 18.4929 21.8253 18.5108C21.727 18.7649 21.6339 19.0211 21.5464 19.2794C21.4653 19.2878 21.4299 19.3328 21.4407 19.4139C21.4609 19.411 21.4801 19.4142 21.4984 19.4235C21.3926 19.6859 21.2965 19.9517 21.2099 20.2209C21.1361 20.2391 21.1168 20.2839 21.1522 20.3554C21.0945 20.5091 21.0369 20.6628 20.9792 20.8165C20.9334 20.8096 20.8884 20.8225 20.8446 20.855C20.829 20.8851 20.8226 20.9172 20.8253 20.951C20.8574 20.951 20.8894 20.951 20.9215 20.951C20.8371 21.2008 20.7505 21.4506 20.6619 21.7004C20.6267 21.7348 20.585 21.7604 20.5369 21.7773C20.5213 21.8074 20.515 21.8395 20.5177 21.8733C20.5461 21.8683 20.5717 21.8747 20.5946 21.8926C20.4998 22.1416 20.4069 22.3914 20.3158 22.6419C20.2836 22.6675 20.2517 22.6932 20.2196 22.7188C20.2088 22.7584 20.2185 22.7937 20.2485 22.8245C20.0748 23.2979 19.9018 23.7623 19.7293 24.2175C19.6358 24.1947 19.5908 24.2331 19.5947 24.3328C19.6291 24.3272 19.661 24.3338 19.6908 24.352C19.5899 24.6047 19.5002 24.861 19.4216 25.1206C19.3268 25.1174 19.282 25.1621 19.287 25.2551C19.3133 25.252 19.3391 25.2553 19.3639 25.2647C19.2581 25.5272 19.162 25.7929 19.0755 26.0621C18.9781 26.0731 18.9589 26.1181 19.0178 26.1966C18.8504 26.6511 18.6869 27.0993 18.5274 27.5417C18.5177 27.5878 18.4952 27.6007 18.4601 27.5801C18.3857 27.5943 18.3536 27.6393 18.364 27.7146C18.3967 27.7115 18.4287 27.7148 18.4601 27.7242C18.3673 27.9769 18.2743 28.2299 18.1813 28.4832C18.1471 28.5041 18.1118 28.5233 18.0755 28.5408C18.06 28.571 18.0536 28.6031 18.0563 28.6369C18.0755 28.6369 18.0948 28.6369 18.114 28.6369C18.027 28.9009 17.934 29.1636 17.8352 29.4247C17.7487 29.4539 17.7326 29.502 17.7871 29.5688C17.614 30.0432 17.4377 30.514 17.2583 30.9811C17.1694 30.9617 17.1277 31.0001 17.1333 31.0964C17.166 31.0933 17.198 31.0966 17.2295 31.106C17.1328 31.3508 17.0399 31.5973 16.9506 31.8458C16.9244 31.883 16.8892 31.9086 16.8449 31.9226C16.8293 31.9528 16.8229 31.9849 16.8256 32.0187C16.8482 32.0145 16.8675 32.0208 16.8833 32.0379C16.5989 32.803 16.3137 33.5782 16.0276 34.3629C15.9387 34.3435 15.8971 34.3819 15.9026 34.4782C15.9283 34.4782 15.9539 34.4782 15.9796 34.4782C15.8957 34.7326 15.806 34.9856 15.7103 35.2372C15.685 35.2681 15.653 35.2906 15.6142 35.3044C15.5986 35.3346 15.5922 35.3667 15.595 35.4005C15.6152 35.3976 15.6344 35.4009 15.6527 35.4101C15.5469 35.6726 15.4508 35.9383 15.3642 36.2075C15.2905 36.2257 15.2712 36.2705 15.3065 36.342C15.2488 36.4957 15.1911 36.6494 15.1335 36.8031C15.0877 36.7962 15.0428 36.8091 14.9989 36.8416C14.9833 36.8717 14.9769 36.9038 14.9796 36.9376C15.0232 36.9446 15.0584 36.9317 15.0854 36.8992C15.0014 37.183 14.9052 37.4649 14.7969 37.7447C14.708 37.7253 14.6664 37.7637 14.672 37.86C14.7004 37.855 14.726 37.8613 14.7489 37.8792C14.654 38.1282 14.5611 38.378 14.47 38.6285C14.438 38.6541 14.406 38.6798 14.3739 38.7054C14.3631 38.745 14.3727 38.7803 14.4027 38.8111C14.2367 39.2874 14.0636 39.7516 13.8836 40.2041C13.79 40.1813 13.7451 40.2197 13.749 40.3194C13.781 40.3194 13.813 40.3194 13.8451 40.3194C13.7554 40.5821 13.6656 40.8446 13.5759 41.1072C13.4812 41.104 13.4363 41.1487 13.4413 41.2417C13.4677 41.2387 13.4933 41.2419 13.5182 41.2513C13.4125 41.5138 13.3163 41.7796 13.2298 42.0488C13.1324 42.0597 13.1132 42.1047 13.1721 42.1833C13.1507 42.2607 13.1187 42.331 13.0759 42.3946C12.5696 42.1031 12.0632 41.8118 11.5568 41.5204C11.5548 41.4566 11.5516 41.3893 11.5472 41.3186C14.8942 32.1511 18.2465 22.9857 21.6041 13.8224C21.6605 13.6301 21.6347 13.4508 21.5272 13.2844C21.4289 13.1539 21.304 13.061 21.1522 13.0058C19.4922 12.9929 17.832 12.9929 16.1718 13.0058C16.024 13.0284 15.8894 13.0829 15.768 13.1691C15.6858 13.1153 15.6281 13.1346 15.595 13.2267C15.597 13.2448 15.6034 13.2608 15.6142 13.2748C15.5558 13.3267 15.5045 13.3843 15.4604 13.4477C15.4335 13.4591 15.4078 13.4559 15.3834 13.4381C15.309 13.4524 15.2769 13.4972 15.2873 13.5726C15.3157 13.5676 15.3413 13.574 15.3642 13.5918C15.2718 13.8374 15.1821 14.084 15.095 14.3316C15.0697 14.3626 15.0376 14.385 14.9989 14.3988C14.9833 14.429 14.9769 14.461 14.9796 14.4949C14.9999 14.492 15.0191 14.4952 15.0373 14.5045C14.9316 14.767 14.8354 15.0328 14.7489 15.3019C14.6751 15.3201 14.6559 15.3649 14.6912 15.4364C14.6335 15.5901 14.5758 15.7439 14.5181 15.8976C14.4723 15.8907 14.4274 15.9035 14.3835 15.936C14.368 15.9662 14.3615 15.9982 14.3643 16.0321C14.3963 16.0321 14.4284 16.0321 14.4604 16.0321C14.376 16.2819 14.2895 16.5317 14.2008 16.7814C14.1656 16.8158 14.124 16.8414 14.0758 16.8583C14.0603 16.8885 14.0539 16.9205 14.0566 16.9544C14.083 16.9514 14.1087 16.9546 14.1335 16.964C14.0407 17.2167 13.9477 17.4697 13.8547 17.723C13.8227 17.7486 13.7906 17.7742 13.7586 17.7998C13.7477 17.8394 13.7573 17.8747 13.7874 17.9055C13.6137 18.379 13.4407 18.8434 13.2682 19.2986C13.1747 19.2757 13.1298 19.3141 13.1336 19.4139C13.1657 19.4139 13.1977 19.4139 13.2298 19.4139C13.1345 19.6746 13.0448 19.9373 12.9605 20.2017C12.8658 20.1984 12.821 20.2432 12.8259 20.3362C12.8523 20.3331 12.878 20.3364 12.9029 20.3458C12.7971 20.6082 12.701 20.874 12.6144 21.1432C12.5171 21.1541 12.4979 21.1991 12.5567 21.2777C12.3889 21.7335 12.2255 22.1817 12.0664 22.6227C12.0566 22.6688 12.0342 22.6817 11.9991 22.6611C11.9246 22.6754 11.8926 22.7203 11.9029 22.7956C11.9373 22.7901 11.9694 22.7966 11.9991 22.8149C11.9042 23.0639 11.8113 23.3137 11.7203 23.5642C11.686 23.5852 11.6508 23.6044 11.6145 23.6219C11.5989 23.652 11.5925 23.6841 11.5953 23.7179C11.6145 23.7179 11.6337 23.7179 11.653 23.7179C11.5685 23.9677 11.482 24.2175 11.3934 24.4673C11.3679 24.5057 11.3358 24.5378 11.2972 24.5634C11.2841 24.6014 11.2937 24.6335 11.3261 24.6595C11.1498 25.121 10.9799 25.5822 10.8165 26.0429C10.775 26.0387 10.7333 26.0516 10.6915 26.0814C10.6759 26.1115 10.6695 26.1436 10.6723 26.1774C10.7049 26.1744 10.737 26.1776 10.7684 26.187C10.6714 26.4491 10.5689 26.7085 10.4607 26.9652C10.3863 26.9794 10.3542 27.0244 10.3646 27.0997C10.3872 27.0955 10.4064 27.1018 10.4223 27.1189C10.1473 27.8808 9.86209 28.6557 9.56658 29.4439C9.47766 29.4245 9.43601 29.4629 9.44159 29.5592C9.47426 29.5561 9.50631 29.5594 9.53773 29.5688C9.44111 29.8136 9.34817 30.0601 9.25891 30.3086C9.23272 30.3459 9.19747 30.3714 9.15315 30.3854C9.13759 30.4156 9.13117 30.4477 9.13392 30.4815C9.15651 30.4773 9.17574 30.4836 9.19161 30.5007C8.90526 31.2724 8.62004 32.0473 8.3359 32.8257C8.24699 32.8063 8.20534 32.8447 8.21091 32.941C8.23655 32.941 8.2622 32.941 8.28783 32.941C8.20399 33.1954 8.11425 33.4485 8.01862 33.7C7.99329 33.7309 7.96126 33.7534 7.92247 33.7672C7.90692 33.7974 7.90049 33.8295 7.90324 33.8633C7.92347 33.8604 7.9427 33.8637 7.96093 33.8729C7.79119 34.3248 7.62775 34.77 7.47058 35.2083C7.46103 35.2669 7.43218 35.2861 7.38405 35.266C7.30958 35.2802 7.27752 35.3252 7.28791 35.4005C7.33148 35.4074 7.36673 35.3945 7.39367 35.362C7.30967 35.6458 7.21353 35.9277 7.10523 36.2075C7.01631 36.1881 6.97466 36.2265 6.98024 36.3228C7.00866 36.3178 7.03429 36.3241 7.05715 36.342C6.96101 36.5981 6.86486 36.8545 6.76871 37.1106C6.69416 37.125 6.66211 37.17 6.67257 37.2451C6.6928 37.2422 6.71203 37.2455 6.73026 37.2547C6.62453 37.5172 6.52839 37.7829 6.44182 38.0521C6.36807 38.0704 6.34884 38.1151 6.38413 38.1866C6.3713 38.2187 6.3585 38.2506 6.34567 38.2827C6.32904 38.3034 6.30981 38.3067 6.28798 38.2923C5.48554 37.8275 4.68434 37.3631 3.88432 36.8992C3.75481 36.8393 3.63624 36.7624 3.52858 36.6686C3.47835 36.5459 3.45272 36.4177 3.45166 36.2844C3.43883 29.0981 3.43883 21.9118 3.45166 14.7255C3.45676 14.55 3.51123 14.3931 3.61511 14.2547C9.90296 10.6457 16.1845 7.0269 22.4598 3.39842C22.5944 3.33438 22.729 3.33438 22.8636 3.39842C29.0491 6.97566 35.241 10.5432 41.4391 14.101C41.5563 14.1675 41.6684 14.2411 41.7757 14.322C41.8128 14.3882 41.8383 14.4587 41.8526 14.5333C41.8685 21.8608 41.8653 29.1882 41.843 36.5149C41.7849 36.5086 41.7528 36.5343 41.7468 36.5918C41.7847 36.6385 41.7784 36.6865 41.7276 36.7359C41.6551 36.7966 41.5749 36.8254 41.4872 36.8224C41.4563 36.8477 41.4338 36.8796 41.4199 36.9184C41.2709 36.9943 41.1267 37.0777 40.9873 37.1682C40.9605 37.1163 40.9221 37.1035 40.8719 37.1298C40.8353 37.1701 40.8128 37.2182 40.8046 37.2739C40.6352 37.3634 40.4685 37.4563 40.3046 37.5525Z" fill="#FEFFFE"/>
<path opacity="0.01" fill-rule="evenodd" clip-rule="evenodd" d="M22.6898 3.5426C22.7202 3.55348 22.7458 3.57269 22.7667 3.60025C22.7283 3.62586 22.6898 3.62586 22.6514 3.60025C22.6727 3.58555 22.6856 3.56633 22.6898 3.5426Z" fill="#FEFFFE"/>
<path opacity="0.01" fill-rule="evenodd" clip-rule="evenodd" d="M23.3057 3.84998C23.336 3.86085 23.3616 3.88007 23.3826 3.90762C23.3597 3.92547 23.3341 3.93187 23.3057 3.92683C23.3057 3.90122 23.3057 3.87559 23.3057 3.84998Z" fill="#FEFFFE"/>
<path opacity="0.01" fill-rule="evenodd" clip-rule="evenodd" d="M22.0376 3.88837C22.0734 3.89107 22.0798 3.90401 22.0571 3.92719C22.0415 3.91832 22.0351 3.90537 22.0376 3.88837Z" fill="#FEFFFE"/>
<path opacity="0.01" fill-rule="evenodd" clip-rule="evenodd" d="M23.9219 4.15741C23.9523 4.16829 23.9778 4.1875 23.9988 4.21505C23.9759 4.2329 23.9503 4.2393 23.9219 4.23427C23.9219 4.20866 23.9219 4.18302 23.9219 4.15741Z" fill="#FEFFFE"/>
<path opacity="0.01" fill-rule="evenodd" clip-rule="evenodd" d="M21.4205 4.19586C21.4562 4.19856 21.4626 4.21151 21.4399 4.23469C21.4243 4.22582 21.4179 4.21287 21.4205 4.19586Z" fill="#FEFFFE"/>
<path opacity="0.01" fill-rule="evenodd" clip-rule="evenodd" d="M24.5371 4.46484C24.5675 4.47572 24.5931 4.49493 24.614 4.52249C24.5911 4.54034 24.5656 4.54674 24.5371 4.5417C24.5371 4.51609 24.5371 4.49046 24.5371 4.46484Z" fill="#FEFFFE"/>
<path opacity="0.01" fill-rule="evenodd" clip-rule="evenodd" d="M21.1148 4.5033C21.1505 4.50599 21.157 4.51894 21.1342 4.54212C21.1187 4.53325 21.1123 4.5203 21.1148 4.5033Z" fill="#FEFFFE"/>
<path opacity="0.01" fill-rule="evenodd" clip-rule="evenodd" d="M24.8428 4.77234C24.8732 4.78321 24.8987 4.80243 24.9197 4.82998C24.8968 4.84783 24.8712 4.85423 24.8428 4.8492C24.8428 4.82358 24.8428 4.79795 24.8428 4.77234Z" fill="#FEFFFE"/>
<path opacity="0.01" fill-rule="evenodd" clip-rule="evenodd" d="M20.4996 4.81073C20.5353 4.81343 20.5417 4.82638 20.519 4.84956C20.5034 4.84068 20.497 4.82774 20.4996 4.81073Z" fill="#FEFFFE"/>
<path opacity="0.01" fill-rule="evenodd" clip-rule="evenodd" d="M25.46 5.07971C25.4903 5.09059 25.5159 5.1098 25.5369 5.13736C25.514 5.15521 25.4884 5.1616 25.46 5.15657C25.46 5.13096 25.46 5.10533 25.46 5.07971Z" fill="#FEFFFE"/>
<path opacity="0.01" fill-rule="evenodd" clip-rule="evenodd" d="M19.8833 5.1181C19.9191 5.1208 19.9255 5.13375 19.9028 5.15693C19.8872 5.14806 19.8808 5.13511 19.8833 5.1181Z" fill="#FEFFFE"/>
<path opacity="0.01" fill-rule="evenodd" clip-rule="evenodd" d="M26.0742 5.38721C26.1046 5.39808 26.1302 5.4173 26.1511 5.44485C26.1283 5.4627 26.1027 5.4691 26.0742 5.46407C26.0742 5.43845 26.0742 5.41282 26.0742 5.38721Z" fill="#FEFFFE"/>
<path opacity="0.01" fill-rule="evenodd" clip-rule="evenodd" d="M19.5757 5.42554C19.6115 5.42824 19.6179 5.44118 19.5952 5.46436C19.5796 5.45549 19.5732 5.44254 19.5757 5.42554Z" fill="#FEFFFE"/>
<path opacity="0.01" fill-rule="evenodd" clip-rule="evenodd" d="M26.3828 5.69458C26.4132 5.70546 26.4388 5.72467 26.4597 5.75222C26.4368 5.77007 26.4113 5.77647 26.3828 5.77144C26.3828 5.74583 26.3828 5.72019 26.3828 5.69458Z" fill="#FEFFFE"/>
<path opacity="0.01" fill-rule="evenodd" clip-rule="evenodd" d="M18.9595 5.73303C18.9952 5.73573 19.0017 5.74868 18.979 5.77186C18.9634 5.76299 18.957 5.75004 18.9595 5.73303Z" fill="#FEFFFE"/>
<path opacity="0.01" fill-rule="evenodd" clip-rule="evenodd" d="M26.999 6.00201C27.0294 6.01289 27.055 6.0321 27.0759 6.05966C27.0531 6.07751 27.0275 6.08391 26.999 6.07887C26.999 6.05326 26.999 6.02763 26.999 6.00201Z" fill="#FEFFFE"/>
<path opacity="0.01" fill-rule="evenodd" clip-rule="evenodd" d="M18.3443 6.04047C18.38 6.04316 18.3864 6.05611 18.3637 6.07929C18.3482 6.07042 18.3417 6.05747 18.3443 6.04047Z" fill="#FEFFFE"/>
<path opacity="0.01" fill-rule="evenodd" clip-rule="evenodd" d="M27.6133 6.30945C27.6437 6.32032 27.6692 6.33954 27.6902 6.36709C27.6673 6.38494 27.6417 6.39134 27.6133 6.38631C27.6133 6.36069 27.6133 6.33506 27.6133 6.30945Z" fill="#FEFFFE"/>
<path opacity="0.01" fill-rule="evenodd" clip-rule="evenodd" d="M17.7291 6.34784C17.7647 6.35054 17.7712 6.36349 17.7485 6.38666C17.733 6.37779 17.7265 6.36484 17.7291 6.34784Z" fill="#FEFFFE"/>
<path opacity="0.01" fill-rule="evenodd" clip-rule="evenodd" d="M28.2285 6.61688C28.2589 6.62776 28.2845 6.64697 28.3054 6.67453C28.2825 6.69238 28.257 6.69878 28.2285 6.69374C28.2285 6.66813 28.2285 6.6425 28.2285 6.61688Z" fill="#FEFFFE"/>
<path opacity="0.01" fill-rule="evenodd" clip-rule="evenodd" d="M17.4224 6.65533C17.4581 6.65803 17.4646 6.67098 17.4418 6.69416C17.4263 6.68529 17.4199 6.67234 17.4224 6.65533Z" fill="#FEFFFE"/>
<path opacity="0.01" fill-rule="evenodd" clip-rule="evenodd" d="M28.5361 6.92432C28.5665 6.93519 28.5921 6.95441 28.6131 6.98196C28.5902 6.99981 28.5646 7.00621 28.5361 7.00118C28.5361 6.97556 28.5361 6.94993 28.5361 6.92432Z" fill="#FEFFFE"/>
<path opacity="0.01" fill-rule="evenodd" clip-rule="evenodd" d="M16.8062 6.96271C16.8419 6.96541 16.8484 6.97835 16.8256 7.00153C16.8101 6.99266 16.8037 6.97971 16.8062 6.96271Z" fill="#FEFFFE"/>
<path opacity="0.01" fill-rule="evenodd" clip-rule="evenodd" d="M29.1514 7.23181C29.1817 7.24269 29.2073 7.2619 29.2283 7.28946C29.2054 7.30731 29.1798 7.3137 29.1514 7.30867C29.1514 7.28306 29.1514 7.25742 29.1514 7.23181Z" fill="#FEFFFE"/>
<path opacity="0.01" fill-rule="evenodd" clip-rule="evenodd" d="M16.1919 7.2702C16.2276 7.2729 16.2341 7.28585 16.2114 7.30903C16.1959 7.30016 16.1894 7.28721 16.1919 7.2702Z" fill="#FEFFFE"/>
<path opacity="0.01" fill-rule="evenodd" clip-rule="evenodd" d="M29.7656 7.53918C29.796 7.55006 29.8216 7.56927 29.8425 7.59683C29.8197 7.61468 29.7941 7.62108 29.7656 7.61604C29.7656 7.59043 29.7656 7.5648 29.7656 7.53918Z" fill="#FEFFFE"/>
<path opacity="0.01" fill-rule="evenodd" clip-rule="evenodd" d="M15.5767 7.57764C15.6124 7.58034 15.6189 7.59328 15.5961 7.61646C15.5806 7.60759 15.5742 7.59464 15.5767 7.57764Z" fill="#FEFFFE"/>
<path opacity="0.01" fill-rule="evenodd" clip-rule="evenodd" d="M30.3828 7.84662C30.4132 7.85749 30.4388 7.87671 30.4597 7.90426C30.4368 7.92211 30.4113 7.92851 30.3828 7.92348C30.3828 7.89786 30.3828 7.87223 30.3828 7.84662Z" fill="#FEFFFE"/>
<path opacity="0.01" fill-rule="evenodd" clip-rule="evenodd" d="M15.2671 7.88507C15.3028 7.88777 15.3093 7.90072 15.2866 7.9239C15.2711 7.91502 15.2646 7.90208 15.2671 7.88507Z" fill="#FEFFFE"/>
<path opacity="0.01" fill-rule="evenodd" clip-rule="evenodd" d="M30.6914 8.15405C30.7218 8.16493 30.7474 8.18414 30.7683 8.2117C30.7454 8.22955 30.7199 8.23595 30.6914 8.23091C30.6914 8.2053 30.6914 8.17967 30.6914 8.15405Z" fill="#FEFFFE"/>
<path opacity="0.01" fill-rule="evenodd" clip-rule="evenodd" d="M14.6519 8.1925C14.6876 8.1952 14.6941 8.20815 14.6713 8.23133C14.6558 8.22246 14.6494 8.20951 14.6519 8.1925Z" fill="#FEFFFE"/>
<path opacity="0.01" fill-rule="evenodd" clip-rule="evenodd" d="M31.3047 8.46149C31.3351 8.47236 31.3606 8.49158 31.3816 8.51913C31.3587 8.53698 31.3331 8.54338 31.3047 8.53835C31.3047 8.51273 31.3047 8.4871 31.3047 8.46149Z" fill="#FEFFFE"/>
<path opacity="0.01" fill-rule="evenodd" clip-rule="evenodd" d="M14.0376 8.49994C14.0733 8.50264 14.0798 8.51559 14.0571 8.53876C14.0416 8.52989 14.0351 8.51694 14.0376 8.49994Z" fill="#FEFFFE"/>
<path opacity="0.01" fill-rule="evenodd" clip-rule="evenodd" d="M31.9219 8.76892C31.9523 8.7798 31.9778 8.79901 31.9988 8.82656C31.9759 8.84442 31.9503 8.85081 31.9219 8.84578C31.9219 8.82017 31.9219 8.79453 31.9219 8.76892Z" fill="#FEFFFE"/>
<path opacity="0.01" fill-rule="evenodd" clip-rule="evenodd" d="M13.4214 8.80737C13.4571 8.81007 13.4636 8.82302 13.4409 8.8462C13.4254 8.83733 13.4189 8.82438 13.4214 8.80737Z" fill="#FEFFFE"/>
<path opacity="0.01" fill-rule="evenodd" clip-rule="evenodd" d="M32.5361 9.07635C32.5665 9.08723 32.5921 9.10645 32.6131 9.134C32.5902 9.15185 32.5646 9.15825 32.5361 9.15321C32.5361 9.1276 32.5361 9.10197 32.5361 9.07635Z" fill="#FEFFFE"/>
<path opacity="0.01" fill-rule="evenodd" clip-rule="evenodd" d="M13.1138 9.11475C13.1495 9.11744 13.156 9.13039 13.1332 9.15357C13.1177 9.1447 13.1113 9.13175 13.1138 9.11475Z" fill="#FEFFFE"/>
<path opacity="0.01" fill-rule="evenodd" clip-rule="evenodd" d="M32.8428 9.38385C32.8732 9.39473 32.8987 9.41394 32.9197 9.44149C32.8968 9.45934 32.8712 9.46574 32.8428 9.46071C32.8428 9.4351 32.8428 9.40946 32.8428 9.38385Z" fill="#FEFFFE"/>
<path opacity="0.01" fill-rule="evenodd" clip-rule="evenodd" d="M12.4996 9.4223C12.5353 9.425 12.5417 9.43795 12.519 9.46113C12.5035 9.45226 12.497 9.43931 12.4996 9.4223Z" fill="#FEFFFE"/>
<path opacity="0.01" fill-rule="evenodd" clip-rule="evenodd" d="M33.458 9.69116C33.4884 9.70204 33.514 9.72125 33.5349 9.74881C33.512 9.76666 33.4865 9.77306 33.458 9.76802C33.458 9.74241 33.458 9.71678 33.458 9.69116Z" fill="#FEFFFE"/>
<path opacity="0.01" fill-rule="evenodd" clip-rule="evenodd" d="M11.8843 9.72961C11.92 9.73231 11.9265 9.74526 11.9038 9.76844C11.8883 9.75957 11.8818 9.74662 11.8843 9.72961Z" fill="#FEFFFE"/>
<path opacity="0.01" fill-rule="evenodd" clip-rule="evenodd" d="M34.0742 9.99872C34.1046 10.0096 34.1302 10.0288 34.1511 10.0564C34.1283 10.0742 34.1027 10.0806 34.0742 10.0756C34.0742 10.05 34.0742 10.0243 34.0742 9.99872Z" fill="#FEFFFE"/>
<path opacity="0.01" fill-rule="evenodd" clip-rule="evenodd" d="M11.5748 10.0371C11.6104 10.0398 11.6169 10.0528 11.5942 10.0759C11.5787 10.0671 11.5722 10.0541 11.5748 10.0371Z" fill="#FEFFFE"/>
<path opacity="0.01" fill-rule="evenodd" clip-rule="evenodd" d="M34.6885 10.3062C34.7189 10.317 34.7444 10.3362 34.7654 10.3638C34.7425 10.3816 34.7169 10.388 34.6885 10.383C34.6885 10.3574 34.6885 10.3318 34.6885 10.3062Z" fill="#FEFFFE"/>
<path opacity="0.01" fill-rule="evenodd" clip-rule="evenodd" d="M10.9605 10.3445C10.9962 10.3472 11.0027 10.3602 10.9799 10.3834C10.9644 10.3745 10.958 10.3615 10.9605 10.3445Z" fill="#FEFFFE"/>
<path opacity="0.01" fill-rule="evenodd" clip-rule="evenodd" d="M34.9971 10.6135C35.0275 10.6244 35.053 10.6436 35.074 10.6712C35.0511 10.689 35.0255 10.6954 34.9971 10.6904C34.9971 10.6648 34.9971 10.6391 34.9971 10.6135Z" fill="#FEFFFE"/>
<path opacity="0.01" fill-rule="evenodd" clip-rule="evenodd" d="M10.3443 10.6519C10.38 10.6546 10.3864 10.6676 10.3637 10.6907C10.3482 10.6819 10.3417 10.6689 10.3443 10.6519Z" fill="#FEFFFE"/>
<path opacity="0.01" fill-rule="evenodd" clip-rule="evenodd" d="M35.6133 10.921C35.6437 10.9318 35.6692 10.951 35.6902 10.9786C35.6673 10.9965 35.6417 11.0029 35.6133 10.9978C35.6133 10.9722 35.6133 10.9466 35.6133 10.921Z" fill="#FEFFFE"/>
<path opacity="0.01" fill-rule="evenodd" clip-rule="evenodd" d="M9.73003 10.9594C9.76572 10.9621 9.77219 10.9751 9.74946 10.9982C9.73396 10.9894 9.72749 10.9764 9.73003 10.9594Z" fill="#FEFFFE"/>
<path opacity="0.01" fill-rule="evenodd" clip-rule="evenodd" d="M36.2275 11.2285C36.2579 11.2393 36.2835 11.2585 36.3045 11.2861C36.2816 11.3039 36.256 11.3103 36.2275 11.3053C36.2275 11.2797 36.2275 11.2541 36.2275 11.2285Z" fill="#FEFFFE"/>
<path opacity="0.01" fill-rule="evenodd" clip-rule="evenodd" d="M9.42241 11.2668C9.4581 11.2695 9.46457 11.2824 9.44184 11.3056C9.42634 11.2967 9.41987 11.2838 9.42241 11.2668Z" fill="#FEFFFE"/>
<path opacity="0.01" fill-rule="evenodd" clip-rule="evenodd" d="M36.5352 11.5358C36.5655 11.5467 36.5911 11.5659 36.6121 11.5935C36.5892 11.6113 36.5636 11.6177 36.5352 11.6127C36.5352 11.5871 36.5352 11.5614 36.5352 11.5358Z" fill="#FEFFFE"/>
<path opacity="0.01" fill-rule="evenodd" clip-rule="evenodd" d="M8.80816 11.5743C8.84384 11.577 8.85031 11.59 8.82758 11.6132C8.81208 11.6043 8.80561 11.5913 8.80816 11.5743Z" fill="#FEFFFE"/>
<path opacity="0.01" fill-rule="evenodd" clip-rule="evenodd" d="M37.1504 11.8433C37.1808 11.8541 37.2063 11.8734 37.2273 11.9009C37.2044 11.9188 37.1788 11.9252 37.1504 11.9201C37.1504 11.8945 37.1504 11.8689 37.1504 11.8433Z" fill="#FEFFFE"/>
<path opacity="0.01" fill-rule="evenodd" clip-rule="evenodd" d="M8.19097 11.8817C8.22666 11.8844 8.23313 11.8973 8.2104 11.9205C8.19489 11.9116 8.18842 11.8987 8.19097 11.8817Z" fill="#FEFFFE"/>
<path opacity="0.01" fill-rule="evenodd" clip-rule="evenodd" d="M37.7666 12.1508C37.797 12.1616 37.8226 12.1808 37.8435 12.2084C37.8206 12.2263 37.7951 12.2326 37.7666 12.2276C37.7666 12.202 37.7666 12.1764 37.7666 12.1508Z" fill="#FEFFFE"/>
<path opacity="0.01" fill-rule="evenodd" clip-rule="evenodd" d="M7.57671 12.1891C7.6124 12.1918 7.61887 12.2048 7.59614 12.228C7.58064 12.2191 7.57417 12.2062 7.57671 12.1891Z" fill="#FEFFFE"/>
<path opacity="0.01" fill-rule="evenodd" clip-rule="evenodd" d="M38.3809 12.4582C38.4112 12.4691 38.4368 12.4883 38.4578 12.5158C38.4349 12.5337 38.4093 12.5401 38.3809 12.535C38.3809 12.5094 38.3809 12.4838 38.3809 12.4582Z" fill="#FEFFFE"/>
<path opacity="0.01" fill-rule="evenodd" clip-rule="evenodd" d="M7.26909 12.4966C7.30478 12.4993 7.31125 12.5122 7.28852 12.5354C7.27302 12.5265 7.26655 12.5136 7.26909 12.4966Z" fill="#FEFFFE"/>
<path opacity="0.01" fill-rule="evenodd" clip-rule="evenodd" d="M38.6904 12.7656C38.7208 12.7764 38.7464 12.7957 38.7673 12.8232C38.7445 12.8411 38.7189 12.8475 38.6904 12.8424C38.6904 12.8168 38.6904 12.7912 38.6904 12.7656Z" fill="#FEFFFE"/>
<path opacity="0.01" fill-rule="evenodd" clip-rule="evenodd" d="M6.65191 12.804C6.68759 12.8067 6.69406 12.8197 6.67133 12.8428C6.65583 12.834 6.64936 12.821 6.65191 12.804Z" fill="#FEFFFE"/>
<path opacity="0.01" fill-rule="evenodd" clip-rule="evenodd" d="M39.3057 13.073C39.336 13.0839 39.3616 13.1031 39.3826 13.1306C39.3597 13.1485 39.3341 13.1549 39.3057 13.1499C39.3057 13.1242 39.3057 13.0986 39.3057 13.073Z" fill="#FEFFFE"/>
<path opacity="0.01" fill-rule="evenodd" clip-rule="evenodd" d="M6.03765 13.1115C6.07334 13.1142 6.07981 13.1272 6.05708 13.1503C6.04157 13.1415 6.0351 13.1285 6.03765 13.1115Z" fill="#FEFFFE"/>
<path opacity="0.01" fill-rule="evenodd" clip-rule="evenodd" d="M21.6895 13.1499C21.715 13.1499 21.7408 13.1499 21.7664 13.1499C21.7714 13.1783 21.765 13.2039 21.7471 13.2268C21.7196 13.2059 21.7004 13.1802 21.6895 13.1499Z" fill="#FEFFFE"/>
<path opacity="0.01" fill-rule="evenodd" clip-rule="evenodd" d="M39.9199 13.3804C39.9503 13.3913 39.9759 13.4105 39.9968 13.4381C39.974 13.4559 39.9484 13.4623 39.9199 13.4573C39.9199 13.4317 39.9199 13.406 39.9199 13.3804Z" fill="#FEFFFE"/>
<path opacity="0.01" fill-rule="evenodd" clip-rule="evenodd" d="M5.42241 13.4188C5.4581 13.4215 5.46457 13.4345 5.44184 13.4576C5.42634 13.4488 5.41987 13.4358 5.42241 13.4188Z" fill="#FEFFFE"/>
<path opacity="0.01" fill-rule="evenodd" clip-rule="evenodd" d="M40.5361 13.6879C40.5665 13.6988 40.5921 13.718 40.6131 13.7456C40.5902 13.7634 40.5646 13.7698 40.5361 13.7648C40.5361 13.7392 40.5361 13.7135 40.5361 13.6879Z" fill="#FEFFFE"/>
<path opacity="0.01" fill-rule="evenodd" clip-rule="evenodd" d="M5.1148 13.7263C5.15049 13.729 5.15695 13.742 5.13422 13.7651C5.11872 13.7563 5.11225 13.7433 5.1148 13.7263Z" fill="#FEFFFE"/>
<path opacity="0.01" fill-rule="evenodd" clip-rule="evenodd" d="M40.8428 13.9954C40.8732 14.0062 40.8987 14.0255 40.9197 14.053C40.8968 14.0709 40.8712 14.0773 40.8428 14.0722C40.8428 14.0466 40.8428 14.021 40.8428 13.9954Z" fill="#FEFFFE"/>
<path opacity="0.01" fill-rule="evenodd" clip-rule="evenodd" d="M4.49956 14.0338C4.53525 14.0365 4.54172 14.0494 4.51899 14.0726C4.50349 14.0637 4.49702 14.0508 4.49956 14.0338Z" fill="#FEFFFE"/>
<path opacity="0.01" fill-rule="evenodd" clip-rule="evenodd" d="M21.7291 14.0338C21.7648 14.0365 21.7712 14.0494 21.7485 14.0726C21.7329 14.0637 21.7265 14.0508 21.7291 14.0338Z" fill="#FEFFFE"/>
<path opacity="0.01" fill-rule="evenodd" clip-rule="evenodd" d="M41.458 14.3028C41.4884 14.3137 41.514 14.3329 41.5349 14.3604C41.512 14.3783 41.4865 14.3847 41.458 14.3797C41.458 14.354 41.458 14.3284 41.458 14.3028Z" fill="#FEFFFE"/>
<path opacity="0.01" fill-rule="evenodd" clip-rule="evenodd" d="M3.8853 14.3412C3.92099 14.3439 3.92746 14.3568 3.90473 14.38C3.88923 14.3711 3.88276 14.3582 3.8853 14.3412Z" fill="#FEFFFE"/>
<path opacity="0.01" fill-rule="evenodd" clip-rule="evenodd" d="M41.7666 14.6102C41.797 14.621 41.8226 14.6403 41.8435 14.6678C41.8206 14.6857 41.7951 14.6921 41.7666 14.687C41.7666 14.6614 41.7666 14.6358 41.7666 14.6102Z" fill="#FEFFFE"/>
<path opacity="0.01" fill-rule="evenodd" clip-rule="evenodd" d="M29.7291 14.6486C29.7648 14.6513 29.7712 14.6643 29.7485 14.6874C29.7329 14.6786 29.7265 14.6656 29.7291 14.6486Z" fill="#FEFFFE"/>
<path opacity="0.01" fill-rule="evenodd" clip-rule="evenodd" d="M21.4205 14.9561C21.4562 14.9588 21.4626 14.9718 21.4399 14.9949C21.4243 14.9861 21.4179 14.9731 21.4205 14.9561Z" fill="#FEFFFE"/>
<path opacity="0.01" fill-rule="evenodd" clip-rule="evenodd" d="M29.4214 15.5709C29.4572 15.5736 29.4636 15.5866 29.4409 15.6097C29.4253 15.6009 29.4189 15.5879 29.4214 15.5709Z" fill="#FEFFFE"/>
<path opacity="0.01" fill-rule="evenodd" clip-rule="evenodd" d="M21.1148 15.8784C21.1505 15.8811 21.157 15.894 21.1342 15.9172C21.1187 15.9083 21.1123 15.8954 21.1148 15.8784Z" fill="#FEFFFE"/>
<path opacity="0.01" fill-rule="evenodd" clip-rule="evenodd" d="M20.8062 16.4932C20.8419 16.4959 20.8484 16.5089 20.8256 16.5321C20.8101 16.5232 20.8037 16.5102 20.8062 16.4932Z" fill="#FEFFFE"/>
<path opacity="0.01" fill-rule="evenodd" clip-rule="evenodd" d="M29.1138 16.4932C29.1496 16.4959 29.156 16.5089 29.1332 16.5321C29.1177 16.5232 29.1113 16.5102 29.1138 16.4932Z" fill="#FEFFFE"/>
<path opacity="0.01" fill-rule="evenodd" clip-rule="evenodd" d="M20.4996 17.4155C20.5353 17.4182 20.5417 17.4312 20.519 17.4544C20.5034 17.4455 20.497 17.4325 20.4996 17.4155Z" fill="#FEFFFE"/>
<path opacity="0.01" fill-rule="evenodd" clip-rule="evenodd" d="M28.8042 17.4155C28.84 17.4182 28.8464 17.4312 28.8237 17.4544C28.8081 17.4455 28.8017 17.4325 28.8042 17.4155Z" fill="#FEFFFE"/>
<path opacity="0.01" fill-rule="evenodd" clip-rule="evenodd" d="M28.4986 18.0303C28.5343 18.033 28.5407 18.046 28.518 18.0692C28.5025 18.0603 28.4961 18.0473 28.4986 18.0303Z" fill="#FEFFFE"/>
<path opacity="0.01" fill-rule="evenodd" clip-rule="evenodd" d="M31.8438 18.0688C31.8693 18.0688 31.8951 18.0688 31.9207 18.0688C31.9257 18.0972 31.9193 18.1228 31.9014 18.1456C31.8739 18.1247 31.8547 18.0991 31.8438 18.0688Z" fill="#FEFFFE"/>
<path opacity="0.01" fill-rule="evenodd" clip-rule="evenodd" d="M20.19 18.3379C20.2257 18.3406 20.2321 18.3535 20.2094 18.3767C20.1939 18.3678 20.1875 18.3549 20.19 18.3379Z" fill="#FEFFFE"/>
<path opacity="0.01" fill-rule="evenodd" clip-rule="evenodd" d="M28.19 18.9527C28.2257 18.9554 28.2321 18.9683 28.2094 18.9915C28.1939 18.9827 28.1875 18.9697 28.19 18.9527Z" fill="#FEFFFE"/>
<path opacity="0.994" fill-rule="evenodd" clip-rule="evenodd" d="M63.8062 16.005C64.6097 16.0006 65.413 16.005 66.2163 16.0182C66.9608 16.0484 67.5745 16.344 68.0571 16.9048C68.3248 17.2431 68.5722 17.5958 68.7987 17.9634C71.6789 23.1636 74.5658 28.3597 77.4593 33.5514C77.4771 33.6131 77.4771 33.675 77.4593 33.7366C77.4011 33.806 77.3526 33.8809 77.3137 33.9616C76.0617 34.0053 74.8079 34.0143 73.5528 33.9881C73.3801 33.9391 73.2344 33.8465 73.1158 33.7102C72.5055 32.592 71.8919 31.4763 71.275 30.3623C67.258 30.3446 63.2413 30.3446 59.2242 30.3623C58.6161 31.4763 58.0115 32.592 57.41 33.7102C57.3501 33.8494 57.2487 33.942 57.1054 33.9881C55.7811 34.0058 54.4569 34.0058 53.1326 33.9881C53.099 33.9799 53.0683 33.9666 53.0399 33.9484C52.9978 33.766 52.9891 33.5808 53.0134 33.3926C55.8934 28.1417 58.7626 22.8838 61.6211 17.6194C61.9986 16.9167 62.559 16.4184 63.303 16.1241C63.4722 16.0754 63.6399 16.0357 63.8062 16.005ZM64.945 19.6837C65.0865 19.6792 65.2279 19.6837 65.3688 19.6969C65.4528 19.7453 65.519 19.8115 65.5675 19.8954C66.9015 22.3897 68.239 24.8817 69.58 27.3718C66.6488 27.3895 63.718 27.3895 60.7869 27.3718C62.1712 24.8036 63.5572 22.241 64.945 19.6837Z" fill="#FEFFFE"/>
<path opacity="0.996" fill-rule="evenodd" clip-rule="evenodd" d="M82.0555 16.005C86.9201 16.0005 91.7843 16.005 96.6489 16.0182C99.6431 16.0989 101.263 17.6296 101.509 20.6099C101.574 21.7759 101.556 22.9404 101.456 24.1033C101.36 24.9915 101.051 25.7941 100.529 26.5116C100.091 27.0023 99.5657 27.3683 98.9531 27.6099C98.572 27.7536 98.1835 27.8727 97.7878 27.9672C99.2426 29.807 100.704 31.6419 102.171 33.4719C102.261 33.6328 102.279 33.8004 102.224 33.9748C102.162 34.0608 102.078 34.1095 101.972 34.1203C101.332 34.1248 100.692 34.1291 100.052 34.1336C99.384 34.1375 98.7177 34.1243 98.0526 34.0939C96.584 32.2101 95.1273 30.3133 93.6825 28.4039C90.9193 28.3906 88.1559 28.3861 85.3927 28.3906C85.3972 30.199 85.3927 32.0076 85.3794 33.816C85.3365 33.9912 85.2263 34.0925 85.0484 34.1203C83.9625 34.1381 82.8766 34.1381 81.7907 34.1203C81.6127 34.0925 81.5025 33.9912 81.4596 33.816C81.4419 28.0731 81.4419 22.3301 81.4596 16.5872C81.5327 16.2627 81.7313 16.0687 82.0555 16.005ZM85.6045 19.6571C88.8445 19.6526 92.0847 19.6571 95.3246 19.6704C96.0909 19.6312 96.7307 19.8916 97.2448 20.4511C97.4535 20.8002 97.5595 21.1794 97.5626 21.5891C97.5804 22.1536 97.5804 22.7184 97.5626 23.2829C97.4819 24.5368 96.8152 25.1942 95.563 25.2545C92.1641 25.2677 88.765 25.2722 85.3662 25.2677C85.3617 23.4504 85.3662 21.6333 85.3794 19.8159C85.4236 19.7138 85.4986 19.6608 85.6045 19.6571Z" fill="#FEFFFE"/>
<path opacity="0.993" fill-rule="evenodd" clip-rule="evenodd" d="M108.301 16.005C113.448 16.0005 118.595 16.005 123.742 16.0182C124.676 16.0398 125.559 16.2603 126.391 16.6798C126.989 17.0572 127.426 17.5733 127.702 18.228C127.904 18.7293 128.028 19.2498 128.072 19.7895C128.09 20.5747 128.09 21.3596 128.072 22.1449C127.962 23.3189 127.419 24.2277 126.444 24.8708C127.543 25.5845 128.139 26.5992 128.231 27.9143C128.249 28.6466 128.249 29.3786 128.231 30.1109C128.173 30.8193 128.022 31.5074 127.781 32.1751C127.277 33.2774 126.416 33.8904 125.199 34.0145C124.927 34.0621 124.653 34.0973 124.378 34.1203C118.966 34.1381 113.554 34.1381 108.142 34.1203C107.782 34.0415 107.592 33.8165 107.573 33.4455C107.555 27.8701 107.555 22.2949 107.573 16.7195C107.621 16.2791 107.863 16.0411 108.301 16.005ZM111.665 19.5513C115.329 19.5468 118.993 19.5513 122.656 19.5645C123.135 19.5987 123.545 19.7794 123.888 20.107C124.041 20.3484 124.12 20.6131 124.126 20.901C124.144 21.298 124.144 21.695 124.126 22.0919C124.093 22.6893 123.797 23.0907 123.239 23.2961C122.997 23.3673 122.749 23.4112 122.497 23.4284C118.842 23.4417 115.187 23.4462 111.532 23.4417C111.528 22.1801 111.532 20.9187 111.546 19.6571C111.579 19.6124 111.619 19.577 111.665 19.5513ZM111.4 26.1676C115.05 26.1366 118.705 26.1324 122.365 26.1543C122.773 26.1617 123.161 26.2499 123.53 26.419C123.868 26.6834 124.058 27.0319 124.1 27.4644C124.104 27.729 124.108 27.9937 124.113 28.2583C124.116 28.5769 124.102 28.8945 124.073 29.2111C123.885 29.9198 123.421 30.2858 122.683 30.3094C119.001 30.3271 115.32 30.3271 111.638 30.3094C111.557 30.281 111.518 30.2239 111.519 30.1373C111.51 28.8405 111.501 27.5437 111.493 26.247C111.465 26.2149 111.434 26.1885 111.4 26.1676Z" fill="#FEFFFE"/>
<path opacity="0.993" fill-rule="evenodd" clip-rule="evenodd" d="M134.761 16.005C135.838 16.0005 136.915 16.005 137.992 16.0182C138.167 16.0343 138.277 16.127 138.323 16.2961C138.367 22.0295 138.375 27.7637 138.349 33.4984C138.352 33.6331 138.317 33.7567 138.243 33.8689C138.172 33.9335 138.088 33.9732 137.992 33.988C136.915 34.0057 135.838 34.0057 134.761 33.988C134.565 33.96 134.446 33.8499 134.403 33.6572C134.385 27.8878 134.385 22.1184 134.403 16.349C134.45 16.1561 134.569 16.0415 134.761 16.005Z" fill="#FEFFFE"/>
<path opacity="0.994" fill-rule="evenodd" clip-rule="evenodd" d="M144.427 16.0049C151.359 15.9918 158.289 16.005 165.218 16.0446C165.385 16.1161 165.468 16.2442 165.47 16.4284C165.488 17.3634 165.488 18.2987 165.47 19.2337C165.467 19.4912 165.339 19.6367 165.086 19.6703C162.314 19.6836 159.542 19.6881 156.77 19.6836C156.782 24.3597 156.769 29.0353 156.73 33.7101C156.684 33.8792 156.574 33.9718 156.399 33.988C155.322 34.0057 154.245 34.0057 153.168 33.988C152.972 33.9599 152.853 33.8498 152.81 33.6572C152.797 28.9993 152.792 24.3414 152.797 19.6836C149.979 19.6965 147.163 19.6833 144.348 19.6439C144.217 19.5928 144.134 19.5002 144.096 19.366C144.079 18.3516 144.079 17.3369 144.096 16.3225C144.144 16.1473 144.254 16.0414 144.427 16.0049Z" fill="#FEFFFE"/>
<path opacity="0.994" fill-rule="evenodd" clip-rule="evenodd" d="M171.308 16.005C176.173 16.0006 181.037 16.005 185.901 16.0182C186.862 16.0354 187.771 16.2559 188.629 16.6799C189.629 17.314 190.269 18.2093 190.55 19.3661C190.665 19.8358 190.735 20.3122 190.761 20.7952C190.779 21.6598 190.779 22.5242 190.761 23.3888C190.742 24.3569 190.504 25.2654 190.046 26.1147C189.572 26.8269 188.932 27.3342 188.126 27.6364C187.765 27.7743 187.394 27.8802 187.014 27.954C188.474 29.8098 189.944 31.6578 191.424 33.4985C191.486 33.6424 191.504 33.7925 191.477 33.9484C191.419 34.0413 191.335 34.0987 191.225 34.1204C189.917 34.1466 188.61 34.1376 187.305 34.0939C187.254 34.0132 187.188 33.947 187.106 33.8954C185.721 32.0656 184.331 30.2395 182.935 28.4172C180.172 28.3907 177.409 28.382 174.645 28.3907C174.65 30.1816 174.645 31.9722 174.632 33.7631C174.601 33.9703 174.482 34.0894 174.274 34.1204C173.197 34.1381 172.12 34.1381 171.043 34.1204C170.881 34.1035 170.771 34.0196 170.712 33.869C170.668 28.1446 170.659 22.4194 170.686 16.6931C170.718 16.3006 170.925 16.0712 171.308 16.005ZM174.831 19.6572C178.08 19.6527 181.328 19.6572 184.577 19.6704C185.367 19.6352 186.016 19.9131 186.524 20.5041C186.678 20.7844 186.766 21.0842 186.789 21.4039C186.806 22.092 186.806 22.7801 186.789 23.4682C186.639 24.6414 185.972 25.2368 184.789 25.2546C181.399 25.2678 178.009 25.2723 174.619 25.2678C174.614 23.4417 174.619 21.6156 174.632 19.7895C174.642 19.7652 174.655 19.7432 174.672 19.7234C174.728 19.7011 174.781 19.6789 174.831 19.6572Z" fill="#FEFFFE"/>
<path opacity="0.994" fill-rule="evenodd" clip-rule="evenodd" d="M196.47 16.005C197.635 16.0005 198.8 16.005 199.966 16.0182C200.128 16.0352 200.238 16.119 200.297 16.2696C200.332 20.0883 200.35 23.908 200.35 27.729C200.393 28.4065 200.605 29.0242 200.985 29.5816C201.441 30.0129 201.984 30.2554 202.614 30.3094C202.835 30.3181 203.056 30.3271 203.276 30.3358C206.164 30.361 209.051 30.352 211.937 30.3094C212.45 30.2559 212.927 30.0971 213.367 29.833C213.835 29.2994 214.113 28.6775 214.202 27.9672C214.228 24.0583 214.254 20.1505 214.281 16.2431C214.349 16.1053 214.459 16.0302 214.612 16.0182C215.689 16.0005 216.766 16.0005 217.843 16.0182C218.024 16.0443 218.134 16.1457 218.174 16.3225C218.183 16.3932 218.192 16.4636 218.201 16.5343C218.219 20.1422 218.219 23.7505 218.201 27.3585C218.218 28.4155 218.068 29.4476 217.751 30.4549C217.365 31.5847 216.672 32.4713 215.672 33.1147C215.313 33.3134 214.934 33.4545 214.533 33.5381C214.083 33.6392 213.633 33.7363 213.182 33.8292C212.664 33.9152 212.143 33.9682 211.619 33.988C208.653 34.0057 205.687 34.0057 202.72 33.988C200.903 33.9912 199.252 33.4796 197.768 32.453C196.994 31.6263 196.504 30.6513 196.298 29.5286C196.225 29.143 196.172 28.7551 196.139 28.3642C196.095 24.3595 196.086 20.3545 196.112 16.349C196.159 16.1561 196.279 16.0415 196.47 16.005Z" fill="#FEFFFE"/>
<path opacity="0.994" fill-rule="evenodd" clip-rule="evenodd" d="M226.134 16.0049C227.415 15.9926 228.696 16.0058 229.975 16.0446C230.145 16.1121 230.322 16.1563 230.505 16.1769C230.617 16.2063 230.722 16.2505 230.822 16.3092C231.023 16.4694 231.222 16.6324 231.418 16.7988C231.637 17.2265 231.875 17.641 232.133 18.0427C233.899 22.1361 235.665 26.2292 237.43 30.3225C237.595 30.5784 237.829 30.6711 238.132 30.6004C238.298 30.5406 238.435 30.439 238.543 30.2961C240.407 25.9616 242.28 21.6301 244.158 17.3017C244.338 17.105 244.497 16.8933 244.634 16.6665C244.849 16.5178 245.063 16.3722 245.283 16.2298C245.673 16.1655 246.062 16.0951 246.449 16.0181C247.614 16.0005 248.779 16.0005 249.945 16.0181C250.382 16.026 250.79 16.1407 251.163 16.3622C251.364 16.5469 251.499 16.7718 251.574 17.037C251.679 17.4091 251.74 17.7886 251.759 18.175C251.777 23.327 251.777 28.4787 251.759 33.6307C251.727 33.8379 251.608 33.957 251.401 33.9879C250.368 34.0057 249.336 34.0057 248.303 33.9879C248.133 33.9509 248.022 33.8495 247.972 33.6836C247.964 29.0964 247.953 24.5089 247.945 19.9217C247.882 19.6947 247.736 19.6195 247.508 19.6968C247.336 19.7553 247.225 19.8744 247.177 20.0541C245.45 23.8804 243.729 27.7091 242.012 31.5399C241.901 31.7604 241.779 31.9721 241.642 32.1751C241.295 32.5464 240.964 32.9301 240.648 33.3263C240.46 33.4515 240.267 33.5664 240.066 33.6704C239.809 33.7654 239.544 33.8273 239.271 33.8556C238.459 33.8733 237.647 33.8733 236.834 33.8556C236.662 33.844 236.494 33.8088 236.331 33.7498C235.97 33.578 235.617 33.3927 235.272 33.194C235.047 32.8984 234.822 32.603 234.596 32.3074C234.385 31.9369 234.173 31.5664 233.961 31.1959C232.238 27.3891 230.525 23.5781 228.823 19.7629C228.792 19.7262 228.752 19.7039 228.704 19.6968C228.553 19.679 228.403 19.679 228.253 19.6968C228.231 19.7187 228.209 19.741 228.187 19.7629C228.187 24.4216 228.169 29.0795 228.134 33.7365C228.083 33.867 227.99 33.9506 227.856 33.9879C226.788 34.0057 225.719 34.0057 224.651 33.9879C224.467 33.9416 224.365 33.8225 224.347 33.6307C224.32 28.3726 224.329 23.1147 224.373 17.8574C224.404 17.3845 224.537 16.9433 224.77 16.5342C224.913 16.3738 225.086 16.2547 225.287 16.1769C225.568 16.0935 225.851 16.0361 226.134 16.0049Z" fill="#FEFFFE"/>
<path opacity="0.01" fill-rule="evenodd" clip-rule="evenodd" d="M32.1523 18.9911C32.1779 18.9911 32.2037 18.9911 32.2293 18.9911C32.2343 19.0196 32.2279 19.0451 32.21 19.068C32.1825 19.0471 32.1633 19.0215 32.1523 18.9911Z" fill="#FEFFFE"/>
<path opacity="0.01" fill-rule="evenodd" clip-rule="evenodd" d="M19.8833 19.2601C19.9191 19.2628 19.9255 19.2759 19.9028 19.299C19.8872 19.29 19.8808 19.2772 19.8833 19.2601Z" fill="#FEFFFE"/>
<path opacity="0.01" fill-rule="evenodd" clip-rule="evenodd" d="M19.5757 19.875C19.6115 19.8777 19.6179 19.8907 19.5952 19.9138C19.5796 19.9049 19.5732 19.8921 19.5757 19.875Z" fill="#FEFFFE"/>
<path opacity="0.01" fill-rule="evenodd" clip-rule="evenodd" d="M27.8833 19.875C27.9191 19.8777 27.9255 19.8907 27.9028 19.9138C27.8872 19.9049 27.8808 19.8921 27.8833 19.875Z" fill="#FEFFFE"/>
<path opacity="0.01" fill-rule="evenodd" clip-rule="evenodd" d="M32.46 19.9135C32.4855 19.9135 32.5113 19.9135 32.5369 19.9135C32.5419 19.9419 32.5355 19.9674 32.5176 19.9903C32.4902 19.9694 32.4709 19.9438 32.46 19.9135Z" fill="#FEFFFE"/>
<path opacity="0.01" fill-rule="evenodd" clip-rule="evenodd" d="M27.5748 20.4899C27.6105 20.4926 27.6169 20.5056 27.5942 20.5287C27.5786 20.5198 27.5722 20.507 27.5748 20.4899Z" fill="#FEFFFE"/>
</svg>
