<svg width="192" height="59" viewBox="0 0 192 59" fill="none" xmlns="http://www.w3.org/2000/svg">
<path d="M65.7517 29.0432C65.6962 27.6749 65.9122 26.3091 66.3872 25.0247C66.8623 23.7403 67.587 22.5627 68.5195 21.5598C69.4519 20.5569 70.5738 19.7486 71.8203 19.1815C73.0668 18.6144 74.4132 18.2998 75.7819 18.2557H76.2072C81.4972 18.2557 84.6194 21.3675 85.5425 25.0082L82.2544 26.1077C81.959 24.751 81.1857 23.5457 80.0756 22.7117C78.9655 21.8777 77.5925 21.4706 76.2072 21.5646C72.7843 21.5646 69.3509 24.0643 69.3509 29.1054C69.3509 34.1465 72.7013 36.5529 76.2487 36.5529C77.6409 36.591 79.0056 36.1609 80.1245 35.3316C81.2434 34.5023 82.0518 33.3217 82.4204 31.9786L85.6462 33.0159C85.0894 35.0646 83.8509 36.8624 82.1349 38.1126C80.4189 39.3628 78.328 39.9908 76.2072 39.8929C73.4826 39.9429 70.8497 38.9089 68.8872 37.0184C66.9246 35.1278 65.7931 32.5353 65.7413 29.8107C65.7309 29.5618 65.7413 29.3025 65.7517 29.0432ZM92.0461 39.4157H88.6439V18.1935H92.0461V26.4915C92.54 25.9057 93.1612 25.4405 93.8623 25.1313C94.5633 24.8221 95.3258 24.6771 96.0914 24.7074C99.6077 24.7074 101.278 27.228 101.278 30.3709V39.4157H98V30.9725C98.0982 30.2527 97.9097 29.5232 97.475 28.9411C97.0404 28.359 96.3945 27.971 95.6765 27.8607C95.473 27.8398 95.268 27.8398 95.0645 27.8607C94.2777 27.8607 93.5232 28.1732 92.9669 28.7296C92.4105 29.2859 92.098 30.0405 92.098 30.8273C92.0928 30.9136 92.0928 31.0002 92.098 31.0866L92.0461 39.4157ZM108.912 31.2422L112.563 30.6717C113.393 30.5679 113.6 30.1427 113.6 29.6344C113.6 28.4312 112.791 27.4665 110.903 27.4665C110.19 27.4089 109.484 27.6347 108.936 28.0949C108.388 28.5551 108.044 29.2126 107.978 29.9248V30.0804L104.867 29.3855C105.126 26.9168 107.366 24.7178 110.872 24.7178C115.27 24.7178 116.94 27.2072 116.94 30.1115V37.196C116.937 37.9636 116.996 38.7303 117.117 39.4883H114.005C113.893 38.8867 113.847 38.2744 113.87 37.6628C113.398 38.3897 112.743 38.9801 111.971 39.375C111.2 39.7699 110.338 39.9557 109.472 39.9136C108.289 40.0113 107.116 39.6358 106.21 38.8697C105.304 38.1035 104.739 37.0092 104.638 35.8268C104.638 35.7542 104.638 35.6816 104.638 35.6194C104.587 32.9951 106.464 31.5845 108.912 31.2422ZM113.621 33.5345V32.881L109.897 33.4411C109.392 33.4572 108.912 33.6679 108.558 34.0294C108.205 34.3909 108.004 34.8751 107.999 35.3808C108.003 35.6314 108.057 35.8787 108.158 36.1083C108.258 36.3379 108.403 36.5451 108.585 36.7179C108.766 36.8908 108.981 37.0257 109.215 37.1149C109.449 37.2041 109.699 37.2458 109.949 37.2375H110.105C110.529 37.2819 110.958 37.2419 111.368 37.1198C111.777 36.9977 112.157 36.7958 112.488 36.5258C112.819 36.2559 113.093 35.9232 113.294 35.5468C113.496 35.1705 113.621 34.7581 113.663 34.3332C113.677 34.0658 113.66 33.7977 113.611 33.5345H113.621ZM122.728 17.903C123.021 17.8989 123.311 17.9526 123.582 18.061C123.854 18.1695 124.101 18.3304 124.311 18.5348C124.52 18.7391 124.686 18.9828 124.801 19.2517C124.916 19.5207 124.976 19.8096 124.979 20.102C124.979 20.5397 124.85 20.9676 124.607 21.3319C124.364 21.6963 124.02 21.9808 123.616 22.1496C123.212 22.3185 122.767 22.3643 122.338 22.2811C121.908 22.1979 121.512 21.9896 121.201 21.6823C120.889 21.375 120.675 20.9823 120.586 20.5538C120.497 20.1253 120.536 19.68 120.7 19.2739C120.863 18.8678 121.143 18.519 121.504 18.2714C121.864 18.0238 122.29 17.8884 122.728 17.8823V17.903ZM121.069 39.478V25.1431H124.471V39.4157L121.069 39.478ZM132.219 39.4157H128.827V25.1431H132.136V27.0413C132.567 26.3124 133.187 25.713 133.93 25.306C134.673 24.899 135.511 24.6995 136.358 24.7282C139.843 24.7282 141.544 27.2487 141.544 30.3916V39.4157H138.152V30.9725C138.152 29.2195 137.353 27.7985 135.217 27.7985C134.822 27.8012 134.431 27.8817 134.067 28.0354C133.703 28.189 133.373 28.4129 133.096 28.6942C132.818 28.9754 132.599 29.3085 132.45 29.6745C132.302 30.0405 132.227 30.4322 132.229 30.8273C132.229 30.9414 132.229 31.0555 132.229 31.1695L132.219 39.4157ZM145.652 39.4157V18.1935H149.054V39.4157H145.652ZM155.122 17.903C155.56 17.901 155.988 18.0291 156.353 18.2711C156.718 18.513 157.003 18.858 157.171 19.2621C157.34 19.6662 157.384 20.1113 157.299 20.5409C157.214 20.9704 157.004 21.365 156.694 21.6746C156.385 21.9842 155.99 22.1949 155.56 22.2798C155.131 22.3647 154.686 22.3201 154.282 22.1516C153.878 21.9831 153.533 21.6983 153.291 21.3334C153.049 20.9685 152.921 20.5399 152.923 20.102C152.928 19.5205 153.161 18.9643 153.573 18.5531C153.984 18.1419 154.54 17.9085 155.122 17.903ZM153.452 39.478V25.1431H156.823V39.4157L153.452 39.478ZM164.623 39.4157H161.221V25.1431H164.53V27.0413C164.962 26.3131 165.582 25.7144 166.324 25.3075C167.067 24.9006 167.905 24.7006 168.751 24.7282C172.236 24.7282 173.937 27.2487 173.937 30.3916V39.4157H170.535V30.9725C170.633 30.2527 170.445 29.5232 170.01 28.9411C169.576 28.359 168.93 27.971 168.212 27.8607C168.005 27.8399 167.796 27.8399 167.589 27.8607C166.797 27.8689 166.04 28.1894 165.483 28.7527C164.925 29.3159 164.613 30.0763 164.613 30.8687C164.602 30.9895 164.602 31.111 164.613 31.2318L164.623 39.4157ZM185.544 31.1695L191.529 39.4676H187.38L183.231 33.5864L181.478 35.4327V39.4157H178.107V18.1935H181.478V30.9102L186.955 25.1431H191.467L185.544 31.1695ZM25.475 12.4471L40.1833 20.8903V37.8599L25.5165 46.355L10.8186 37.9325V20.9733L25.475 12.4471ZM25.475 0L20.0813 3.11177L5.39373 11.638L0 14.7498V44.1767L5.39373 47.2885L20.102 55.7318L25.4958 58.8435L30.8895 55.7318L45.5459 47.2263L50.9396 44.1145V14.6461L45.5459 11.5343L30.848 3.11177L25.4543 0H25.475Z" fill="white"/>
</svg>
