<svg width="201" height="39" viewBox="0 0 201 39" fill="none" xmlns="http://www.w3.org/2000/svg">
<path d="M186.567 10.2521C186.301 10.2521 186.169 10.3848 185.903 10.5175C185.737 10.7165 185.638 10.9488 185.638 11.2141V31.4825C185.638 31.7478 185.77 31.8805 185.903 32.1791C186.036 32.3118 186.301 32.4445 186.567 32.4445C186.832 32.4445 186.965 32.3118 187.23 32.1791C187.396 31.98 187.495 31.7478 187.495 31.4825V22.2605H192.67L197.414 32.0464C197.547 32.3118 197.812 32.6103 198.243 32.6103C198.376 32.6103 198.509 32.6103 198.641 32.4776C198.907 32.3449 199.039 32.2122 199.039 31.9137C199.172 31.6483 199.039 31.5156 199.039 31.2171L194.694 22.2605C196.187 21.9952 197.547 21.2985 198.509 20.2038C199.603 19.1092 200.001 17.8486 200.001 16.3559C200.001 14.6972 199.338 13.3372 198.111 12.0766C196.883 10.9819 195.39 10.2853 193.632 10.2853C193.632 10.2521 186.567 10.2521 186.567 10.2521ZM196.751 19.076C195.921 19.9053 194.86 20.3034 193.632 20.3034H187.529V12.0434H193.5C194.727 12.0434 195.822 12.4415 196.751 13.2708C197.713 14.1001 198.111 15.0621 198.111 16.1568C198.111 17.2847 197.58 18.2467 196.751 19.076ZM177.345 32.4445C177.61 32.4445 177.743 32.3118 178.008 32.1791C178.174 31.98 178.274 31.7478 178.274 31.4825C178.274 31.2171 178.141 31.0844 178.008 30.7858C177.809 30.62 177.577 30.5205 177.345 30.5205H166.066V22.2605H174.492C174.757 22.2605 174.89 22.1278 175.155 21.9952C175.321 21.7961 175.421 21.5639 175.421 21.2985C175.421 21.0332 175.288 20.9005 175.155 20.6019C174.956 20.4361 174.724 20.3365 174.492 20.3365H166.066V12.0766H177.345C177.61 12.0766 177.743 11.9439 178.008 11.8112C178.174 11.6122 178.274 11.38 178.274 11.1146C178.274 10.8492 178.141 10.7165 178.008 10.418C177.809 10.2521 177.577 10.1526 177.345 10.1526H165.137C164.872 10.1526 164.739 10.2853 164.474 10.418C164.308 10.617 164.208 10.8492 164.208 11.1146V31.4825C164.208 31.7478 164.341 31.8805 164.474 32.1791C164.607 32.3118 164.872 32.4445 165.137 32.4445H177.345ZM143.542 32.0464C143.708 31.8474 143.807 31.6152 143.807 31.3498V25.4119L146.528 22.5259L155.617 32.1791C155.749 32.3118 156.015 32.4445 156.28 32.4445C156.546 32.4445 156.678 32.3118 156.944 32.1791C157.11 31.98 157.209 31.7478 157.209 31.4825C157.209 31.2171 157.076 31.0844 156.944 30.7858L147.854 21L156.678 11.7781C156.844 11.579 156.944 11.3468 156.944 11.0814C156.944 10.8161 156.811 10.6834 156.678 10.3848C156.479 10.219 156.247 10.1194 155.982 10.1194C155.716 10.1194 155.584 10.2521 155.318 10.3848L143.774 22.7913V11.0814C143.774 10.8161 143.642 10.6834 143.509 10.3848C143.31 10.219 143.078 10.1194 142.845 10.1194C142.58 10.1194 142.447 10.2521 142.182 10.3848C142.182 10.6502 142.049 10.7829 142.049 11.0814V31.3498C142.049 31.6152 142.182 31.7478 142.315 32.0464C142.447 32.1791 142.713 32.3118 142.978 32.3118C143.111 32.3118 143.409 32.1791 143.542 32.0464ZM117.734 32.4445C118.132 32.4445 118.397 32.3118 118.563 31.8805L120.454 27.2032H131.6L133.491 31.8805C133.623 32.2786 133.889 32.4445 134.32 32.4445C134.453 32.4445 134.586 32.4445 134.718 32.3118C134.95 32.2123 135.149 32.0132 135.249 31.7478C135.382 31.4825 135.382 31.3498 135.249 31.0512L133.093 25.81L126.856 10.6502C126.856 10.6502 126.856 10.5175 126.724 10.5175V10.3848H126.591C126.458 10.2521 126.326 10.2521 126.326 10.2521H126.06H125.795C125.662 10.2521 125.529 10.2521 125.529 10.3848H125.397V10.5175C125.397 10.5175 125.397 10.6502 125.264 10.6502L118.961 25.8432L116.772 31.0844C116.639 31.3498 116.639 31.4825 116.772 31.781C116.905 32.0464 117.037 32.1791 117.303 32.3449C117.469 32.4445 117.601 32.4445 117.734 32.4445ZM121.118 25.4119L125.994 13.5694L130.87 25.4119H121.118ZM89.5042 14.5314L97.7973 28.2979V28.4306H99.4228V28.2979L107.716 14.5314V31.6151C107.716 31.8805 107.849 32.0132 107.981 32.3118C108.114 32.4445 108.379 32.5771 108.645 32.5771C108.91 32.5771 109.043 32.4445 109.308 32.3118C109.474 32.1127 109.574 31.8805 109.574 31.6151V11.2141C109.574 10.8161 109.308 10.3848 108.91 10.3848C108.512 10.2521 108.081 10.3848 107.815 10.7829L98.5935 25.9427L89.5042 10.6502C89.2388 10.2521 88.8408 10.0863 88.4095 10.2521C88.0115 10.3848 87.7461 10.6502 87.7461 11.2141V31.6151C87.7461 31.8805 87.8788 32.0132 88.0115 32.3118C88.1442 32.3118 88.4095 32.4445 88.6749 32.4445C88.9403 32.4445 89.073 32.3118 89.3384 32.1791C89.5042 31.98 89.6037 31.7478 89.6037 31.4825V14.5314H89.5042Z" fill="white" stroke="white" stroke-width="0.805252"/>
<path d="M26.7747 35.4963V19.2087C26.7747 18.0476 26.2108 16.9861 25.2156 16.3227L5.54438 3.28592C4.74825 2.75516 3.68673 2.98737 3.15597 3.78351C2.95694 4.08206 2.85742 4.41378 2.85742 4.7455V35.5295M35.9966 35.4963V19.2087C35.9966 18.0476 36.5606 16.9861 37.5557 16.3227L57.227 3.28592C58.0231 2.75516 59.0846 2.98737 59.6154 3.78351C59.8144 4.08206 59.9139 4.41378 59.9139 4.7455V35.5295" stroke="white" stroke-width="5.0612"/>
<path d="M2.89083 32.9421C3.95234 32.9421 4.78165 33.8046 4.78165 34.8329V36.2261C4.78165 37.2877 3.91917 38.117 2.89083 38.117C1.82931 38.117 1 37.2545 1 36.2261V34.8329C1 33.7714 1.82931 32.9421 2.89083 32.9421ZM35.9969 32.9421C37.0584 32.9421 37.8877 33.8046 37.8877 34.8329V36.2261C37.8877 37.2877 37.0252 38.117 35.9969 38.117C34.9354 38.117 34.106 37.2545 34.106 36.2261V34.8329C34.0729 33.7714 34.9354 32.9421 35.9969 32.9421ZM59.8478 32.9421C60.9093 32.9421 61.7386 33.8046 61.7386 34.8329V36.2261C61.7386 37.2877 60.8762 38.117 59.8478 38.117C58.7863 38.117 57.957 37.2545 57.957 36.2261V34.8329C57.957 33.7714 58.8195 32.9421 59.8478 32.9421ZM26.7749 32.9421C27.8365 32.9421 28.6658 33.8046 28.6658 34.8329V36.2261C28.6658 37.2877 27.8033 38.117 26.7749 38.117C25.7134 38.117 24.8841 37.2545 24.8841 36.2261V34.8329C24.8509 33.7714 25.7134 32.9421 26.7749 32.9421Z" fill="white"/>
</svg>
