<svg width="186" height="40" viewBox="0 0 186 40" fill="none" xmlns="http://www.w3.org/2000/svg">
<path d="M32.9494 11.9442C32.1394 11.4499 31.096 11.4499 30.2174 11.9442L23.9295 15.7471L19.6598 18.232L13.372 22.0349C12.562 22.5292 11.5186 22.5292 10.6399 22.0349L5.64259 19.0557C4.83258 18.5615 4.2697 17.6554 4.2697 16.6532V10.7909C4.2697 9.80245 4.75021 8.89634 5.64259 8.38837L10.5575 5.49157C11.3675 4.99733 12.4109 4.99733 13.2896 5.49157L18.2046 8.38837C19.0146 8.88261 19.5774 9.78872 19.5774 10.7909V14.5938L23.8471 12.0265V8.22363C23.8471 7.23514 23.3666 6.32903 22.4743 5.82106L13.372 0.370681C12.562 -0.12356 11.5186 -0.12356 10.6399 0.370681L1.37289 5.82106C0.480512 6.31531 0 7.22141 0 8.22363V19.2205C0 20.209 0.480512 21.1151 1.37289 21.6231L10.6399 27.0734C11.4499 27.5677 12.4933 27.5677 13.372 27.0734L19.6598 23.3529L23.9295 20.7856L30.2174 17.0651C31.0274 16.5708 32.0708 16.5708 32.9494 17.0651L37.8644 19.9619C38.6744 20.4561 39.2373 21.3622 39.2373 22.3644V28.2404C39.2373 29.2289 38.7568 30.135 37.8644 30.643L32.9494 33.6221C32.1394 34.1164 31.096 34.1164 30.2174 33.6221L25.3024 30.7253C24.4924 30.2311 23.9295 29.325 23.9295 28.3228V24.5199L19.6598 27.0872V30.8901C19.6598 31.8786 20.1403 32.7847 21.0327 33.2926L30.2997 38.743C31.1097 39.2373 32.1531 39.2373 33.0318 38.743L42.2988 33.2926C43.1088 32.7984 43.6717 31.8923 43.6717 30.8901V19.8932C43.6717 18.9047 43.1912 17.9986 42.2988 17.4907L32.9632 11.9579L32.9494 11.9442Z" fill="white"/>
<path d="M60.6675 35.5853V26.4555C61.656 27.7049 63.427 28.4051 65.5001 28.4051C70.772 28.4051 74.3415 24.6296 74.3415 18.8772C74.3415 13.1248 71.074 9.3493 65.9394 9.3493C63.578 9.3493 61.7521 10.228 60.6675 11.6558V9.63761H55.6152V35.5853H60.6675ZM64.8823 23.9981C62.1502 23.9981 60.3654 21.9387 60.3654 18.8635C60.3654 15.747 62.1502 13.7014 64.8823 13.7014C67.5319 13.7014 69.3579 15.7607 69.3579 18.8635C69.3579 21.9387 67.5457 23.9981 64.8823 23.9981ZM85.8326 28.4051C91.4752 28.4051 95.5115 24.3687 95.5115 18.8772C95.5115 13.3856 91.4752 9.3493 85.8326 9.3493C80.19 9.3493 76.1537 13.3856 76.1537 18.8772C76.1537 24.3687 80.19 28.4051 85.8326 28.4051ZM85.8326 24.0118C83.1005 24.0118 81.2471 21.925 81.2471 18.8772C81.2471 15.8019 83.1005 13.7151 85.8326 13.7151C88.5647 13.7151 90.4181 15.8019 90.4181 18.8772C90.4181 21.925 88.5647 24.0118 85.8326 24.0118Z" fill="white"/>
<path d="M103.612 28.1168V1.60626H98.5596V28.1168H103.612Z" fill="white"/>
<path d="M118.81 9.63782L114.994 21.5545L111.136 9.63782H105.974L112.632 27.9659L109.941 35.5855H114.774L117.355 28.0346L124.013 9.63782H118.81Z" fill="white"/>
<path d="M138.223 11.4637C137.207 10.1869 135.381 9.33569 133.17 9.33569C127.816 9.33569 124.59 13.1111 124.59 18.8636C124.59 24.616 127.83 28.3914 133.253 28.3914C135.395 28.3914 137.33 27.5814 138.278 26.2223V28.6386C138.278 30.3684 137.152 31.5766 135.628 31.5766H127.185V35.5717H136.424C140.57 35.5717 143.33 33.0455 143.33 29.1877V9.61027H138.236V11.4499L138.223 11.4637ZM134.035 23.9982C131.344 23.9982 129.56 21.98 129.56 18.8636C129.56 15.7471 131.344 13.7015 134.035 13.7015C136.767 13.7015 138.552 15.7608 138.552 18.8636C138.552 21.98 136.767 23.9982 134.035 23.9982ZM156.057 28.4052C161.699 28.4052 165.735 24.3689 165.735 18.8773C165.735 13.3857 161.699 9.34942 156.057 9.34942C150.414 9.34942 146.378 13.3857 146.378 18.8773C146.378 24.3689 150.414 28.4052 156.057 28.4052ZM156.057 24.0119C153.324 24.0119 151.471 21.9251 151.471 18.8773C151.471 15.802 153.324 13.7152 156.057 13.7152C158.789 13.7152 160.642 15.802 160.642 18.8773C160.642 21.9251 158.789 24.0119 156.057 24.0119ZM173.588 28.1169V17.9986C173.588 15.6098 175.153 13.8937 177.378 13.8937C179.492 13.8937 180.906 15.5 180.906 17.7378V28.1169H185.999V16.612C185.999 12.3561 183.308 9.34942 179.162 9.34942C176.65 9.34942 174.618 10.4065 173.602 12.205V9.63773H168.509V28.1169H173.602H173.588Z" fill="white"/>
</svg>
