<svg width="196" height="39" viewBox="0 0 196 39" fill="none" xmlns="http://www.w3.org/2000/svg">
<path d="M67.6111 19.1602L48.4509 0V14.0561L29.3691 28.1121H48.4509V38.3205L67.6111 19.1602Z" fill="white"/>
<path d="M0 19.1602L19.1602 38.3205V24.4215L38.0849 10.3654H19.1602V0L0 19.1602Z" fill="white"/>
<path d="M97.1364 30.4679H82.4521V26.2275L90.8544 16.8045H82.6092V12.6426H96.9794V16.6474L88.3416 26.2275H97.1364V30.4679ZM117.239 12.6426L110.093 20.1026L117.396 30.3894H111.507L106.795 23.6362L104.832 25.7564V30.4679H100.042V4.31891H104.832V19.3173L110.957 12.7211H117.239V12.6426ZM138.127 10.9151L133.651 12.25C133.494 11.3077 133.023 10.5224 132.316 9.73717C131.531 8.95191 130.51 8.63782 129.018 8.63782C127.84 8.63782 126.898 8.9519 126.112 9.58011C125.327 10.2083 125.013 10.9936 125.013 11.8574C125.013 13.4279 125.955 14.3702 127.761 14.7628L131.374 15.4695C133.651 15.9407 135.378 16.8045 136.635 18.2179C137.891 19.5529 138.519 21.2019 138.519 23.0865C138.519 25.2067 137.656 27.0913 136.007 28.6618C134.358 30.2323 132.08 31.0176 129.253 31.0176C127.604 31.0176 126.191 30.782 124.856 30.3109C123.521 29.8397 122.5 29.2115 121.715 28.4262C120.93 27.641 120.301 26.7772 119.83 25.8349C119.359 24.8926 119.124 23.9503 119.045 23.008L123.678 21.7516C123.835 23.0865 124.306 24.2644 125.249 25.2067C126.191 26.149 127.526 26.5416 129.253 26.5416C130.588 26.5416 131.531 26.2275 132.316 25.6779C133.101 25.1282 133.415 24.3429 133.415 23.4006C133.415 22.6154 133.101 21.9872 132.551 21.516C132.002 20.9663 131.295 20.5737 130.274 20.4167L126.662 19.7099C124.62 19.2388 122.971 18.4535 121.715 17.1186C120.537 15.8622 119.909 14.2916 119.909 12.3285C119.909 10.0513 120.773 8.16666 122.5 6.59615C124.228 5.02563 126.348 4.31891 128.861 4.31891C130.353 4.31891 131.609 4.55448 132.787 4.9471C133.965 5.33973 134.907 5.88942 135.535 6.59615C136.242 7.30288 136.792 7.93109 137.184 8.71635C137.734 9.34455 137.97 10.1298 138.127 10.9151Z" fill="white" fill-opacity="0.9"/>
<path d="M146.608 37.4567H141.504L145.665 28.1907L138.127 12.6426H143.545L148.257 23.008L152.654 12.6426H157.758L146.608 37.4567ZM164.433 20.181V30.3894H159.643V12.6426H164.276V14.8413C164.747 13.9775 165.532 13.3493 166.475 12.8782C167.417 12.407 168.438 12.1714 169.459 12.1714C171.579 12.1714 173.149 12.7997 174.249 14.1346C175.348 15.4695 175.898 17.1186 175.898 19.1602V30.3894H171.029V20.024C171.029 19.0032 170.715 18.1394 170.165 17.4326C169.616 16.8044 168.83 16.4904 167.731 16.4904C166.71 16.4904 165.925 16.8044 165.297 17.5112C164.747 18.2964 164.433 19.1602 164.433 20.181ZM187.677 16.5689C186.42 16.5689 185.321 17.04 184.457 17.9038C183.593 18.7676 183.122 20.024 183.122 21.516C183.122 23.008 183.593 24.2644 184.457 25.2067C185.321 26.0705 186.42 26.5416 187.677 26.5416C188.776 26.5416 189.718 26.2275 190.425 25.6778C191.132 25.0496 191.524 24.3429 191.76 23.5577L196 24.9711C195.529 26.6201 194.665 28.0336 193.173 29.2115C191.76 30.3894 189.875 31.0176 187.677 31.0176C185.007 31.0176 182.808 30.1538 181.002 28.3477C179.196 26.5416 178.332 24.2644 178.332 21.5945C178.332 18.8461 179.196 16.6474 181.002 14.8413C182.808 13.0352 185.007 12.1714 187.598 12.1714C189.875 12.1714 191.76 12.7996 193.173 13.9775C194.587 15.1554 195.529 16.5689 195.922 18.2179L191.603 19.6314C190.975 17.5897 189.718 16.5689 187.677 16.5689Z" fill="white" fill-opacity="0.9"/>
</svg>
