<svg width="63" height="51" viewBox="0 0 63 51" fill="none" xmlns="http://www.w3.org/2000/svg">
<path fill-rule="evenodd" clip-rule="evenodd" d="M7.47075 10.2034C7.5495 9.429 7.25287 8.66513 6.67537 8.14538L0.795375 1.05788V0H19.0601L33.1774 30.9619L45.5884 0H63V1.05788L57.9705 5.88C57.5374 6.21075 57.3221 6.75412 57.4114 7.29225V42.7245C57.3221 43.26 57.5374 43.8034 57.9705 44.1341L62.8819 48.9562V50.0141H38.1754V48.9562L43.2653 44.016C43.764 43.5173 43.764 43.3703 43.764 42.6064V13.9676L29.6179 49.8986H27.7069L11.235 13.9676V38.0494C11.0985 39.06 11.4345 40.0811 12.1459 40.8109L18.7635 48.8381V49.8986H0V48.8381L6.61762 40.8109C7.32638 40.0785 7.64138 39.0521 7.47075 38.0494V10.2034Z" fill="white"/>
</svg>
